<svg width="319" height="270" viewBox="0 0 319 270" fill="none" xmlns="http://www.w3.org/2000/svg">
<path d="M162.023 269.707C280.336 276.275 333.758 170.871 315.494 92.1037C309.339 55.2121 286.317 29.5715 247.606 14.4852C224.708 5.5616 197.252 -3.97212 162.023 1.71659C43.0337 17.0688 -10.5405 109.542 24.6516 187.319C55.7632 240.569 87.7225 265.583 162.023 269.707Z" fill="#B17C8F"/>
<g opacity="0.5">
<path d="M98.9996 256.5C117.499 253 134.501 250.5 156.582 247.199" stroke="#311616" stroke-width="2" stroke-linecap="round"/>
<path d="M52.9999 226C69.5061 224.496 104.485 218.872 153.555 209.956" stroke="#311616" stroke-width="2" stroke-linecap="round"/>
<path d="M144.501 98.0456C29.8848 116.005 27.0432 117.599 17.0013 118" stroke="#311616" stroke-width="2" stroke-linecap="round"/>
<path d="M147.507 135.558C99.7649 140.753 27.6008 151.991 16.5007 154" stroke="#311616" stroke-width="2" stroke-linecap="round"/>
<path d="M150.533 172.801C93.2363 181.863 49.4404 190.137 29.0008 192" stroke="#311616" stroke-width="2" stroke-linecap="round"/>
<path d="M32.4991 78C54.9992 74.5 87.999 69 102.377 66.4977C112.424 64.7493 132.697 63.0782 141.493 61.0004" stroke="#311616" stroke-width="2" stroke-linecap="round"/>
<path d="M76 33C113.421 26.226 91 31 138.49 23.4878" stroke="#311616" stroke-width="2" stroke-linecap="round"/>
</g>
</svg>
