<svg width="1440" height="15" viewBox="0 0 1440 15" fill="none" xmlns="http://www.w3.org/2000/svg">
<path d="M30 0L60 15H0L30 0Z" fill="#F4F3F4"/>
<path d="M90 0L120 15H60L90 0Z" fill="#F4F3F4"/>
<path d="M150 0L180 15H120L150 0Z" fill="#F4F3F4"/>
<path d="M210 0L240 15H180L210 0Z" fill="#F4F3F4"/>
<path d="M270 0L300 15H240L270 0Z" fill="#F4F3F4"/>
<path d="M330 0L360 15H300L330 0Z" fill="#F4F3F4"/>
<path d="M390 0L420 15H360L390 0Z" fill="#F4F3F4"/>
<path d="M450 0L480 15H420L450 0Z" fill="#F4F3F4"/>
<path d="M510 0L540 15H480L510 0Z" fill="#F4F3F4"/>
<path d="M570 0L600 15H540L570 0Z" fill="#F4F3F4"/>
<path d="M630 0L660 15H600L630 0Z" fill="#F4F3F4"/>
<path d="M690 0L720 15H660L690 0Z" fill="#F4F3F4"/>
<path d="M750 0L780 15H720L750 0Z" fill="#F4F3F4"/>
<path d="M810 0L840 15H780L810 0Z" fill="#F4F3F4"/>
<path d="M870 0L900 15H840L870 0Z" fill="#F4F3F4"/>
<path d="M930 0L960 15H900L930 0Z" fill="#F4F3F4"/>
<path d="M990 0L1020 15H960L990 0Z" fill="#F4F3F4"/>
<path d="M1050 0L1080 15H1020L1050 0Z" fill="#F4F3F4"/>
<path d="M1110 0L1140 15H1080L1110 0Z" fill="#F4F3F4"/>
<path d="M1170 0L1200 15H1140L1170 0Z" fill="#F4F3F4"/>
<path d="M1230 0L1260 15H1200L1230 0Z" fill="#F4F3F4"/>
<path d="M1290 0L1320 15H1260L1290 0Z" fill="#F4F3F4"/>
<path d="M1350 0L1380 15H1320L1350 0Z" fill="#F4F3F4"/>
<path d="M1410 0L1440 15H1380L1410 0Z" fill="#F4F3F4"/>
</svg>
