<svg width="645" height="300" viewBox="0 0 645 300" fill="none" xmlns="http://www.w3.org/2000/svg">
<path d="M126.534 1.29979C22.1122 -0.968781 14.1518 1.29979 4.78664 14.3441C4.78664 40.4327 -5.9833 270.781 4.78664 292.9C9.87827 303.357 126.534 299.174 164.931 299.174C203.328 299.174 595.261 291.198 609.308 292.9C623.356 294.601 640.213 286.838 640.213 268.69C640.213 250.541 650.983 32.9 640.213 12.4829C629.443 -7.93424 530.641 2.84155 492.244 2.84155C453.846 2.84155 230.955 3.56836 126.534 1.29979Z" fill="#F9F3F4"/>
<path d="M41.0784 26.6061C40.632 25.5066 39.6865 24.5339 38.5956 24.0574C36.9483 23.3361 35.3461 23.695 33.8842 24.6003C32.9591 25.1705 32.4407 26.057 31.9547 26.9884C30.8714 29.0561 32.1872 31.5973 34.1209 32.5321C35.1341 33.0229 36.1762 33.1526 37.2951 33.059C40.3526 32.8004 42.1874 29.337 41.0784 26.6061Z" fill="#B5B2B8"/>
<path d="M41.0784 270.606C40.632 269.507 39.6865 268.534 38.5956 268.057C36.9483 267.336 35.3461 267.695 33.8842 268.6C32.9591 269.17 32.4407 270.057 31.9547 270.988C30.8714 273.056 32.1872 275.597 34.1209 276.532C35.1341 277.023 36.1762 277.153 37.2951 277.059C40.3526 276.8 42.1874 273.337 41.0784 270.606Z" fill="#B5B2B8"/>
<path d="M610.032 23.6625C607.581 23.3079 604.919 25.1234 604.665 27.6713C604.412 30.2292 606.045 32.6551 608.671 33.0376C611.122 33.3922 613.783 31.5783 614.038 29.0272C614.293 26.4711 612.658 24.0433 610.032 23.6625Z" fill="#B5B2B8"/>
<path d="M610.032 267.662C607.581 267.308 604.919 269.123 604.665 271.671C604.412 274.229 606.045 276.655 608.671 277.038C611.122 277.392 613.783 275.578 614.038 273.027C614.293 270.471 612.658 268.043 610.032 267.662Z" fill="#B5B2B8"/>
</svg>
