<svg viewBox="0 0 30 18" fill="none" xmlns="http://www.w3.org/2000/svg">
<rect x="0.5" y="0.5" width="29" height="17" stroke="#B17C8F"/>
<rect x="7" width="1" height="18" fill="#B17C8F"/>
<rect x="30" y="12" width="1" height="30" transform="rotate(90 30 12)" fill="#B17C8F"/>
<path d="M5.76829 8.29895C6.6385 9.16113 7.34469 10.6468 7.47752 12.4028C5.88143 12.0791 4.36471 11.3811 3.42665 10.5611C2.89817 10.0992 2.60145 9.64127 2.52221 9.23647C2.44994 8.86726 2.54287 8.46548 2.97979 8.0328C3.4191 7.59777 3.87737 7.46067 4.31953 7.50935C4.78021 7.56007 5.28547 7.82058 5.76829 8.29895Z" stroke="#B17C8F"/>
<path d="M9.85831 6.61354C8.62986 7.83066 7.65244 9.9382 7.51624 12.4087C9.74439 11.9929 11.8887 11.0264 13.2075 9.87363C13.9263 9.24536 14.3517 8.60451 14.4673 8.01398C14.5759 7.45903 14.427 6.86875 13.8109 6.25865C13.1924 5.64622 12.5327 5.44261 11.8891 5.51347C11.2269 5.58637 10.5202 5.95776 9.85831 6.61354Z" stroke="#B17C8F"/>
<path d="M7.5 12.5L5 15" stroke="#B17C8F"/>
</svg>
