<svg width="36" height="21" viewBox="0 0 36 21" fill="none" xmlns="http://www.w3.org/2000/svg">
<rect x="0.5" y="0.5" width="35" height="20" stroke="#B17C8F"/>
<rect x="7" width="1" height="21" fill="#B17C8F"/>
<rect x="36" y="15" width="1" height="36" transform="rotate(90 36 15)" fill="#B17C8F"/>
<path d="M5.76829 11.299C6.6385 12.1611 7.34469 13.6468 7.47752 15.4028C5.88143 15.0791 4.36471 14.3811 3.42665 13.5611C2.89817 13.0992 2.60145 12.6413 2.52221 12.2365C2.44994 11.8673 2.54287 11.4655 2.97979 11.0328C3.4191 10.5978 3.87737 10.4607 4.31953 10.5094C4.78021 10.5601 5.28547 10.8206 5.76829 11.299Z" stroke="#B17C8F"/>
<path d="M9.85831 9.61354C8.62986 10.8307 7.65244 12.9382 7.51624 15.4087C9.74439 14.9929 11.8887 14.0264 13.2075 12.8736C13.9263 12.2454 14.3517 11.6045 14.4673 11.014C14.5759 10.459 14.427 9.86875 13.8109 9.25865C13.1924 8.64622 12.5327 8.44261 11.8891 8.51347C11.2269 8.58637 10.5202 8.95776 9.85831 9.61354Z" stroke="#B17C8F"/>
<path d="M7.5 15.5L5 18" stroke="#B17C8F"/>
<path d="M18 6.5L31 4.5" stroke="#B17C8F"/>
<path d="M19 10.5L25 9.5" stroke="#B17C8F"/>
</svg>
