<svg width="22" height="20" viewBox="0 0 22 20" fill="none" xmlns="http://www.w3.org/2000/svg">
<path d="M7.50002 5.64917V14.3508H5.73497V7.26519H4.5V5.64917H7.50002Z" fill="#726C78"/>
<path d="M13.8342 9.77624C14.2119 9.99171 14.4988 10.2735 14.695 10.6215C14.8983 10.9696 15 11.3715 15 11.8273C15 12.366 14.8656 12.8384 14.5969 13.2445C14.3281 13.6423 13.9504 13.953 13.4638 14.1768C12.9771 14.3923 12.4142 14.5 11.775 14.5C11.1358 14.5 10.5729 14.3923 10.0862 14.1768C9.60681 13.953 9.23273 13.6423 8.96398 13.2445C8.70249 12.8384 8.57174 12.366 8.57174 11.8273C8.57174 11.3715 8.6698 10.9696 8.86592 10.6215C9.0693 10.2735 9.35621 9.99171 9.72666 9.77624C9.44338 9.57735 9.22547 9.32873 9.07293 9.03039C8.9204 8.72376 8.84413 8.37569 8.84413 7.98619C8.84413 7.48066 8.96761 7.04144 9.21457 6.66851C9.46153 6.29558 9.80655 6.00967 10.2496 5.81077C10.6927 5.60359 11.2012 5.5 11.775 5.5C12.3561 5.5 12.8682 5.60359 13.3112 5.81077C13.7616 6.00967 14.1102 6.29558 14.3572 6.66851C14.6042 7.04144 14.7276 7.48066 14.7276 7.98619C14.7276 8.37569 14.6514 8.72376 14.4988 9.03039C14.3463 9.32873 14.1248 9.57735 13.8342 9.77624ZM11.775 6.97928C11.4191 6.97928 11.1322 7.07873 10.9143 7.27762C10.7036 7.46823 10.5983 7.73343 10.5983 8.0732C10.5983 8.4047 10.7036 8.66575 10.9143 8.85635C11.1249 9.04696 11.4118 9.14226 11.775 9.14226C12.1382 9.14226 12.4287 9.04696 12.6466 8.85635C12.8645 8.66575 12.9735 8.4047 12.9735 8.0732C12.9735 7.73343 12.8645 7.46823 12.6466 7.27762C12.4287 7.07873 12.1382 6.97928 11.775 6.97928ZM11.775 13.0207C12.2181 13.0207 12.5667 12.9088 12.8209 12.6851C13.0824 12.453 13.2132 12.1464 13.2132 11.7652C13.2132 11.384 13.0824 11.0815 12.8209 10.8577C12.5667 10.634 12.2181 10.5221 11.775 10.5221C11.3392 10.5221 10.9942 10.634 10.7399 10.8577C10.4857 11.0815 10.3586 11.384 10.3586 11.7652C10.3586 12.1547 10.4857 12.4613 10.7399 12.6851C10.9942 12.9088 11.3392 13.0207 11.775 13.0207Z" fill="#726C78"/>
<path d="M22 10.7922H19.8067V13H18.1807V10.7922H16V9.20779H18.1807V7H19.8067V9.20779H22V10.7922Z" fill="#726C78"/>
<path d="M1 10C1 5.02944 5.02944 1 10 1C13.3496 1 16.2719 2.82992 17.8216 5.5446L18.8255 5.29362C17.1421 2.14344 13.8214 0 10 0C4.47715 0 0 4.47715 0 10C0 15.5228 4.47715 20 10 20C13.8214 20 17.1421 17.8566 18.8255 14.7064L17.8216 14.4554C16.2719 17.1701 13.3496 19 10 19C5.02944 19 1 14.9706 1 10Z" fill="#726C78"/>
</svg>
