<svg width="209" height="216" viewBox="0 0 209 216" fill="none" xmlns="http://www.w3.org/2000/svg">
<path d="M0.629324 108.457C11.5592 211.062 99.9159 221.531 108.249 212.726C111.805 208.968 84.8673 215.039 54.6482 197.651C21.1905 178.399 1.09042 123.124 7.32923 82.913C14.2793 38.1175 47.9481 27.6377 84.7983 19.6815C121.648 11.7252 157.704 28.0674 177.804 57.3801C197.904 86.6927 201.523 128.149 196.229 152.018C190.192 179.237 168.172 183.424 173.155 187.601C182.788 195.676 208.749 147.852 208.749 104.269C208.749 53.1925 165.289 4.95758e-05 102.805 5.50383e-05C35.4281 6.09286e-05 -5.64062 49.5976 0.629324 108.457Z" fill="#E0CBD2"/>
<path fill-rule="evenodd" clip-rule="evenodd" d="M67.5195 198.211C66.7534 197.896 66.3881 197.019 66.7036 196.253C67.2088 195.026 68.1083 193.035 69.183 191.004C70.2454 188.995 71.5325 186.844 72.8242 185.368C73.3698 184.744 74.3174 184.681 74.9409 185.227C75.5643 185.772 75.6275 186.72 75.082 187.343C74.0287 188.547 72.8731 190.444 71.8348 192.406C70.8087 194.346 69.9494 196.25 69.4776 197.395C69.1622 198.161 68.2855 198.527 67.5195 198.211Z" fill="#E0CBD2"/>
<path fill-rule="evenodd" clip-rule="evenodd" d="M59.5633 193.186C58.7973 192.871 58.432 191.994 58.7474 191.228C59.3391 189.791 60.5818 188.202 61.8351 186.748C62.4805 185.999 63.1662 185.244 63.8275 184.519C63.8921 184.448 63.9564 184.377 64.0205 184.307C64.6172 183.653 65.1877 183.028 65.7056 182.436C66.2511 181.813 67.1988 181.75 67.8222 182.295C68.4457 182.841 68.5088 183.788 67.9633 184.412C67.4234 185.029 66.831 185.678 66.2384 186.327C66.1735 186.398 66.1087 186.47 66.0439 186.541C65.3817 187.266 64.7222 187.993 64.1079 188.706C62.8416 190.176 61.9068 191.434 61.5214 192.37C61.206 193.136 60.3293 193.502 59.5633 193.186Z" fill="#E0CBD2"/>
<path fill-rule="evenodd" clip-rule="evenodd" d="M52.5626 187.157C51.8885 186.676 51.7324 185.739 52.2139 185.065C53.2582 183.603 54.1514 182.37 55.3331 181.132C56.5209 179.888 57.9651 178.673 60.1118 177.17C60.7905 176.695 61.7258 176.86 62.2009 177.539C62.676 178.218 62.5109 179.153 61.8322 179.628C59.7915 181.056 58.5138 182.145 57.5031 183.204C56.4864 184.269 55.7045 185.339 54.6551 186.809C54.1736 187.483 53.2368 187.639 52.5626 187.157Z" fill="#E0CBD2"/>
<path fill-rule="evenodd" clip-rule="evenodd" d="M46.8279 180.12C46.1086 179.709 45.8587 178.793 46.2697 178.074C47.2591 176.342 48.8145 174.938 50.382 173.749C51.3034 173.05 52.3562 172.338 53.3387 171.673C53.9632 171.25 54.5594 170.847 55.0753 170.478C55.7494 169.997 56.6862 170.153 57.1677 170.827C57.6493 171.501 57.4931 172.438 56.819 172.92C56.1555 173.394 55.5113 173.828 54.8757 174.257C53.9749 174.864 53.0914 175.459 52.1951 176.139C50.7267 177.253 49.5601 178.362 48.8745 179.562C48.4635 180.281 47.5472 180.531 46.8279 180.12Z" fill="#E0CBD2"/>
</svg>
