<svg width="34" height="25" viewBox="0 0 34 25" fill="none" xmlns="http://www.w3.org/2000/svg">
<path fill-rule="evenodd" clip-rule="evenodd" d="M9.69722 20H31C32.1046 20 33 19.1046 33 18V3C33 1.89543 32.1046 1 31 1H3C1.89543 1 1 1.89543 1 3V18C1 19.1046 1.89543 20 3 20H5V23.1315L9.69722 20ZM4 25V21H3C1.34315 21 0 19.6569 0 18V3C0 1.34315 1.34315 0 3 0H31C32.6569 0 34 1.34315 34 3V18C34 19.6569 32.6569 21 31 21H10L4 25Z" fill="#B17C8F"/>
<path d="M5 9H23V10H5V9Z" fill="#B17C8F"/>
<path d="M5 5H29V6H5V5Z" fill="#B17C8F"/>
<path d="M5 13H15V14H5V13Z" fill="#B17C8F"/>
</svg>
