<svg width="156" height="188" viewBox="0 0 156 188" fill="none" xmlns="http://www.w3.org/2000/svg">
<path d="M6.76457 47.8833C24.0193 19.9934 62.4625 5.0151 74.7571 8.62786C74.7571 8.62786 149.35 137.273 150.981 140.652C152.61 144.029 141.91 155.25 125.702 164.608C109.492 173.966 82.9886 179.907 82.9886 179.907C82.9886 179.907 4.92841 50.851 6.76457 47.8833Z" fill="#F4F3F4"/>
<path fill-rule="evenodd" clip-rule="evenodd" d="M74.065 36.6032C74.8878 36.5072 75.6327 37.0964 75.7287 37.9193L76.1864 41.842C76.2825 42.6648 75.6932 43.4097 74.8704 43.5057C74.0475 43.6017 73.3027 43.0125 73.2067 42.1897L72.7489 38.267C72.6529 37.4441 73.2421 36.6992 74.065 36.6032Z" fill="#B5B2B8"/>
<path fill-rule="evenodd" clip-rule="evenodd" d="M55.2802 47.4657C55.7587 46.7894 56.6948 46.6292 57.3711 47.1077L60.6294 49.4134C61.3057 49.892 61.4659 50.8281 60.9874 51.5043C60.5089 52.1806 59.5727 52.3408 58.8965 51.8623L55.6382 49.5566C54.9619 49.078 54.8016 48.1419 55.2802 47.4657Z" fill="#B5B2B8"/>
<path fill-rule="evenodd" clip-rule="evenodd" d="M74.4703 57.9669C74.9448 57.2878 75.8799 57.1219 76.559 57.5964L79.5841 59.7101C80.2632 60.1845 80.4291 61.1197 79.9546 61.7988C79.4801 62.4779 78.545 62.6437 77.8659 62.1693L74.8408 60.0556C74.1617 59.5811 73.9958 58.646 74.4703 57.9669Z" fill="#B5B2B8"/>
<path fill-rule="evenodd" clip-rule="evenodd" d="M53.4063 65.5252C54.224 65.658 54.7793 66.4285 54.6465 67.2462L53.7814 72.5758C53.6486 73.3935 52.8781 73.9488 52.0604 73.8161C51.2427 73.6833 50.6874 72.9128 50.8201 72.0951L51.6853 66.7655C51.818 65.9478 52.5886 65.3925 53.4063 65.5252Z" fill="#B5B2B8"/>
<path fill-rule="evenodd" clip-rule="evenodd" d="M25.5659 62.8462C25.5155 62.0193 26.145 61.3081 26.9719 61.2577L29.4651 61.1058C30.292 61.0554 31.0032 61.6849 31.0535 62.5118C31.1039 63.3387 30.4745 64.0499 29.6476 64.1003L27.1544 64.2522C26.3275 64.3026 25.6163 63.6731 25.5659 62.8462Z" fill="#B5B2B8"/>
<path fill-rule="evenodd" clip-rule="evenodd" d="M43.4299 82.1606C44.1473 81.7464 45.0647 81.9922 45.4789 82.7097L47.5009 86.2119C47.9151 86.9293 47.6693 87.8467 46.9519 88.2609C46.2345 88.6751 45.3171 88.4293 44.9029 87.7119L42.8809 84.2097C42.4666 83.4922 42.7125 82.5749 43.4299 82.1606Z" fill="#B5B2B8"/>
<path fill-rule="evenodd" clip-rule="evenodd" d="M67.608 80.5841C68.4313 80.4919 69.1735 81.0845 69.2658 81.9077L69.7403 86.1417C69.8325 86.965 69.2399 87.7072 68.4167 87.7995C67.5934 87.8917 66.8512 87.2991 66.7589 86.4759L66.2844 82.2419C66.1922 81.4186 66.7848 80.6764 67.608 80.5841Z" fill="#B5B2B8"/>
<path fill-rule="evenodd" clip-rule="evenodd" d="M94.8401 69.2249C95.5575 68.8106 96.4749 69.0565 96.8891 69.7739L99.2591 73.8789C99.6733 74.5963 99.4275 75.5137 98.7101 75.9279C97.9926 76.3421 97.0752 76.0963 96.661 75.3789L94.291 71.2739C93.8768 70.5565 94.1226 69.6391 94.8401 69.2249Z" fill="#B5B2B8"/>
<path fill-rule="evenodd" clip-rule="evenodd" d="M90.543 86.7783C90.7106 85.967 91.5041 85.4452 92.3154 85.6128L96.4176 86.4602C97.2289 86.6278 97.7507 87.4214 97.5831 88.2327C97.4156 89.0439 96.622 89.5658 95.8107 89.3982L91.7085 88.5507C90.8972 88.3831 90.3754 87.5896 90.543 86.7783Z" fill="#B5B2B8"/>
<path fill-rule="evenodd" clip-rule="evenodd" d="M108.27 92.8851C109.099 92.8982 109.759 93.5803 109.746 94.4086L109.658 99.9975C109.645 100.826 108.963 101.487 108.135 101.474C107.306 101.461 106.645 100.778 106.658 99.9501L106.747 94.3613C106.76 93.5329 107.442 92.872 108.27 92.8851Z" fill="#B5B2B8"/>
<path fill-rule="evenodd" clip-rule="evenodd" d="M88.579 109.713C89.4047 109.646 90.1285 110.261 90.1956 111.086L90.5459 115.393C90.6131 116.219 89.9981 116.943 89.1724 117.01C88.3467 117.077 87.6229 116.462 87.5558 115.636L87.2055 111.329C87.1384 110.504 87.7533 109.78 88.579 109.713Z" fill="#B5B2B8"/>
<path fill-rule="evenodd" clip-rule="evenodd" d="M120.448 110.177C121.214 110.494 121.578 111.371 121.262 112.136L119.167 117.209C118.851 117.975 117.974 118.34 117.208 118.023C116.443 117.707 116.078 116.83 116.394 116.064L118.489 110.991C118.805 110.226 119.682 109.861 120.448 110.177Z" fill="#B5B2B8"/>
<path fill-rule="evenodd" clip-rule="evenodd" d="M102.488 126.309C103.206 125.895 104.123 126.14 104.538 126.858L106.909 130.965C107.323 131.682 107.077 132.599 106.359 133.014C105.642 133.428 104.725 133.182 104.31 132.465L101.939 128.358C101.525 127.64 101.771 126.723 102.488 126.309Z" fill="#B5B2B8"/>
<path fill-rule="evenodd" clip-rule="evenodd" d="M121.67 134.653C121.74 133.827 122.465 133.215 123.291 133.285L125.967 133.511C126.792 133.581 127.405 134.307 127.335 135.132C127.265 135.958 126.539 136.57 125.714 136.5L123.038 136.274C122.212 136.204 121.6 135.478 121.67 134.653Z" fill="#B5B2B8"/>
<path fill-rule="evenodd" clip-rule="evenodd" d="M112.895 145.461C113.723 145.434 114.416 146.084 114.443 146.912L114.529 149.599C114.556 150.427 113.906 151.12 113.078 151.147C112.25 151.174 111.557 150.524 111.531 149.696L111.444 147.008C111.418 146.18 112.067 145.487 112.895 145.461Z" fill="#B5B2B8"/>
<path fill-rule="evenodd" clip-rule="evenodd" d="M82.2883 131.614C83.0976 131.437 83.8971 131.95 84.074 132.759L84.5743 135.048C84.7513 135.857 84.2386 136.656 83.4293 136.833C82.62 137.01 81.8205 136.498 81.6436 135.688L81.1432 133.4C80.9663 132.591 81.479 131.791 82.2883 131.614Z" fill="#B5B2B8"/>
<path fill-rule="evenodd" clip-rule="evenodd" d="M67.8153 106.291C68.536 106.7 68.7891 107.615 68.3807 108.336L66.7534 111.207C66.3449 111.928 65.4295 112.181 64.7088 111.772C63.988 111.364 63.7349 110.449 64.1434 109.728L65.7707 106.857C66.1792 106.136 67.0945 105.883 67.8153 106.291Z" fill="#B5B2B8"/>
<path fill-rule="evenodd" clip-rule="evenodd" d="M94.7772 151.84C95.5529 152.131 95.9461 152.995 95.6554 153.771L94.0398 158.082C93.7491 158.858 92.8845 159.251 92.1088 158.961C91.333 158.67 90.9398 157.805 91.2305 157.03L92.8462 152.718C93.1369 151.942 94.0014 151.549 94.7772 151.84Z" fill="#B5B2B8"/>
<path fill-rule="evenodd" clip-rule="evenodd" d="M86.7678 43.2971C87.4852 42.8829 88.4026 43.1287 88.8168 43.8462L89.9323 45.7783C90.3465 46.4957 90.1007 47.4131 89.3833 47.8273C88.6659 48.2415 87.7485 47.9957 87.3343 47.2783L86.2188 45.3462C85.8045 44.6287 86.0503 43.7113 86.7678 43.2971Z" fill="#B5B2B8"/>
<path fill-rule="evenodd" clip-rule="evenodd" d="M72.1782 28.7754C72.3569 27.9665 73.1576 27.4556 73.9665 27.6344L76.7912 28.2588C77.6001 28.4376 78.1109 29.2383 77.9321 30.0472C77.7533 30.8561 76.9526 31.3669 76.1437 31.1881L73.3191 30.5637C72.5102 30.3849 71.9994 29.5843 72.1782 28.7754Z" fill="#B5B2B8"/>
<path fill-rule="evenodd" clip-rule="evenodd" d="M130.602 149.525C131.427 149.453 132.154 150.064 132.226 150.89L132.544 154.567C132.616 155.393 132.004 156.12 131.179 156.191C130.354 156.262 129.627 155.651 129.555 154.826L129.237 151.149C129.165 150.323 129.777 149.596 130.602 149.525Z" fill="#B5B2B8"/>
<path fill-rule="evenodd" clip-rule="evenodd" d="M132.778 122.988C133.495 122.574 134.412 122.82 134.827 123.537L136.779 126.919C137.193 127.636 136.947 128.554 136.23 128.968C135.513 129.382 134.595 129.136 134.181 128.419L132.229 125.037C131.814 124.32 132.06 123.402 132.778 122.988Z" fill="#B5B2B8"/>
<path d="M44.171 34.6792C61.7009 24.5583 74.0411 13.1139 71.7336 9.11725C69.4262 5.12063 53.3449 10.0853 35.815 20.2062C18.2851 30.3271 5.94477 41.7716 8.25222 45.7682C10.5597 49.7649 26.6411 44.8001 44.171 34.6792Z" fill="#B5B2B8"/>
</svg>
