<svg width="227" height="242" viewBox="0 0 227 242" fill="none" xmlns="http://www.w3.org/2000/svg">
<path d="M28.3043 48.7262C26.4713 56.8416 14.2591 70.5515 10.7479 60.4002C6.73507 47.7111 19.777 37.5598 28.3043 28.4237C36.8315 19.2875 52.8827 11.3683 52.8827 15.7346C52.8827 18.7799 32.3167 30.9614 28.3043 48.7262Z" fill="#E0CBD2"/>
<path d="M145.177 8.62859C126.116 6.09086 109.564 6.3561e-05 126.116 0.00012207C151.698 0.00012207 166.092 7.78777 179.286 15.7346C200.353 28.4237 184.804 40.0977 179.286 31.4691C173.768 22.8404 160.754 10.7024 145.177 8.62859Z" fill="#E0CBD2"/>
<path d="M10.5632 172.736C7.79101 168.786 3.90998 164.836 1.13781 169.35C-0.525489 172.736 -3.85209 172.736 21.0974 200.385C46.0469 228.034 85.4116 239.32 104.817 240.448C124.222 241.577 133.093 244.398 155.27 237.627C177.448 230.856 187.982 215.056 198.516 205.464C209.05 195.871 221.802 170.479 225.129 164.272C228.455 158.065 227.347 146.215 221.802 161.45C216.258 176.686 200.734 193.05 196.853 198.692C192.972 204.335 179.111 206.592 168.577 208.285C158.042 209.978 144.736 228.034 140.301 229.727C135.865 231.42 125.331 223.52 118.678 222.956C112.024 222.392 107.035 234.806 92.6193 234.806C78.204 234.806 55.4723 222.956 41.057 213.363C26.6417 203.771 13.3353 176.686 10.5632 172.736Z" fill="#E0CBD2"/>
</svg>
