<svg width="60" height="54" viewBox="0 0 60 54" fill="none" xmlns="http://www.w3.org/2000/svg">
<path d="M60 30.8571C60 40.0733 49.8437 54 49.8437 54C49.8437 54 47.5106 49.8809 43.5 47.3143C39.168 44.542 33.7334 44.009 35 41.1429C37.5 35.4857 40.5 34.4571 40.5 27.2571C40.5 21.0006 38 13.8857 30 13.3714C22 12.8571 17 19.0286 17 25.2C17 32.5251 18 37.0286 22.5 41.1429C26.8031 45.0771 13 43.7143 8.5757 52.4571C3.27095 46.8913 0 39.2671 0 30.8571C0 13.8152 9.5 0 30 0C34.074 0 38.5 1.49814 42.5 2.57143C54 5.65714 60 18.0056 60 30.8571Z" fill="#B5B2B8"/>
</svg>
