<svg width="30" height="29" viewBox="0 0 30 29" fill="none" xmlns="http://www.w3.org/2000/svg">
<mask id="path-1-inside-1" fill="white">
<path fill-rule="evenodd" clip-rule="evenodd" d="M10.0501 23.3343L10.05 23.3343L14.9998 28.284L14.9998 28.284L15 28.2842L19.9498 23.3345L19.9495 23.3343L29.1419 14.1419L24.1922 9.19216L14.9998 18.3845L5.80764 9.19236L0.857889 14.1421L10.0501 23.3343Z"/>
</mask>
<path d="M10.05 23.3343L9.34292 22.6272L8.63581 23.3343L9.34292 24.0414L10.05 23.3343ZM10.0501 23.3343L10.7572 24.0414L11.4643 23.3343L10.7572 22.6272L10.0501 23.3343ZM14.9998 28.284L14.2927 28.9911L14.9998 29.6983L15.7069 28.9911L14.9998 28.284ZM14.9998 28.284L15.7069 27.5769L14.9998 26.8698L14.2927 27.5769L14.9998 28.284ZM15 28.2842L14.2929 28.9914L15 29.6985L15.7071 28.9914L15 28.2842ZM19.9498 23.3345L20.6569 24.0416L21.364 23.3345L20.6569 22.6274L19.9498 23.3345ZM19.9495 23.3343L19.2424 22.6272L18.5353 23.3343L19.2424 24.0414L19.9495 23.3343ZM29.1419 14.1419L29.849 14.849L30.5561 14.1419L29.849 13.4348L29.1419 14.1419ZM24.1922 9.19216L24.8993 8.48505L24.1922 7.77794L23.4851 8.48505L24.1922 9.19216ZM14.9998 18.3845L14.2927 19.0916L14.9998 19.7987L15.7069 19.0916L14.9998 18.3845ZM5.80764 9.19236L6.51474 8.48526L5.80764 7.77815L5.10053 8.48526L5.80764 9.19236ZM0.857889 14.1421L0.150782 13.435L-0.556325 14.1421L0.150782 14.8492L0.857889 14.1421ZM10.7571 24.0414L10.7572 24.0414L9.34294 22.6272L9.34292 22.6272L10.7571 24.0414ZM15.7069 27.5769L10.7571 22.6272L9.34292 24.0414L14.2927 28.9911L15.7069 27.5769ZM14.2927 27.5769L14.2927 27.5769L15.7069 28.9911L15.7069 28.9911L14.2927 27.5769ZM15.7071 27.5771L15.7069 27.5769L14.2927 28.9911L14.2929 28.9914L15.7071 27.5771ZM19.2427 22.6274L14.2929 27.5771L15.7071 28.9914L20.6569 24.0416L19.2427 22.6274ZM19.2424 24.0414L19.2427 24.0416L20.6569 22.6274L20.6567 22.6272L19.2424 24.0414ZM28.4348 13.4348L19.2424 22.6272L20.6567 24.0414L29.849 14.849L28.4348 13.4348ZM23.4851 9.89926L28.4348 14.849L29.849 13.4348L24.8993 8.48505L23.4851 9.89926ZM15.7069 19.0916L24.8993 9.89926L23.4851 8.48505L14.2927 17.6774L15.7069 19.0916ZM5.10053 9.89947L14.2927 19.0916L15.7069 17.6774L6.51474 8.48526L5.10053 9.89947ZM1.565 14.8492L6.51474 9.89947L5.10053 8.48526L0.150782 13.435L1.565 14.8492ZM10.7572 22.6272L1.565 13.435L0.150782 14.8492L9.34294 24.0414L10.7572 22.6272Z" fill="#726C78" mask="url(#path-1-inside-1)"/>
</svg>
