<svg width="34" height="25" viewBox="0 0 34 25" fill="none" xmlns="http://www.w3.org/2000/svg">
<mask id="path-1-inside-1" fill="white">
<path fill-rule="evenodd" clip-rule="evenodd" d="M9.69722 20H31C32.1046 20 33 19.1046 33 18V3C33 1.89543 32.1046 1 31 1H3C1.89543 1 1 1.89543 1 3V18C1 19.1046 1.89543 20 3 20H5V23.1315L9.69722 20ZM4 25V21H3C1.34315 21 0 19.6569 0 18V3C0 1.34315 1.34315 0 3 0H31C32.6569 0 34 1.34315 34 3V18C34 19.6569 32.6569 21 31 21H10L4 25Z"/>
</mask>
<path fill-rule="evenodd" clip-rule="evenodd" d="M9.69722 20H31C32.1046 20 33 19.1046 33 18V3C33 1.89543 32.1046 1 31 1H3C1.89543 1 1 1.89543 1 3V18C1 19.1046 1.89543 20 3 20H5V23.1315L9.69722 20ZM4 25V21H3C1.34315 21 0 19.6569 0 18V3C0 1.34315 1.34315 0 3 0H31C32.6569 0 34 1.34315 34 3V18C34 19.6569 32.6569 21 31 21H10L4 25Z" fill="#B17C8F"/>
<path d="M9.69722 20V19H9.39445L9.14252 19.1679L9.69722 20ZM5 20H6V19H5V20ZM5 23.1315H4V25L5.5547 23.9635L5 23.1315ZM4 25H3V26.8685L4.5547 25.8321L4 25ZM4 21H5V20H4V21ZM10 21V20H9.69722L9.4453 20.1679L10 21ZM32 18C32 18.5523 31.5523 19 31 19V21C32.6569 21 34 19.6569 34 18H32ZM32 3V18H34V3H32ZM31 2C31.5523 2 32 2.44772 32 3H34C34 1.34315 32.6569 0 31 0V2ZM3 2H31V0H3V2ZM2 3C2 2.44772 2.44772 2 3 2V0C1.34315 0 0 1.34315 0 3H2ZM2 18V3H0V18H2ZM3 19C2.44772 19 2 18.5523 2 18H0C0 19.6569 1.34315 21 3 21V19ZM4 20H3V22H4V20ZM3 20C1.89543 20 1 19.1046 1 18H-1C-1 20.2091 0.790861 22 3 22V20ZM1 18V3H-1V18H1ZM1 3C1 1.89543 1.89543 1 3 1V-1C0.790861 -1 -1 0.790861 -1 3H1ZM3 1H31V-1H3V1ZM31 1C32.1046 1 33 1.89543 33 3H35C35 0.790861 33.2091 -1 31 -1V1ZM33 3V18H35V3H33ZM33 18C33 19.1046 32.1046 20 31 20V22C33.2091 22 35 20.2091 35 18H33ZM31 20H10V22H31V20ZM31 19H9.69722V21H31V19ZM5 19H3V21H5V19ZM6 23.1315V20H4V23.1315H6ZM9.14252 19.1679L4.4453 22.2994L5.5547 23.9635L10.2519 20.8321L9.14252 19.1679ZM9.4453 20.1679L3.4453 24.1679L4.5547 25.8321L10.5547 21.8321L9.4453 20.1679ZM5 25V21H3V25H5Z" fill="#B17C8F" mask="url(#path-1-inside-1)"/>
<path d="M5 9H23V10H5V9Z" fill="#B17C8F"/>
<path d="M5 13H15V14H5V13Z" fill="#B17C8F"/>
</svg>
