<svg width="329" height="369" viewBox="0 0 329 369" fill="none" xmlns="http://www.w3.org/2000/svg">
<path d="M119.551 191.271C146.248 192.544 172.827 213.582 175.465 223.552C175.465 223.552 117.02 325.239 115.347 327.68C113.674 330.119 101.357 326.987 88.0268 319.291C74.6978 311.596 59.4334 295.398 59.4334 295.398C59.4334 295.398 116.711 191.135 119.551 191.271Z" fill="#F9F3F4"/>
<path d="M190.089 94.2683C189.292 99.0152 203.529 112.973 203.529 112.973C203.529 112.973 183.323 107.346 179.789 114.139L179.759 114.119L175.68 121.96C172.919 128.212 183.902 139.4 183.902 139.4C183.902 139.4 167.651 137.395 164.118 144.186L160.272 151.577C159.477 156.323 170.551 168.411 170.551 168.411C170.551 168.411 154.397 163.218 149.471 172.336L146.547 177.957C145.751 182.703 155.534 194.42 155.534 194.42C155.534 194.42 140.183 192.419 135.924 198.374L134.232 201.625C134.232 201.627 134.232 201.627 134.232 201.627C132.698 206.385 148.194 214.042 152.399 209.671C157.398 204.472 170.908 207.942 170.908 207.942L173.013 204.804C177.126 198.347 168.51 186.719 168.51 186.719C168.51 186.719 182.143 190.461 187.056 183.861L190.056 179.387C194.162 172.929 181.939 157.848 181.939 157.848C181.939 157.848 200.382 161.512 204.093 158.449L208.006 152.614C212.122 146.157 200.206 131.914 200.206 131.914C200.206 131.914 217.561 137.463 221.762 132.101L221.761 132.101L225.786 126.099C229.902 119.642 219.759 105.615 219.759 105.615C219.759 105.615 235.645 108.92 239.359 105.857L240.625 103.969L196.075 82.761L190.089 94.2683Z" fill="#F4F3F4"/>
<path d="M158.662 9.05408C144.97 14.4315 129.205 37.4658 134.542 50.832C134.542 50.832 176.796 82.6857 212.345 103.21C247.894 123.734 297.719 142.471 297.719 142.471C309.705 132.679 320.744 118.914 320.726 102.621C320.726 102.621 278.487 71.2952 242.7 50.6338C206.913 29.9722 158.662 9.05408 158.662 9.05408Z" fill="#E0CBD2"/>
<path fill-rule="evenodd" clip-rule="evenodd" d="M172.337 224.72C172.403 225.546 171.787 226.269 170.961 226.335C166.713 226.673 161.663 225.707 156.478 223.98C151.27 222.245 145.817 219.706 140.722 216.793C135.628 213.881 130.859 210.576 127.026 207.293C123.229 204.041 120.22 200.701 118.813 197.692C118.462 196.942 118.785 196.049 119.536 195.698C120.286 195.347 121.179 195.671 121.53 196.421C122.661 198.84 125.274 201.843 128.977 205.015C132.645 208.156 137.254 211.355 142.211 214.189C147.169 217.023 152.441 219.473 157.426 221.134C162.434 222.802 167.046 223.637 170.723 223.344C171.548 223.278 172.271 223.894 172.337 224.72Z" fill="#E0CBD2"/>
<path fill-rule="evenodd" clip-rule="evenodd" d="M317.155 103.323C317.66 103.979 317.538 104.921 316.882 105.427C312.914 108.485 308.424 113.51 304.833 119.33C301.236 125.158 298.628 131.641 298.255 137.603C298.203 138.429 297.491 139.058 296.664 139.006C295.838 138.954 295.209 138.242 295.261 137.415C295.676 130.785 298.537 123.82 302.28 117.755C306.027 111.681 310.748 106.367 315.051 103.051C315.707 102.545 316.649 102.667 317.155 103.323Z" fill="#F9F3F4"/>
<path fill-rule="evenodd" clip-rule="evenodd" d="M156.118 234.099C156.374 234.887 155.943 235.734 155.155 235.99L151.497 237.179C150.71 237.435 149.863 237.004 149.607 236.217C149.351 235.429 149.782 234.583 150.57 234.326L154.228 233.137C155.015 232.881 155.862 233.312 156.118 234.099Z" fill="#E0CBD2"/>
<path fill-rule="evenodd" clip-rule="evenodd" d="M140.222 224.648C141.048 224.711 141.666 225.431 141.603 226.257L141.362 229.419C141.299 230.245 140.578 230.864 139.752 230.801C138.926 230.738 138.308 230.017 138.371 229.191L138.612 226.029C138.675 225.203 139.396 224.585 140.222 224.648Z" fill="#E0CBD2"/>
<path fill-rule="evenodd" clip-rule="evenodd" d="M140.947 242.086C141.773 242.144 142.396 242.861 142.338 243.687L141.928 249.545C141.87 250.371 141.153 250.994 140.326 250.936C139.5 250.878 138.877 250.161 138.935 249.335L139.346 243.478C139.404 242.651 140.121 242.028 140.947 242.086Z" fill="#E0CBD2"/>
<path fill-rule="evenodd" clip-rule="evenodd" d="M127.091 230.516C127.369 231.297 126.962 232.155 126.182 232.433L122.103 233.886C121.322 234.164 120.464 233.757 120.186 232.976C119.908 232.196 120.315 231.338 121.096 231.06L125.175 229.607C125.955 229.329 126.813 229.736 127.091 230.516Z" fill="#E0CBD2"/>
<path fill-rule="evenodd" clip-rule="evenodd" d="M116.846 209.933C117.529 209.465 118.463 209.639 118.931 210.323L121.235 213.685C121.703 214.368 121.528 215.302 120.845 215.77C120.162 216.238 119.228 216.064 118.76 215.38L116.456 212.018C115.988 211.335 116.162 210.401 116.846 209.933Z" fill="#E0CBD2"/>
<path fill-rule="evenodd" clip-rule="evenodd" d="M111.182 229.803C111.899 230.218 112.145 231.135 111.731 231.853L108.541 237.377C108.127 238.094 107.21 238.34 106.492 237.926C105.775 237.512 105.529 236.594 105.943 235.877L109.133 230.353C109.547 229.635 110.464 229.389 111.182 229.803Z" fill="#E0CBD2"/>
<path fill-rule="evenodd" clip-rule="evenodd" d="M125.273 244.191C125.754 244.865 125.597 245.802 124.923 246.283L119.414 250.213C118.739 250.694 117.802 250.538 117.321 249.863C116.84 249.189 116.997 248.252 117.671 247.771L123.18 243.841C123.855 243.36 124.792 243.517 125.273 244.191Z" fill="#E0CBD2"/>
<path fill-rule="evenodd" clip-rule="evenodd" d="M141.776 260.674C142.493 261.088 142.739 262.005 142.325 262.723L140.455 265.961C140.041 266.678 139.124 266.924 138.406 266.51C137.689 266.096 137.443 265.178 137.857 264.461L139.727 261.223C140.141 260.505 141.058 260.259 141.776 260.674Z" fill="#E0CBD2"/>
<path fill-rule="evenodd" clip-rule="evenodd" d="M127.474 264.454C128.255 264.177 129.112 264.586 129.389 265.367L130.519 268.556C130.795 269.337 130.386 270.194 129.605 270.471C128.825 270.748 127.967 270.339 127.691 269.558L126.561 266.369C126.284 265.588 126.693 264.731 127.474 264.454Z" fill="#E0CBD2"/>
<path fill-rule="evenodd" clip-rule="evenodd" d="M132.343 278.6C132.733 279.332 132.456 280.24 131.724 280.629L126.461 283.432C125.73 283.821 124.821 283.544 124.432 282.813C124.043 282.082 124.32 281.173 125.051 280.784L130.314 277.981C131.046 277.592 131.954 277.869 132.343 278.6Z" fill="#E0CBD2"/>
<path fill-rule="evenodd" clip-rule="evenodd" d="M111.002 272.038C111.462 272.727 111.275 273.658 110.586 274.118L107.728 276.024C107.039 276.484 106.108 276.298 105.648 275.609C105.188 274.92 105.374 273.988 106.064 273.529L108.922 271.622C109.611 271.162 110.542 271.349 111.002 272.038Z" fill="#E0CBD2"/>
<path fill-rule="evenodd" clip-rule="evenodd" d="M127.023 294.256C127.115 295.079 126.523 295.821 125.7 295.914L118.336 296.741C117.513 296.833 116.77 296.241 116.678 295.417C116.585 294.594 117.178 293.852 118.001 293.759L125.365 292.933C126.188 292.84 126.931 293.433 127.023 294.256Z" fill="#E0CBD2"/>
<path fill-rule="evenodd" clip-rule="evenodd" d="M105.164 288.04C105.882 288.454 106.128 289.372 105.713 290.089L103.843 293.328C103.429 294.045 102.512 294.291 101.794 293.877C101.077 293.463 100.831 292.545 101.245 291.828L103.115 288.589C103.529 287.872 104.447 287.626 105.164 288.04Z" fill="#E0CBD2"/>
<path fill-rule="evenodd" clip-rule="evenodd" d="M107.105 304.664C107.848 304.297 108.748 304.602 109.115 305.344L111.045 309.251C111.412 309.993 111.107 310.893 110.365 311.26C109.622 311.627 108.722 311.322 108.355 310.58L106.425 306.673C106.058 305.931 106.363 305.031 107.105 304.664Z" fill="#E0CBD2"/>
<path fill-rule="evenodd" clip-rule="evenodd" d="M98.1133 301.713C98.5377 302.425 98.3049 303.346 97.5934 303.77L93.9143 305.964C93.2028 306.389 92.2821 306.156 91.8577 305.445C91.4333 304.733 91.6661 303.812 92.3776 303.388L96.0567 301.193C96.7681 300.769 97.6889 301.002 98.1133 301.713Z" fill="#E0CBD2"/>
<path fill-rule="evenodd" clip-rule="evenodd" d="M94.4466 274.833C94.9969 275.452 94.9409 276.4 94.3216 276.95L91.5497 279.414C90.9304 279.964 89.9823 279.908 89.4321 279.289C88.8818 278.669 88.9377 277.721 89.557 277.171L92.329 274.708C92.9482 274.158 93.8963 274.214 94.4466 274.833Z" fill="#E0CBD2"/>
<path fill-rule="evenodd" clip-rule="evenodd" d="M104.701 256.404C104.692 257.232 104.014 257.897 103.186 257.889L100.499 257.862C99.6708 257.854 99.0059 257.175 99.0142 256.347C99.0225 255.518 99.7007 254.854 100.529 254.862L103.216 254.889C104.044 254.897 104.709 255.575 104.701 256.404Z" fill="#E0CBD2"/>
<path fill-rule="evenodd" clip-rule="evenodd" d="M84.2433 292.747C84.3629 293.567 83.7952 294.328 82.9755 294.448L79.2888 294.986C78.469 295.105 77.7076 294.538 77.588 293.718C77.4684 292.898 78.0361 292.137 78.8558 292.017L82.5425 291.479C83.3623 291.36 84.1238 291.927 84.2433 292.747Z" fill="#E0CBD2"/>
<path fill-rule="evenodd" clip-rule="evenodd" d="M157.356 243.512C158.073 243.927 158.319 244.844 157.905 245.561L156.145 248.61C155.731 249.327 154.813 249.573 154.096 249.159C153.378 248.745 153.132 247.827 153.547 247.11L155.307 244.061C155.721 243.344 156.638 243.098 157.356 243.512Z" fill="#E0CBD2"/>
<path fill-rule="evenodd" clip-rule="evenodd" d="M159.827 229.466C160.495 228.976 161.434 229.12 161.924 229.788L164.193 232.877C164.683 233.544 164.539 234.483 163.871 234.973C163.204 235.464 162.265 235.32 161.775 234.652L159.506 231.563C159.016 230.896 159.16 229.957 159.827 229.466Z" fill="#E0CBD2"/>
<path fill-rule="evenodd" clip-rule="evenodd" d="M100.861 316.716C101.325 317.403 101.144 318.336 100.457 318.799L98.0246 320.44C97.3379 320.903 96.4056 320.722 95.9422 320.035C95.4789 319.348 95.6601 318.416 96.3468 317.953L98.779 316.312C99.4657 315.849 100.398 316.03 100.861 316.716Z" fill="#E0CBD2"/>
<path fill-rule="evenodd" clip-rule="evenodd" d="M120.188 307.889C120.905 308.303 121.151 309.221 120.737 309.938L119.197 312.606C118.783 313.323 117.865 313.569 117.148 313.155C116.43 312.74 116.184 311.823 116.599 311.106L118.139 308.438C118.553 307.721 119.47 307.475 120.188 307.889Z" fill="#E0CBD2"/>
<path fill-rule="evenodd" clip-rule="evenodd" d="M211.44 123.584C211.591 124.398 211.053 125.181 210.239 125.332C208.749 125.608 206.738 125.548 204.611 125.324C202.449 125.095 200.035 124.681 197.676 124.178C193.013 123.184 188.349 121.798 186.216 120.718C185.477 120.343 185.181 119.441 185.556 118.702C185.93 117.963 186.833 117.667 187.572 118.042C189.334 118.934 193.67 120.257 198.301 121.244C200.59 121.732 202.896 122.126 204.926 122.34C206.992 122.558 208.646 122.576 209.691 122.382C210.506 122.231 211.289 122.769 211.44 123.584Z" fill="white"/>
<path fill-rule="evenodd" clip-rule="evenodd" d="M200.867 151.82C200.974 152.641 200.395 153.394 199.573 153.501C194.639 154.145 187.664 153.231 181.619 151.996C178.568 151.373 175.701 150.656 173.372 149.985C171.079 149.325 169.211 148.681 168.219 148.188C167.477 147.819 167.175 146.919 167.543 146.177C167.912 145.435 168.812 145.133 169.554 145.501C170.28 145.862 171.915 146.444 174.202 147.103C176.454 147.751 179.244 148.449 182.219 149.057C188.226 150.284 194.78 151.101 199.185 150.526C200.007 150.419 200.76 150.998 200.867 151.82Z" fill="white"/>
<path fill-rule="evenodd" clip-rule="evenodd" d="M173.617 179.627C173.799 180.435 173.292 181.238 172.484 181.42C171.216 181.706 169.68 181.688 168.126 181.524C166.549 181.358 164.844 181.03 163.191 180.625C159.903 179.821 156.676 178.68 154.897 177.802C154.154 177.435 153.849 176.535 154.216 175.793C154.583 175.05 155.482 174.745 156.225 175.112C157.749 175.864 160.753 176.94 163.904 177.711C165.47 178.094 167.036 178.393 168.44 178.541C169.869 178.691 171.027 178.674 171.824 178.494C172.632 178.312 173.435 178.819 173.617 179.627Z" fill="white"/>
</svg>
