<svg width="90" height="90" viewBox="0 0 90 90" fill="none" xmlns="http://www.w3.org/2000/svg">
<path d="M89.7288 42.7683C87.2151 18.9335 79.3298 8.69955 60.5752 2.16725C44.579 -3.4043 24.2978 2.67143 15.5 10.1579C11.3555 13.6846 -2.74441e-05 25.6123 0 44.5919C3.21635e-05 66.8352 18.7376 90 45.6769 90C74.7257 90 92.432 68.4008 89.7288 42.7683Z" fill="#B17C8F"/>
<path d="M27.5884 51.428V42.572C27.5884 40.232 28.1644 39.548 30.0724 39.44C30.1804 39.008 30.2524 38.504 30.2524 37.892C29.1004 37.964 27.4804 38 25.9684 38C24.8164 38 22.8364 37.964 21.6844 37.892C21.6844 38.432 21.7564 39.008 21.8644 39.44C23.8444 39.548 24.3484 40.232 24.3484 42.572V51.428C24.3484 53.804 23.6644 54.488 21.8644 54.56C21.7204 55.064 21.6844 55.604 21.6844 56.108C22.9804 56.036 24.6724 56 25.9684 56C26.8684 56 28.8484 56.036 30.2524 56.108C30.2524 55.604 30.2164 55.064 30.0724 54.56C28.1644 54.488 27.5884 53.804 27.5884 51.428ZM44.2814 43.256C46.3694 42.104 48.4574 40.628 48.4574 37.856C48.4574 34.904 45.9374 33.068 41.9054 33.068C38.0894 33.068 35.7134 35.084 35.7134 38.288C35.7134 40.484 37.0814 42.068 39.8174 43.904C36.5774 45.812 34.7414 47.684 34.7414 50.924C34.7414 54.236 37.4774 56.324 41.8694 56.324C46.5134 56.324 49.4294 54.02 49.4294 50.384C49.4294 47.396 47.5214 45.416 44.2814 43.256ZM39.0974 37.568C39.1334 35.804 40.2854 34.688 42.0854 34.688C43.9934 34.688 45.2174 36.092 45.2174 38.324C45.2174 40.232 44.6054 41.348 42.9494 42.392C42.8054 42.284 42.6254 42.212 42.4814 42.104C39.9614 40.556 39.0614 39.44 39.0974 37.568ZM42.3374 54.704C39.6734 54.704 37.9814 53.12 37.9814 50.636C37.9814 47.864 38.7374 46.532 41.1134 44.768C44.3174 46.928 46.0094 48.62 46.0094 51.104C46.0094 53.3 44.6054 54.704 42.3374 54.704ZM69.2587 45.812H61.9507V37.892C61.2307 37.892 60.6907 37.928 60.1867 38.252C60.2227 41.708 60.2227 43.436 60.2227 45.812H53.3107C53.0947 46.136 52.9867 47.144 52.9867 47.648C55.2187 47.612 57.9187 47.576 60.2227 47.576C60.2227 50.204 60.1867 53.444 60.1507 55.892C60.6907 55.892 61.6267 55.748 61.9507 55.532V47.576C64.1467 47.576 65.6947 47.576 68.8987 47.612C69.2227 47.108 69.2587 46.532 69.2587 45.812Z" fill="white"/>
</svg>
