<svg width="24" height="20" viewBox="0 0 24 20" fill="none" xmlns="http://www.w3.org/2000/svg">
<path d="M7.29808 14.7519C5.64757 14.7213 4.21442 13.7848 3.48087 12.4188C3.52644 12.42 3.57219 12.4206 3.61811 12.4206C4.11143 12.4206 4.59089 12.3553 5.04619 12.2317L5.01416 11.259C3.22787 10.8983 1.83097 9.46395 1.5272 7.65988C2.04676 7.84609 2.60327 7.95568 3.18201 7.97369L4.92558 8.02794L3.47549 7.05829C2.28719 6.26369 1.50567 4.91032 1.50567 3.37584C1.50567 2.8229 1.60711 2.29433 1.79146 1.80752C4.29099 4.55719 7.83114 6.34447 11.7938 6.54365L12.4581 6.57705L12.3055 5.92959C12.2303 5.61047 12.192 5.27195 12.192 4.92319C12.192 2.48076 14.1736 0.5 16.6164 0.5C17.8903 0.5 19.0387 1.03569 19.846 1.89534L20.0353 2.0969L20.3066 2.04374C20.9651 1.91472 21.6022 1.72294 22.2105 1.47517C21.8617 1.94852 21.4206 2.35043 20.9141 2.65466L21.2313 3.5797C21.6733 3.52648 22.1062 3.44624 22.529 3.34024C22.1369 3.74792 21.709 4.12032 21.2503 4.45155L21.0319 4.60926L21.0434 4.8784C21.0522 5.08217 21.0555 5.28507 21.0555 5.49345C21.0555 11.7856 16.2702 19.0019 7.54707 19.0019C5.58296 19.0019 3.71811 18.5801 2.03465 17.8242C4.12365 17.6534 6.04033 16.8662 7.59732 15.6453L8.70337 14.778L7.29808 14.7519Z" stroke="#B17C8F"/>
</svg>
