<svg width="30" height="18" viewBox="0 0 30 18" fill="none" xmlns="http://www.w3.org/2000/svg">
<path d="M14.6783 16.5429H14.6632L14.6494 16.5438L14.6491 16.5438L14.649 16.5438L14.6486 16.5438L14.6482 16.5438L14.6444 16.544L14.6186 16.5449C14.5941 16.5456 14.5556 16.5463 14.5039 16.5461C14.4005 16.5456 14.2449 16.5412 14.0457 16.5251C13.6469 16.493 13.0749 16.4141 12.3971 16.2268C11.0434 15.8526 9.2667 15.0457 7.59714 13.3069L7.59706 13.3069C5.74701 11.381 3.98445 8.48003 2.67473 6.03037C2.02285 4.8111 1.4886 3.71411 1.11745 2.92216C0.931931 2.52631 0.787318 2.20701 0.68929 1.98716C0.640279 1.87724 0.602925 1.7922 0.577937 1.73491L0.549821 1.67015L0.54718 1.66401C0.544399 1.65566 0.540076 1.64211 0.535123 1.62466C0.524641 1.58773 0.512999 1.53912 0.506039 1.48856C0.50045 1.44796 0.499233 1.41562 0.500399 1.39245C0.50927 1.38742 0.521149 1.38131 0.536666 1.37447C0.587777 1.35195 0.653965 1.33226 0.727955 1.31683C0.800273 1.30175 0.868893 1.29302 0.919888 1.28816C0.944973 1.28576 0.964767 1.28441 0.97736 1.28368L0.988181 1.28312L5.21591 1.25623C5.21748 1.25658 5.2191 1.25694 5.22077 1.25732C5.25228 1.26447 5.2981 1.27601 5.35105 1.29275C5.46341 1.32826 5.57873 1.37811 5.6613 1.43865C5.70435 1.47022 5.75661 1.53271 5.80475 1.61208C5.82647 1.64788 5.84308 1.68002 5.85383 1.70228C5.85913 1.71325 5.86278 1.72136 5.86472 1.72576L5.86571 1.72804L5.86605 1.7289L5.87248 1.74498L5.89697 1.8056C5.91835 1.85818 5.94971 1.93451 5.99013 2.03084C6.07093 2.22343 6.18808 2.49629 6.33424 2.81925C6.62585 3.46361 7.03602 4.31431 7.50594 5.12662L7.50606 5.12682C8.40353 6.67648 9.08662 7.66836 9.64343 8.23218C9.92179 8.51404 10.2037 8.72581 10.5009 8.82693C10.8244 8.93697 11.1358 8.90509 11.4111 8.7548L11.4113 8.75473C11.6471 8.62594 11.7986 8.41208 11.8985 8.21542C12.0013 8.01307 12.075 7.77848 12.1298 7.54048C12.2398 7.06373 12.2915 6.49671 12.3143 5.96851C12.3373 5.43584 12.3317 4.92147 12.3205 4.54182C12.3149 4.35152 12.3078 4.19397 12.3022 4.08355C12.2993 4.02831 12.2968 3.9848 12.295 3.95481L12.2932 3.92577L12.2932 3.9248C12.2932 3.9124 12.2931 3.8949 12.2929 3.87286C12.2923 3.82881 12.291 3.7664 12.2878 3.69001C12.2816 3.53782 12.2681 3.3272 12.2389 3.09407C12.1842 2.65797 12.0627 2.03119 11.7481 1.60382C11.4951 1.25945 11.1456 1.05547 10.8453 0.933811C10.8226 0.924612 10.7999 0.915803 10.7774 0.907368C10.8177 0.880821 10.8596 0.856427 10.9022 0.835406C11.2012 0.689159 11.6573 0.594884 12.2794 0.545717C12.8926 0.497254 13.6145 0.495678 14.4186 0.503637C15.6402 0.516924 15.9636 0.591712 16.412 0.699908C16.6992 0.769282 16.8228 0.869379 16.8947 0.972748C16.9791 1.09413 17.0454 1.29581 17.0728 1.66537C17.0999 2.03274 17.0853 2.49606 17.0611 3.10275C17.0592 3.15074 17.0572 3.1995 17.0552 3.24903C17.0324 3.816 17.0055 4.48377 17.0055 5.25464C17.0055 5.39841 17.001 5.56457 16.9962 5.74285C16.9853 6.14923 16.9727 6.61862 17.0074 7.02951C17.0565 7.61056 17.2114 8.33094 17.8079 8.71651L17.8081 8.71661C18.0127 8.84878 18.2701 8.89576 18.5537 8.82054C18.8143 8.75139 19.0777 8.58504 19.3536 8.33585C19.9051 7.83778 20.6395 6.88537 21.6498 5.16975L21.6499 5.16974C22.1399 4.33754 22.5656 3.43855 22.8673 2.75242C23.0186 2.40828 23.1398 2.11534 23.2233 1.90795C23.265 1.80421 23.2974 1.72177 23.3195 1.66489L23.3448 1.59926L23.3453 1.59807C23.3476 1.59352 23.3506 1.58779 23.3542 1.58107C23.3667 1.55796 23.3854 1.52548 23.409 1.49035C23.4637 1.40912 23.5134 1.36078 23.54 1.34499L23.5424 1.34357C23.5682 1.32808 23.6224 1.3118 23.6995 1.30713C23.7333 1.30507 23.7628 1.30579 23.7827 1.30694C23.7924 1.3075 23.7991 1.30813 23.8022 1.30841C23.8025 1.30844 23.8026 1.30848 23.8028 1.3085L23.8348 1.31295L23.8709 1.31272L28.381 1.28431L28.4093 1.28413L28.4365 1.28087L28.4367 1.28085L28.437 1.28082L28.4371 1.2808L28.4373 1.28077L28.4375 1.28076L28.445 1.27996C28.4523 1.2792 28.464 1.27803 28.4797 1.27668C28.5112 1.27396 28.5578 1.27051 28.615 1.26803C28.731 1.263 28.8824 1.26231 29.0348 1.27725C29.1922 1.29269 29.3219 1.32222 29.4099 1.36173C29.4579 1.3833 29.4771 1.39991 29.4834 1.40679C29.4939 1.4402 29.5092 1.54349 29.4565 1.76069C29.4035 1.97886 29.2933 2.26532 29.1099 2.6276C28.7435 3.3514 28.1183 4.31302 27.2031 5.53163L27.2029 5.53193C26.8316 6.02702 26.4898 6.46981 26.1893 6.85895C25.8955 7.23953 25.6412 7.56879 25.4379 7.84544C25.0265 8.4053 24.7122 8.89035 24.6128 9.36113C24.4983 9.90315 24.6766 10.3476 25.0056 10.7738C25.296 11.1499 25.7513 11.5722 26.3188 12.0986C26.3502 12.1277 26.3819 12.1571 26.4139 12.1868C27.5972 13.2855 28.3017 14.093 28.7163 14.6333C29.0596 15.0807 29.2018 15.3398 29.2705 15.4651C29.2843 15.4901 29.2951 15.5098 29.304 15.5246L29.3043 15.5252C29.5153 15.8748 29.509 16.056 29.4926 16.1263C29.4773 16.1925 29.4284 16.2662 29.2981 16.3438C29.1653 16.423 28.9946 16.4763 28.8398 16.5087C28.7656 16.5242 28.7018 16.5336 28.6577 16.539C28.6358 16.5416 28.6191 16.5433 28.6089 16.5442L28.6073 16.5443L24.6176 16.5998L24.5722 16.6004L24.5339 16.608L24.5249 16.6092C24.512 16.6108 24.4877 16.6132 24.4529 16.6146C24.3834 16.6173 24.2723 16.6155 24.1279 16.5934C23.8414 16.5496 23.4143 16.4241 22.9126 16.0799C22.5853 15.8547 22.2466 15.5276 21.8934 15.1451C21.6847 14.919 21.4916 14.6972 21.2966 14.4733C21.1504 14.3054 21.0031 14.1363 20.8474 13.9633C20.5071 13.585 20.1477 13.2133 19.7861 12.96C19.4329 12.7126 18.9679 12.5022 18.4671 12.6607L18.4666 12.6608C18.0223 12.802 17.7304 13.1363 17.5416 13.4745C17.3526 13.8129 17.2392 14.2028 17.1686 14.551C17.0971 14.9035 17.0644 15.2397 17.0492 15.4853C17.0416 15.6089 17.0383 15.7115 17.037 15.7841C17.0363 15.8204 17.0361 15.8493 17.0361 15.8698L17.0361 15.8939L17.0362 15.901L17.0362 15.9032L17.0362 15.9035L17.0362 15.9038L17.0362 15.9039L17.0362 15.904L17.0361 15.9116C17.036 15.9198 17.0356 15.9339 17.0345 15.9523C17.0322 15.9899 17.0273 16.0421 17.0169 16.0993C16.9928 16.231 16.9535 16.3124 16.9248 16.343L16.923 16.3449C16.8739 16.3979 16.7701 16.4549 16.6295 16.4979C16.5666 16.5172 16.5093 16.5298 16.4683 16.5374C16.4555 16.5397 16.4447 16.5416 16.436 16.5429H14.6783ZM5.86627 1.72935C5.86629 1.72938 5.86628 1.72937 5.86627 1.72933L5.86627 1.72935ZM29.486 1.41024C29.4859 1.41027 29.4852 1.40948 29.4843 1.4078C29.4857 1.40938 29.4861 1.41022 29.486 1.41024ZM17.5358 15.8975L17.0362 15.9046L17.0362 15.9043C17.0362 15.9045 17.0362 15.9046 17.5358 15.8975Z" stroke="#B17C8F"/>
</svg>
