<svg width="32" height="11" viewBox="0 0 32 11" fill="none" xmlns="http://www.w3.org/2000/svg">
<path d="M13.5 7C13.5 7.84771 12.8942 8.71289 11.7017 9.39431C10.5233 10.0676 8.8621 10.5 7 10.5C5.1379 10.5 3.47666 10.0676 2.29832 9.39431C1.10584 8.71289 0.5 7.84771 0.5 7C0.5 6.15229 1.10584 5.28711 2.29832 4.60569C3.47666 3.93236 5.1379 3.5 7 3.5C8.8621 3.5 10.5233 3.93236 11.7017 4.60569C12.8942 5.28711 13.5 6.15229 13.5 7Z" stroke="#B17C8F"/>
<path d="M0 0.5H14" stroke="#B17C8F"/>
<path d="M18 0.5H32" stroke="#B17C8F"/>
<circle cx="6.5" cy="5.5" r="1" stroke="#B17C8F"/>
<circle cx="24.5" cy="5.5" r="1" stroke="#B17C8F"/>
<path d="M31.5 7C31.5 7.84771 30.8942 8.71289 29.7017 9.39431C28.5233 10.0676 26.8621 10.5 25 10.5C23.1379 10.5 21.4767 10.0676 20.2983 9.39431C19.1058 8.71289 18.5 7.84771 18.5 7C18.5 6.15229 19.1058 5.28711 20.2983 4.60569C21.4767 3.93236 23.1379 3.5 25 3.5C26.8621 3.5 28.5233 3.93236 29.7017 4.60569C30.8942 5.28711 31.5 6.15229 31.5 7Z" stroke="#B17C8F"/>
</svg>
