<svg width="240" height="250" viewBox="0 0 240 250" fill="none" xmlns="http://www.w3.org/2000/svg">
<path d="M233.425 70.8963C228.626 85.5933 220.971 97.5903 216.052 93.7743C206.342 86.2473 232.306 68.3073 213.799 38.9973C206.582 30.9233 197.83 23.5323 187.392 17.3053C173.473 9.00134 156.288 4.09934 138.162 1.44934C135.374 9.95434 133.464 21.6673 136.727 34.9683C143.382 62.1103 123.932 62.6113 119.889 38.4853C115.85 14.3603 91.131 -2.75366 63.66 0.367339C33.636 2.95334 11.339 7.82834 11.339 7.82834C11.339 7.82834 12.378 38.2573 6.203 79.3383C5.708 99.8013 12.8741 126.045 43.5811 131.015C74.2881 135.986 66.1001 160.111 43.5811 150.059C26.8721 142.601 12.137 141.516 0 144.118C1.186 166.28 7.00501 188.669 21.437 208.447C41.993 235.097 82.401 207.804 86.769 220.428C90.166 230.248 63.7561 231.854 44.4971 231.76C84.6601 262.17 125.801 250.709 141.332 225.446C157.708 198.807 144.914 193.784 156.174 175.691C166.427 159.215 193.025 176.698 222.707 150.059C240.624 133.979 245.352 101.667 233.425 70.8963Z" fill="#F4F3F4"/>
<path d="M181.289 231.835C182.121 204.229 159.716 180.684 158.85 176.472C158.022 172.46 185.975 201.708 188.952 231.835C189.382 236.187 181.289 231.835 181.289 231.835Z" fill="#E0CBD2"/>
<path fill-rule="evenodd" clip-rule="evenodd" d="M48.7778 41.2237C49.3244 40.6012 50.2722 40.5396 50.8947 41.0862C67.3941 55.5721 88.2538 80.0175 107.206 104.581C126.168 129.158 143.303 153.961 152.347 169.22C152.77 169.932 152.535 170.852 151.822 171.275C151.109 171.697 150.189 171.462 149.767 170.749C140.807 155.633 123.751 130.936 104.831 106.414C85.9003 81.8783 65.186 57.6257 48.9154 43.3406C48.2929 42.794 48.2313 41.8463 48.7778 41.2237Z" fill="#E0CBD2"/>
<path fill-rule="evenodd" clip-rule="evenodd" d="M160.222 29.0464C161.015 28.8069 161.852 29.2557 162.091 30.0487C173.593 68.1408 171.185 95.0793 165.875 116.63C163.986 124.293 161.721 131.302 159.611 137.83C158.772 140.427 157.958 142.948 157.201 145.404C154.526 154.087 152.557 162.008 152.557 169.984C152.557 170.813 151.886 171.484 151.057 171.484C150.229 171.484 149.557 170.813 149.557 169.984C149.557 161.536 151.642 153.258 154.334 144.52C155.113 141.991 155.942 139.427 156.789 136.806C158.887 130.313 161.1 123.466 162.962 115.912C168.158 94.8274 170.549 68.4399 159.219 30.9159C158.98 30.1229 159.429 29.2858 160.222 29.0464Z" fill="#E0CBD2"/>
<path fill-rule="evenodd" clip-rule="evenodd" d="M25.5536 166.944C25.8065 166.155 26.651 165.72 27.4399 165.973C43.8092 171.219 66.6239 175.595 89.359 176.789C112.135 177.985 134.608 175.973 150.426 168.624C151.177 168.275 152.069 168.601 152.418 169.352C152.767 170.104 152.441 170.996 151.69 171.345C135.203 179.005 112.138 180.989 89.2017 179.785C66.2248 178.578 43.154 174.159 26.5243 168.83C25.7354 168.577 25.3008 167.733 25.5536 166.944Z" fill="#E0CBD2"/>
<path fill-rule="evenodd" clip-rule="evenodd" d="M217.198 113.235C217.723 113.876 217.628 114.821 216.987 115.346C209.95 121.1 199.258 126.79 188.149 131.801C177.011 136.825 165.34 141.215 156.269 144.346C155.486 144.617 154.632 144.201 154.362 143.418C154.092 142.635 154.507 141.781 155.291 141.51C164.304 138.399 175.885 134.042 186.915 129.067C197.975 124.078 208.368 118.518 215.087 113.023C215.729 112.499 216.674 112.593 217.198 113.235Z" fill="#E0CBD2"/>
<path fill-rule="evenodd" clip-rule="evenodd" d="M192.967 54.5155C193.778 54.6886 194.294 55.4856 194.121 56.2958C192.192 65.3221 187.723 70.6369 183.045 76.0937C182.962 76.1911 182.878 76.2885 182.795 76.386C178.212 81.7302 173.403 87.3394 170.017 97.0082C169.743 97.79 168.887 98.2019 168.105 97.9281C167.323 97.6542 166.911 96.7984 167.185 96.0166C170.759 85.8123 175.877 79.8441 180.477 74.4803C180.574 74.367 180.671 74.2541 180.768 74.1413C185.421 68.7124 189.43 63.8946 191.187 55.669C191.36 54.8588 192.157 54.3424 192.967 54.5155Z" fill="#E0CBD2"/>
</svg>
