<svg width="614" height="614" viewBox="0 0 614 614" fill="none" xmlns="http://www.w3.org/2000/svg">
<path d="M301.795 53.6478C301.795 53.6478 299.386 144.177 297.453 151.391C295.52 158.604 260.569 324.882 247.524 323.007C234.478 321.132 52.6653 289.974 30.597 372.624C8.52758 455.274 181.545 516.915 181.545 516.915L181.414 531.451C181.414 531.451 208.984 540.451 257.972 551.964C306.959 563.477 316.125 567.547 316.125 567.547L325.146 553.457C325.146 553.457 490.579 578.79 514.798 497.333C539.018 415.877 358.504 355.798 345.577 351.332C332.651 346.866 381.741 187.222 385.052 174.863C388.364 162.504 438.164 90.1879 438.164 90.1879C438.164 90.1879 425.742 78.5927 371.642 65.7106C317.541 52.8285 301.795 53.6478 301.795 53.6478Z" fill="#F4F3F4"/>
<path d="M41.9068 369.886C41.9068 369.886 503.846 482.387 507.58 489.026C511.312 495.663 480.717 551.075 381.184 549.364C357.23 548.953 336.641 547.903 318.385 546.198C318.385 546.198 315.228 555.255 311.069 554.765C266.684 549.543 215.216 536.599 197.699 525.78C193.654 523.283 183.095 509.974 183.095 509.974C126.009 485.015 21.8473 441.809 41.9068 369.886Z" fill="#B17C8F"/>
<path d="M329.832 512.195C329.642 531.051 446.155 539.255 445.503 508.985C444.852 478.718 330.09 486.613 329.832 512.195Z" fill="#F9F3F4"/>
<path fill-rule="evenodd" clip-rule="evenodd" d="M231.225 351.199C231.167 352.025 230.45 352.648 229.624 352.59C196.305 350.258 161.501 354.126 134.068 362.284C120.349 366.364 108.535 371.498 99.6845 377.422C90.8089 383.362 85.0839 389.978 83.2124 396.963C82.998 397.763 82.1755 398.238 81.3753 398.023C80.5751 397.809 80.1002 396.986 80.3147 396.186C82.4553 388.197 88.8603 381.056 98.0159 374.929C107.197 368.784 119.314 363.542 133.213 359.409C161.013 351.141 196.179 347.242 229.833 349.598C230.66 349.655 231.283 350.372 231.225 351.199Z" fill="white"/>
<path fill-rule="evenodd" clip-rule="evenodd" d="M330.439 78.8942C331.26 79.0035 331.837 79.7577 331.728 80.5789L322.983 146.32C322.975 146.384 322.962 146.448 322.945 146.51L308.117 201.85C307.902 202.65 307.08 203.125 306.28 202.911C305.479 202.696 305.005 201.874 305.219 201.073L320.022 145.828L328.754 80.1834C328.863 79.3622 329.618 78.785 330.439 78.8942Z" fill="white"/>
<path fill-rule="evenodd" clip-rule="evenodd" d="M315.825 77.0395C316.651 77.0953 317.276 77.8106 317.22 78.6371L314.692 116.089C314.636 116.915 313.921 117.54 313.095 117.484C312.268 117.429 311.643 116.713 311.699 115.887L314.227 78.435C314.283 77.6085 314.998 76.9837 315.825 77.0395Z" fill="white"/>
</svg>
