<svg width="32" height="16" viewBox="0 0 32 16" fill="none" xmlns="http://www.w3.org/2000/svg">
<path d="M13.5 12C13.5 12.8477 12.8942 13.7129 11.7017 14.3943C10.5233 15.0676 8.8621 15.5 7 15.5C5.1379 15.5 3.47666 15.0676 2.29832 14.3943C1.10584 13.7129 0.5 12.8477 0.5 12C0.5 11.1523 1.10584 10.2871 2.29832 9.60569C3.47666 8.93236 5.1379 8.5 7 8.5C8.8621 8.5 10.5233 8.93236 11.7017 9.60569C12.8942 10.2871 13.5 11.1523 13.5 12Z" stroke="#B17C8F"/>
<path d="M0 0.5H14" stroke="#B17C8F"/>
<path d="M18 0.5H32" stroke="#B17C8F"/>
<circle cx="6.5" cy="13.5" r="1" stroke="#B17C8F"/>
<circle cx="24.5" cy="13.5" r="1" stroke="#B17C8F"/>
<path d="M31.5 12C31.5 12.8477 30.8942 13.7129 29.7017 14.3943C28.5233 15.0676 26.8621 15.5 25 15.5C23.1379 15.5 21.4767 15.0676 20.2983 14.3943C19.1058 13.7129 18.5 12.8477 18.5 12C18.5 11.1523 19.1058 10.2871 20.2983 9.60569C21.4767 8.93236 23.1379 8.5 25 8.5C26.8621 8.5 28.5233 8.93236 29.7017 9.60569C30.8942 10.2871 31.5 11.1523 31.5 12Z" stroke="#B17C8F"/>
</svg>
