<svg width="14" height="26" viewBox="0 0 14 26" fill="none" xmlns="http://www.w3.org/2000/svg">
<path d="M9.09466 13.3685H8.59466V13.8685V25H4.91425V13.8685V13.3685H4.41425H1V9.83532H4.41425H4.91425V9.33532V5.9925C4.91425 4.15557 5.47289 2.79646 6.38349 1.89667C7.29565 0.995333 8.61654 0.5 10.2456 0.5C11.4966 0.5 12.6105 0.571764 13.2403 0.628506V3.73324L11.341 3.73416C11.3409 3.73416 11.3408 3.73416 11.3407 3.73416C10.3326 3.7342 9.59204 3.9731 9.12887 4.52372C8.68199 5.05497 8.59466 5.76393 8.59466 6.44107V9.33532V9.83532H9.09466H13.0144L12.5609 13.3685H9.09466Z" stroke="#B17C8F"/>
</svg>
