<svg width="240" height="250" viewBox="0 0 240 250" fill="none" xmlns="http://www.w3.org/2000/svg">
<path d="M233.425 70.8963C228.626 85.5933 220.971 97.5903 216.052 93.7743C206.342 86.2473 232.306 68.3073 213.799 38.9973C206.582 30.9233 197.83 23.5323 187.392 17.3053C173.473 9.00134 156.288 4.09934 138.162 1.44934C135.374 9.95434 133.464 21.6673 136.727 34.9683C143.382 62.1103 123.932 62.6113 119.889 38.4853C115.85 14.3603 91.131 -2.75366 63.66 0.367339C33.636 2.95334 11.339 7.82834 11.339 7.82834C11.339 7.82834 12.378 38.2573 6.203 79.3383C5.708 99.8013 12.8741 126.045 43.5811 131.015C74.2881 135.986 66.1001 160.111 43.5811 150.059C26.8721 142.601 12.137 141.516 0 144.118C1.186 166.28 7.00501 188.669 21.437 208.447C41.993 235.097 82.401 207.804 86.769 220.428C90.166 230.248 63.7561 231.854 44.4971 231.76C84.6601 262.17 125.801 250.709 141.332 225.446C157.708 198.807 144.914 193.784 156.174 175.691C166.427 159.215 193.025 176.698 222.707 150.059C240.624 133.979 245.352 101.667 233.425 70.8963Z" fill="white"/>
<path d="M181.289 231.835C182.121 204.229 159.716 180.684 158.85 176.472C158.022 172.46 185.975 201.708 188.952 231.835C189.382 236.187 181.289 231.835 181.289 231.835Z" fill="white"/>
<path d="M49.9048 42.2134C82.6748 70.9844 133.053 139.609 151.057 169.984L49.9048 42.2134Z" fill="white"/>
<path fill-rule="evenodd" clip-rule="evenodd" d="M48.7776 41.2237C49.3242 40.6012 50.2719 40.5396 50.8945 41.0862C67.3939 55.5721 88.2535 80.0175 107.206 104.581C126.168 129.158 143.303 153.961 152.347 169.22C152.77 169.932 152.534 170.852 151.822 171.275C151.109 171.697 150.189 171.462 149.766 170.749C140.807 155.633 123.751 130.936 104.83 106.414C85.9001 81.8783 65.1857 57.6256 48.9152 43.3406C48.2926 42.794 48.231 41.8463 48.7776 41.2237Z" fill="white"/>
<path d="M160.655 30.4823C183.487 106.098 151.057 137.134 151.057 169.984L160.655 30.4823Z" fill="white"/>
<path fill-rule="evenodd" clip-rule="evenodd" d="M160.221 29.0463C161.014 28.8069 161.851 29.2557 162.091 30.0487C173.592 68.1408 171.185 95.0792 165.874 116.629C163.985 124.293 161.72 131.302 159.611 137.83C158.772 140.427 157.957 142.948 157.201 145.404C154.525 154.087 152.557 162.007 152.557 169.984C152.557 170.813 151.885 171.484 151.057 171.484C150.228 171.484 149.557 170.813 149.557 169.984C149.557 161.536 151.642 153.258 154.334 144.52C155.113 141.991 155.941 139.427 156.789 136.806C158.887 130.313 161.1 123.466 162.961 115.912C168.157 94.8274 170.549 68.4398 159.219 30.9159C158.979 30.1228 159.428 29.2858 160.221 29.0463Z" fill="white"/>
<path d="M26.9819 167.401C59.9809 177.976 118.753 184.993 151.058 169.984L26.9819 167.401Z" fill="white"/>
<path fill-rule="evenodd" clip-rule="evenodd" d="M25.5534 166.944C25.8062 166.155 26.6507 165.72 27.4396 165.973C43.8089 171.219 66.6236 175.595 89.3587 176.789C112.134 177.985 134.608 175.973 150.426 168.624C151.177 168.275 152.069 168.601 152.418 169.352C152.767 170.104 152.441 170.996 151.69 171.345C135.203 179.005 112.138 180.989 89.2014 179.785C66.2245 178.578 43.1538 174.159 26.5241 168.83C25.7352 168.577 25.3006 167.733 25.5534 166.944Z" fill="white"/>
<path d="M155.78 142.928C173.865 136.686 202.282 125.433 216.037 114.184L155.78 142.928Z" fill="white"/>
<path fill-rule="evenodd" clip-rule="evenodd" d="M217.198 113.235C217.722 113.876 217.628 114.821 216.986 115.345C209.95 121.1 199.258 126.79 188.149 131.801C177.011 136.825 165.34 141.215 156.269 144.346C155.486 144.617 154.632 144.201 154.362 143.418C154.092 142.635 154.507 141.781 155.29 141.51C164.304 138.399 175.885 134.042 186.915 129.067C197.974 124.078 208.368 118.518 215.087 113.023C215.728 112.499 216.673 112.593 217.198 113.235Z" fill="white"/>
<path d="M168.601 96.5123C175.698 76.2473 188.968 73.2343 192.654 55.9823L168.601 96.5123Z" fill="white"/>
<path fill-rule="evenodd" clip-rule="evenodd" d="M192.967 54.5154C193.778 54.6885 194.294 55.4856 194.121 56.2957C192.192 65.3221 187.723 70.6368 183.045 76.0936C182.962 76.191 182.878 76.2884 182.795 76.386C178.212 81.7302 173.403 87.3394 170.017 97.0081C169.743 97.79 168.887 98.2018 168.105 97.928C167.323 97.6542 166.911 96.7984 167.185 96.0165C170.759 85.8122 175.877 79.844 180.477 74.4802C180.574 74.367 180.671 74.254 180.768 74.1412C185.421 68.7123 189.43 63.8945 191.187 55.6689C191.36 54.8588 192.157 54.3423 192.967 54.5154Z" fill="white"/>
</svg>
