<svg viewBox="0 0 16 17" fill="none" xmlns="http://www.w3.org/2000/svg">
<path d="M7.9988 1.44153C10.1363 1.44153 10.3875 1.44953 11.2322 1.48873C12.0122 1.52472 12.4362 1.65432 12.7162 1.76391C13.0913 1.90951 13.3569 2.0823 13.6369 2.36228C13.9169 2.64227 14.0897 2.90865 14.2345 3.28223C14.3449 3.56462 14.4761 3.9886 14.5113 4.76776C14.5497 5.61172 14.5577 5.86451 14.5577 8.0004C14.5577 10.1363 14.5497 10.3891 14.5113 11.233C14.4761 12.013 14.3449 12.4362 14.2345 12.7178C14.0897 13.0921 13.9169 13.3577 13.6369 13.6385C13.3561 13.9177 13.0905 14.0913 12.7162 14.2369C12.4354 14.3465 12.0114 14.4761 11.2322 14.5121C10.3875 14.5505 10.1363 14.5593 7.9988 14.5593C5.86291 14.5593 5.61012 14.5513 4.76696 14.5121C3.9854 14.4761 3.56302 14.3465 3.28144 14.2369C2.90785 14.0913 2.64227 13.9185 2.36228 13.6385C2.0823 13.3577 1.9095 13.0921 1.76311 12.7178C1.65432 12.4362 1.52392 12.0122 1.48793 11.233C1.44953 10.3891 1.44153 10.1363 1.44153 8.0004C1.44153 5.86451 1.44953 5.61172 1.48793 4.76776C1.52392 3.9878 1.65432 3.56462 1.76311 3.28223C1.9095 2.90865 2.0823 2.64227 2.36228 2.36228C2.64307 2.0831 2.90865 1.90951 3.28144 1.76391C3.56382 1.65432 3.9862 1.52472 4.76696 1.48873C5.61012 1.45033 5.86291 1.44153 7.9988 1.44153ZM7.9988 4.39431e-07C5.82611 4.39431e-07 5.55412 0.0103975 4.70137 0.0487956C3.84941 0.0879936 3.26704 0.22319 2.75906 0.419981C2.23189 0.62477 1.78711 0.898356 1.34233 1.34313C0.896755 1.78791 0.623969 2.23349 0.419979 2.75986C0.221589 3.26863 0.0863956 3.85101 0.0479975 4.70216C0.0079995 5.55572 -5.79805e-08 5.82851 -5.79805e-08 8.0012C-5.79805e-08 10.1739 0.0079995 10.4459 0.0479975 11.3002C0.0863956 12.1514 0.221589 12.7338 0.419979 13.2417C0.623969 13.7673 0.897555 14.2145 1.34233 14.6585C1.78711 15.1024 2.23189 15.3768 2.75906 15.5808C3.26704 15.7792 3.84861 15.9144 4.70137 15.9528C5.55412 15.992 5.82611 16.0016 7.9988 16.0016C10.1731 16.0016 10.4451 15.992 11.297 15.9528C12.1482 15.9136 12.7306 15.7784 13.2409 15.5808C13.7657 15.3768 14.2129 15.1024 14.6561 14.6585C15.1016 14.2137 15.3744 13.7681 15.5784 13.2417C15.7784 12.7338 15.912 12.1514 15.952 11.3002C15.9904 10.4467 16 10.1739 16 8.0012C16 5.82851 15.9904 5.55652 15.952 4.70216C15.912 3.85101 15.7784 3.26863 15.5784 2.75986C15.3744 2.23429 15.1008 1.78791 14.6561 1.34313C14.2129 0.897556 13.7665 0.62477 13.2409 0.419981C12.7306 0.222391 12.149 0.0871937 11.297 0.0487956C10.4451 0.0103975 10.1731 4.39431e-07 7.9988 4.39431e-07Z" fill="#E0CBD2"/>
<path d="M7.9986 3.89215C5.72911 3.89215 3.8916 5.73126 3.8916 8.00075C3.8916 10.2686 5.72911 12.1085 7.9986 12.1085C10.2681 12.1085 12.1072 10.2694 12.1072 8.00075C12.1072 5.73206 10.2681 3.89215 7.9986 3.89215ZM7.9986 10.667C6.52587 10.667 5.33153 9.47267 5.33153 8.00075C5.33153 6.52802 6.52587 5.33448 7.9986 5.33448C9.47292 5.33448 10.6657 6.52802 10.6657 8.00075C10.6657 9.47267 9.47292 10.667 7.9986 10.667Z" fill="#E0CBD2"/>
<path d="M12.2693 4.6911C12.8 4.6911 13.2301 4.26095 13.2301 3.73035C13.2301 3.19974 12.8 2.76959 12.2693 2.76959C11.7387 2.76959 11.3086 3.19974 11.3086 3.73035C11.3086 4.26095 11.7387 4.6911 12.2693 4.6911Z" fill="#E0CBD2"/>
</svg>
