<svg width="16" height="17" viewBox="0 0 16 17" fill="none" xmlns="http://www.w3.org/2000/svg">
<path d="M7.9988 1.44177C10.1363 1.44177 10.3875 1.44977 11.2322 1.48897C12.0122 1.52497 12.4362 1.65456 12.7162 1.76416C13.0913 1.90975 13.3569 2.08254 13.6369 2.36253C13.9169 2.64251 14.0897 2.9089 14.2345 3.28248C14.3449 3.56486 14.4761 3.98884 14.5113 4.76801C14.5497 5.61196 14.5577 5.86475 14.5577 8.00064C14.5577 10.1365 14.5497 10.3893 14.5113 11.2333C14.4761 12.0132 14.3449 12.4364 14.2345 12.718C14.0897 13.0924 13.9169 13.358 13.6369 13.6388C13.3561 13.9179 13.0905 14.0915 12.7162 14.2371C12.4354 14.3467 12.0114 14.4763 11.2322 14.5123C10.3875 14.5507 10.1363 14.5595 7.9988 14.5595C5.86291 14.5595 5.61012 14.5515 4.76696 14.5123C3.9854 14.4763 3.56302 14.3467 3.28144 14.2371C2.90785 14.0915 2.64227 13.9187 2.36228 13.6388C2.0823 13.358 1.9095 13.0924 1.76311 12.718C1.65432 12.4364 1.52392 12.0124 1.48793 11.2333C1.44953 10.3893 1.44153 10.1365 1.44153 8.00064C1.44153 5.86475 1.44953 5.61196 1.48793 4.76801C1.52392 3.98804 1.65432 3.56486 1.76311 3.28248C1.9095 2.9089 2.0823 2.64251 2.36228 2.36253C2.64307 2.08334 2.90865 1.90975 3.28144 1.76416C3.56382 1.65456 3.9862 1.52497 4.76696 1.48897C5.61012 1.45057 5.86291 1.44177 7.9988 1.44177ZM7.9988 0.00024458C5.82611 0.00024458 5.55412 0.0106417 4.70137 0.0490397C3.84941 0.0882378 3.26704 0.223435 2.75906 0.420225C2.23189 0.625015 1.78711 0.8986 1.34233 1.34338C0.896755 1.78816 0.623969 2.23373 0.419979 2.7601C0.221589 3.26888 0.0863956 3.85125 0.0479975 4.70241C0.0079995 5.55597 -5.79805e-08 5.82875 -5.79805e-08 8.00144C-5.79805e-08 10.1741 0.0079995 10.4461 0.0479975 11.3005C0.0863956 12.1516 0.221589 12.734 0.419979 13.242C0.623969 13.7676 0.897555 14.2147 1.34233 14.6587C1.78711 15.1027 2.23189 15.3771 2.75906 15.5811C3.26704 15.7795 3.84861 15.9146 4.70137 15.953C5.55412 15.9922 5.82611 16.0018 7.9988 16.0018C10.1731 16.0018 10.4451 15.9922 11.297 15.953C12.1482 15.9138 12.7306 15.7787 13.2409 15.5811C13.7657 15.3771 14.2129 15.1027 14.6561 14.6587C15.1016 14.2139 15.3744 13.7684 15.5784 13.242C15.7784 12.734 15.912 12.1516 15.952 11.3005C15.9904 10.4469 16 10.1741 16 8.00144C16 5.82875 15.9904 5.55677 15.952 4.70241C15.912 3.85125 15.7784 3.26888 15.5784 2.7601C15.3744 2.23453 15.1008 1.78816 14.6561 1.34338C14.2129 0.8978 13.7665 0.625015 13.2409 0.420225C12.7306 0.222635 12.149 0.0874378 11.297 0.0490397C10.4451 0.0106417 10.1731 0.00024458 7.9988 0.00024458Z" fill="#B17C8F"/>
<path d="M7.9986 3.89245C5.72911 3.89245 3.8916 5.73156 3.8916 8.00105C3.8916 10.2689 5.72911 12.1088 7.9986 12.1088C10.2681 12.1088 12.1072 10.2697 12.1072 8.00105C12.1072 5.73236 10.2681 3.89245 7.9986 3.89245ZM7.9986 10.6673C6.52587 10.6673 5.33153 9.47298 5.33153 8.00105C5.33153 6.52832 6.52587 5.33478 7.9986 5.33478C9.47292 5.33478 10.6657 6.52832 10.6657 8.00105C10.6657 9.47298 9.47292 10.6673 7.9986 10.6673Z" fill="#B17C8F"/>
<path d="M12.2693 4.69128C12.8 4.69128 13.2301 4.26114 13.2301 3.73053C13.2301 3.19992 12.8 2.76978 12.2693 2.76978C11.7387 2.76978 11.3086 3.19992 11.3086 3.73053C11.3086 4.26114 11.7387 4.69128 12.2693 4.69128Z" fill="#B17C8F"/>
</svg>
