<svg viewBox="0 0 1440 323" fill="none" xmlns="http://www.w3.org/2000/svg">
<path d="M0 15.0002C94 2.43606 169.192 -4.16705 299 2.89243C420.5 9.50008 714 14.4901 714 14.4901C750.277 14.4901 806.721 10.5549 853.854 7.26909C887.639 4.91384 916.639 2.89209 930 2.89209C982.572 2.89209 1023 9.68656 1062.31 16.2921C1092.53 21.3718 1122.09 26.3398 1156 28.0204C1252.95 32.8255 1343 28.1079 1440 15V305C1372 318.5 1293 325.797 1178 321.828C1158.77 321.164 1134.7 319.133 1106.49 316.751C1052.55 312.198 983.447 306.364 904 306.364C883.975 306.364 841.157 308.225 788.474 310.514C696.993 314.489 570.625 317.719 444 311.928C260 303.514 199.779 266.77 0 305V15.0002Z" fill="#F9F3F4"/>
</svg>
