<svg width="176" height="216" viewBox="0 0 176 216" fill="none" xmlns="http://www.w3.org/2000/svg">
<path d="M175.12 106.731C164.19 4.12634 75.8332 -6.34286 67.5005 2.46192C63.9441 6.21978 90.8818 0.148588 121.101 17.537C154.559 36.7889 174.659 92.0639 168.42 132.275C161.47 177.071 127.801 187.55 90.9507 195.507C54.1005 203.463 18.0453 187.121 -2.05476 157.808C-22.1549 128.495 -25.7741 87.0389 -20.4798 63.17C-14.4426 35.9511 7.57653 31.7636 2.59404 27.587C-7.0388 19.5123 -33.0001 67.3363 -33 110.919C-32.9999 161.995 10.4603 215.188 72.9442 215.188C140.321 215.188 181.39 165.59 175.12 106.731Z" fill="#E0CBD2"/>
<path d="M107.658 18.3638C106.681 20.7367 104.141 26.1526 101.796 28.8326" stroke="#F4F3F4" stroke-width="3" stroke-linecap="round"/>
<path d="M115.615 23.3887C114.638 25.7616 111.26 29.0837 108.915 31.7637" stroke="#F4F3F4" stroke-width="3" stroke-linecap="round"/>
<path d="M122.315 29.2512C120.221 32.1825 118.965 33.8575 114.777 36.7888" stroke="#F4F3F4" stroke-width="3" stroke-linecap="round"/>
<path d="M128.177 36.3701C126.502 39.3014 122.733 41.3951 119.802 43.4889" stroke="#F4F3F4" stroke-width="3" stroke-linecap="round"/>
</svg>
