<svg viewBox="0 0 16 14" fill="none" xmlns="http://www.w3.org/2000/svg">
<path d="M16 1.53821C15.4103 1.79953 14.7787 1.97553 14.1144 2.05552C14.7917 1.64868 15.312 1.00567 15.5574 0.239227C14.9235 0.61559 14.2203 0.889101 13.4736 1.03538C12.8748 0.397695 12.0223 -4.94071e-08 11.0776 -4.94071e-08C9.26508 -4.94071e-08 7.79468 1.46964 7.79468 3.28213C7.79468 3.53888 7.82287 3.7903 7.87924 4.02952C5.15099 3.89239 2.73358 2.58578 1.11385 0.601114C0.832722 1.0849 0.670444 1.64868 0.670444 2.25056C0.670444 3.38955 1.25099 4.3937 2.13171 4.98262C1.59307 4.96586 1.08642 4.81806 0.643779 4.57197C0.643779 4.58569 0.643779 4.5994 0.643779 4.61388C0.643779 6.2039 1.77515 7.52955 3.2768 7.83277C3.00176 7.90743 2.71149 7.94705 2.41208 7.94705C2.20028 7.94705 1.99457 7.92648 1.7942 7.88839C2.21094 9.19194 3.42384 10.1412 4.8592 10.1679C3.73696 11.0479 2.32065 11.5728 0.783201 11.5728C0.51807 11.5728 0.25675 11.5568 0 11.5263C1.45288 12.4581 3.17852 13.0013 5.03138 13.0013C11.0692 13.0013 14.3704 8.00038 14.3704 3.6623C14.3704 3.51983 14.3681 3.37965 14.362 3.23794C15.0035 2.77473 15.5589 2.19723 16 1.53821Z" fill="#E0CBD2"/>
</svg>
