<svg width="16" height="14" viewBox="0 0 16 14" fill="none" xmlns="http://www.w3.org/2000/svg">
<path d="M16 1.53846C15.4103 1.79978 14.7787 1.97577 14.1144 2.05577C14.7917 1.64893 15.312 1.00591 15.5574 0.239471C14.9235 0.615834 14.2203 0.889345 13.4736 1.03562C12.8748 0.39794 12.0223 0.000244091 11.0776 0.000244091C9.26508 0.000244091 7.79468 1.46989 7.79468 3.28237C7.79468 3.53912 7.82287 3.79054 7.87924 4.02977C5.15099 3.89263 2.73358 2.58603 1.11385 0.601358C0.832722 1.08514 0.670444 1.64893 0.670444 2.2508C0.670444 3.3898 1.25099 4.39394 2.13171 4.98286C1.59307 4.9661 1.08642 4.8183 0.643779 4.57222C0.643779 4.58593 0.643779 4.59964 0.643779 4.61412C0.643779 6.20414 1.77515 7.52979 3.2768 7.83301C3.00176 7.90768 2.71149 7.94729 2.41208 7.94729C2.20028 7.94729 1.99457 7.92672 1.7942 7.88863C2.21094 9.19219 3.42384 10.1415 4.8592 10.1681C3.73696 11.0481 2.32065 11.573 0.783201 11.573C0.51807 11.573 0.25675 11.557 0 11.5266C1.45288 12.4583 3.17852 13.0015 5.03138 13.0015C11.0692 13.0015 14.3704 8.00063 14.3704 3.66255C14.3704 3.52008 14.3681 3.37989 14.362 3.23819C15.0035 2.77497 15.5589 2.19747 16 1.53846Z" fill="#B17C8F"/>
</svg>
