<svg viewBox="0 0 20 12" fill="none" xmlns="http://www.w3.org/2000/svg">
<path fill-rule="evenodd" clip-rule="evenodd" d="M9.78554 11.3619H10.9802C10.9802 11.3619 11.3415 11.3226 11.5264 11.1233C11.6968 10.9415 11.6908 10.5983 11.6908 10.5983C11.6908 10.5983 11.6681 8.99459 12.412 8.75824C13.1468 8.52567 14.0884 10.3082 15.0861 10.9945C15.8422 11.5135 16.4164 11.3998 16.4164 11.3998L19.0868 11.3627C19.0868 11.3627 20.4845 11.2763 19.8216 10.1779C19.7678 10.0885 19.436 9.3658 17.8361 7.88023C16.1611 6.32574 16.3853 6.57724 18.4019 3.88793C19.6315 2.25086 20.1223 1.25165 19.9686 0.822873C19.8231 0.414552 18.9186 0.522882 18.9186 0.522882L15.9119 0.54182C15.9119 0.54182 15.6884 0.510761 15.5232 0.61C15.3611 0.706209 15.2573 0.932717 15.2573 0.932717C15.2573 0.932717 14.7808 2.19935 14.146 3.27734C12.8067 5.55152 12.2711 5.67197 12.0529 5.53106C11.5431 5.20153 11.6703 4.20913 11.6703 3.50309C11.6703 1.29937 12.0044 0.380462 11.0196 0.14259C10.6931 0.0638045 10.4522 0.0115334 9.61584 0.00244277C8.54466 -0.00816297 7.63636 0.0054729 7.12122 0.257738C6.77957 0.425915 6.51594 0.798631 6.67654 0.8206C6.87502 0.846357 7.32501 0.941808 7.56363 1.2668C7.87196 1.68572 7.86211 2.62736 7.86211 2.62736C7.86211 2.62736 8.03862 5.22122 7.44773 5.54394C7.04244 5.76515 6.48715 5.31365 5.29249 3.25083C4.68115 2.19404 4.21904 1.0259 4.21904 1.0259C4.21904 1.0259 4.1304 0.806964 3.97132 0.690301C3.77814 0.548638 3.50921 0.503943 3.50921 0.503943L0.650965 0.522124C0.650965 0.522124 0.222948 0.534245 0.0653766 0.721361C-0.0747706 0.886507 0.0540134 1.23044 0.0540134 1.23044C0.0540134 1.23044 2.29107 6.46513 4.82432 9.10217C7.14698 11.521 9.78554 11.3619 9.78554 11.3619Z" fill="#E0CBD2"/>
</svg>
