<svg width="20" height="12" viewBox="0 0 20 12" fill="none" xmlns="http://www.w3.org/2000/svg">
<path fill-rule="evenodd" clip-rule="evenodd" d="M9.78554 11.3622H10.9802C10.9802 11.3622 11.3415 11.3228 11.5264 11.1236C11.6968 10.9417 11.6908 10.5986 11.6908 10.5986C11.6908 10.5986 11.6681 8.99484 12.412 8.75848C13.1468 8.52591 14.0884 10.3084 15.0861 10.9948C15.8422 11.5137 16.4164 11.4001 16.4164 11.4001L19.0868 11.3629C19.0868 11.3629 20.4845 11.2766 19.8216 10.1781C19.7678 10.0887 19.436 9.36604 17.8361 7.88048C16.1611 6.32598 16.3853 6.57749 18.4019 3.88817C19.6315 2.2511 20.1223 1.25189 19.9686 0.823117C19.8231 0.414796 18.9186 0.523126 18.9186 0.523126L15.9119 0.542064C15.9119 0.542064 15.6884 0.511005 15.5232 0.610244C15.3611 0.706454 15.2573 0.932962 15.2573 0.932962C15.2573 0.932962 14.7808 2.19959 14.146 3.27759C12.8067 5.55176 12.2711 5.67221 12.0529 5.53131C11.5431 5.20177 11.6703 4.20938 11.6703 3.50334C11.6703 1.29962 12.0044 0.380706 11.0196 0.142834C10.6931 0.0640486 10.4522 0.0117775 9.61584 0.00268691C8.54466 -0.00791883 7.63636 0.00571704 7.12122 0.257982C6.77957 0.426159 6.51594 0.798875 6.67654 0.820844C6.87502 0.846601 7.32501 0.942052 7.56363 1.26704C7.87196 1.68597 7.86211 2.62761 7.86211 2.62761C7.86211 2.62761 8.03862 5.22147 7.44773 5.54419C7.04244 5.76539 6.48715 5.31389 5.29249 3.25107C4.68115 2.19429 4.21904 1.02614 4.21904 1.02614C4.21904 1.02614 4.1304 0.807208 3.97132 0.690545C3.77814 0.548882 3.50921 0.504187 3.50921 0.504187L0.650965 0.522368C0.650965 0.522368 0.222948 0.534489 0.0653766 0.721605C-0.0747706 0.886751 0.0540134 1.23068 0.0540134 1.23068C0.0540134 1.23068 2.29107 6.46537 4.82432 9.10241C7.14698 11.5213 9.78554 11.3622 9.78554 11.3622Z" fill="#B17C8F"/>
</svg>
