<svg width="18" height="13" viewBox="0 0 18 13" fill="none" xmlns="http://www.w3.org/2000/svg">
<path fill-rule="evenodd" clip-rule="evenodd" d="M16.0229 0.381912C16.8001 0.596572 17.4057 1.22863 17.6114 2.02764C17.9886 3.48256 18 6.49972 18 6.49972C18 6.49972 18 9.52882 17.6229 10.9718C17.4172 11.7708 16.6972 12.4267 15.9201 12.6414C14.5144 13.023 8.99469 12.9992 8.99469 12.9992C8.99469 12.9992 3.47494 13.0349 2.06929 12.6414C1.30361 12.4267 0.549358 11.7708 0.343653 10.9718C-0.0334727 9.51689 0.000811459 6.49972 0.000811459 6.49972C0.000811459 6.49972 -0.0334727 3.48256 0.343653 2.02764C0.549358 1.22863 1.29218 0.572721 2.06929 0.358061C3.47494 -0.0235567 8.99469 0.000294459 8.99469 0.000294459C8.99469 0.000294459 14.6173 0.00029445 16.0229 0.381912ZM11.7603 6.49961L7.26904 9.3856V3.61363L11.7603 6.49961Z" fill="#B17C8F"/>
</svg>
