<svg width="16" height="16" viewBox="0 0 16 16" fill="none" xmlns="http://www.w3.org/2000/svg">
<rect y="4" width="16" height="9" rx="1" fill="#D9E2E9"/>
<path fill-rule="evenodd" clip-rule="evenodd" d="M15.7342 7.22231C15.5315 7.07416 15.2183 7 14.8129 7H13.7442L13.3574 9.2234H11.9756L12.0677 8.72309H12.8968L12.9889 8.16724H12.1598L12.2519 7.66692H13.118L13.2283 7H11.4782L11.1097 9.09371H10.4648L10.8333 7H9.9122L9.54361 9.09371H8.91715L9.28575 7H8.36452L7.97764 9.2234H6.57743L6.66954 8.72309H7.51694L7.60905 8.16724H6.76164L6.85375 7.66692H7.73807L7.84863 7H2.39509L2.08186 8.76017L1.45541 7H0.515724L0 9.87187H0.902772L1.216 8.07462L1.82383 9.87187H5.06666L5.45354 7.64846H5.96943L5.58255 9.87187H14.1311L14.3707 8.48216L14.776 9.87187H15.6788L15.255 8.72309L15.3471 8.70446C15.5498 8.64893 15.7157 8.55632 15.8263 8.40817C15.9368 8.25985 15.992 8.056 15.992 7.83369C16.0289 7.55585 15.9368 7.352 15.7342 7.22248V7.22231ZM4.23923 9.25642H2.87187L2.96296 8.73511H3.82002L3.91111 8.13659H3.05405L3.14531 7.61545H4.51284L4.23923 9.25642ZM15.0244 8.33587C14.9204 8.41596 14.7748 8.43577 14.5669 8.43577H14.359L14.5046 7.61545H14.6502C14.8165 7.61545 14.9413 7.63543 15.0244 7.69536C15.0869 7.73549 15.17 7.81558 15.17 7.97558C15.2117 8.19568 15.1075 8.29574 15.0244 8.33587Z" fill="white"/>
</svg>
