<svg width="16" height="16" viewBox="0 0 16 16" fill="none" xmlns="http://www.w3.org/2000/svg">
<path d="M15.5881 2.81555H0.411898C0.184136 2.81555 0 2.99997 0 3.22745V12.7725C0 13 0.184136 13.1847 0.411898 13.1847H15.5881C15.8159 13.1847 16 13.0003 16 12.7728V3.22745C16 2.99997 15.8159 2.81555 15.5881 2.81555ZM10.4195 8.46371H12.2167V8.89601H10.9204V9.4096H12.111V9.84133H10.9204V10.4745H12.2742V10.9065H10.4195V8.46371ZM9.41615 5.88099C9.48272 5.79969 9.52181 5.70734 9.56572 5.62122C9.6136 5.53623 9.64221 5.44898 9.66601 5.36683C9.68867 5.28467 9.72238 5.21017 9.73088 5.14048C9.74193 5.07051 9.75212 5.0096 9.75949 4.95946C9.77592 4.85776 9.78499 4.79969 9.78499 4.79969C9.78499 4.79969 9.78867 4.85833 9.79462 4.96088C9.79802 5.01272 9.80113 5.07617 9.80595 5.14841C9.81218 5.2215 9.79632 5.30224 9.79065 5.39289C9.78442 5.48354 9.7745 5.58241 9.74363 5.68326C9.71756 5.78524 9.69547 5.89714 9.64334 6.00195C9.62068 6.05634 9.59688 6.1113 9.5728 6.16711C9.54703 6.22235 9.51133 6.27249 9.48017 6.32632C9.41898 6.4368 9.33909 6.53482 9.25666 6.63312C9.17705 6.7351 9.0779 6.81499 8.98782 6.90535C8.88782 6.98042 8.79348 7.06683 8.69122 7.1283C8.59122 7.19572 8.49207 7.25663 8.39405 7.30705C8.29773 7.36286 8.2017 7.40195 8.11416 7.44388C7.97847 7.50139 7.85836 7.54615 7.75892 7.57844C7.80397 7.68042 7.84306 7.78666 7.87309 7.90025C7.90368 8.01725 7.93144 8.1368 7.93824 8.27334C7.8051 8.24048 7.6932 8.19034 7.5847 8.13765C7.4762 8.08411 7.37649 8.02348 7.28329 7.95833C7.09575 7.8283 6.93428 7.67618 6.78697 7.51272C6.67535 7.38864 6.66034 7.21159 6.73683 7.07334L6.75269 7.04586C6.87677 6.82348 7.02578 6.61584 7.2085 6.42858C7.29887 6.33453 7.39887 6.24643 7.50992 6.16456C7.56686 6.12405 7.62521 6.08496 7.68584 6.04728C7.74844 6.01074 7.81501 5.97646 7.88782 5.94615C7.89518 6.02433 7.8966 6.0994 7.89263 6.17164C7.88782 6.24303 7.88074 6.313 7.87224 6.38212C7.85184 6.51838 7.82096 6.64813 7.77989 6.77221C7.77535 6.78552 7.76997 6.79799 7.76572 6.8113C7.80907 6.80479 7.85439 6.79742 7.9034 6.78864C7.98017 6.76994 8.06714 6.75635 8.15382 6.72802C8.24363 6.70507 8.33484 6.67363 8.4272 6.6368C8.52408 6.60507 8.6102 6.55238 8.7085 6.5096C8.79377 6.45295 8.8949 6.40564 8.97535 6.33708C9.06062 6.27193 9.14674 6.20564 9.21558 6.12518C9.25184 6.08609 9.2932 6.05011 9.32493 6.00875C9.35524 5.96598 9.38555 5.92377 9.41615 5.88099ZM6.12606 6.18212C6.13513 6.09147 6.14759 5.99317 6.18159 5.89317C6.21076 5.79204 6.23598 5.68099 6.29122 5.57759C6.31586 5.52433 6.34079 5.46966 6.36657 5.4147C6.39405 5.36059 6.43145 5.31159 6.46431 5.25861C6.52833 5.14983 6.61161 5.05436 6.69688 4.95861C6.77932 4.85861 6.8813 4.78212 6.97394 4.69431C7.07564 4.62235 7.17252 4.53906 7.27649 4.48042C7.37847 4.41584 7.47932 4.35776 7.57904 4.31045C7.67677 4.25776 7.77422 4.2215 7.86289 4.18212C8 4.12887 8.12181 4.08751 8.2221 4.05804C8.18017 3.95493 8.14419 3.84756 8.11728 3.73312C8.09009 3.61527 8.06601 3.49487 8.06317 3.35804C8.1949 3.39487 8.30567 3.4487 8.41275 3.5045C8.51955 3.56116 8.61728 3.62433 8.7085 3.69289C8.89207 3.82858 9.04901 3.98552 9.1915 4.15323C9.29943 4.28042 9.30878 4.45804 9.22833 4.59374L9.2119 4.62093C9.08074 4.83963 8.92521 5.04246 8.73768 5.22433C8.64419 5.31583 8.54108 5.4011 8.42833 5.47957C8.37026 5.51782 8.31048 5.55521 8.24844 5.59119C8.1847 5.62603 8.11728 5.65804 8.04363 5.68637C8.03881 5.60762 8.03966 5.53255 8.04533 5.46059C8.05269 5.38921 8.06176 5.31952 8.07252 5.25068C8.09717 5.11527 8.13173 4.98637 8.17649 4.86343C8.1813 4.8504 8.18669 4.83793 8.19178 4.8249C8.14816 4.83 8.10283 4.83595 8.05354 4.84331C7.9762 4.85974 7.88867 4.87108 7.80113 4.89657C7.71076 4.91697 7.61898 4.94558 7.52521 4.97957C7.4272 5.00819 7.33938 5.05833 7.23994 5.09827C7.15241 5.15238 7.05099 5.19685 6.96799 5.26286C6.88102 5.32575 6.7932 5.38921 6.72153 5.46768C6.68499 5.50564 6.64249 5.5402 6.60935 5.58099C6.57762 5.62263 6.54618 5.66428 6.5153 5.70507C6.44646 5.78439 6.40453 5.87561 6.35807 5.96059C6.3068 6.04388 6.2762 6.13028 6.24958 6.21187C6.22436 6.29317 6.18867 6.36683 6.1779 6.43623C6.16487 6.50564 6.15326 6.56626 6.14391 6.61612C6.12493 6.71753 6.11416 6.77533 6.11416 6.77533C6.11416 6.77533 6.11218 6.71669 6.10878 6.61385C6.10737 6.56173 6.10538 6.49855 6.10312 6.42603C6.09858 6.35295 6.11728 6.27278 6.12606 6.18212ZM4.65297 11.4362H4.30113V12.3929H4.05892V11.4362H3.70765V11.2303H4.65326L4.65297 11.4362ZM4.2881 10.9065L3.59745 8.46314H4.14136C4.45439 9.8011 4.48555 9.97108 4.52975 10.2498H4.53654C4.58074 9.99459 4.61785 9.74615 4.87677 8.46314H5.41785C5.7034 9.8045 5.72776 9.93368 5.78187 10.2498H5.78867C5.82946 10.0184 5.86997 9.80734 6.18697 8.46314H6.70425L6.01643 10.9065H5.52663C5.27479 9.70875 5.23003 9.47051 5.14873 9.00082H5.14221C5.06686 9.47079 5.02663 9.64728 4.76431 10.9065H4.2881ZM5.50283 12.392C5.48669 12.3374 5.47734 12.2776 5.47734 12.1575C5.47734 11.9994 5.46742 11.9374 5.28754 11.9374H5.03683V12.3923H4.7983V11.2294H5.3864C5.69575 11.2294 5.75212 11.4583 5.75212 11.5586C5.75212 11.6867 5.68725 11.7966 5.57224 11.8357C5.66771 11.8773 5.71983 11.9133 5.71983 12.1303C5.71983 12.3 5.71983 12.3425 5.77139 12.3614L5.77167 12.392H5.50283ZM6.68612 12.3929L6.61133 12.1532H6.18244L6.1017 12.3929H5.84561L6.26006 11.2303H6.54051L6.94986 12.3929H6.68612ZM6.97479 8.46314H7.48499V10.9065H6.97479V8.46314ZM7.79943 12.3929L7.32521 11.564H7.32181V12.3929H7.09547V11.2303H7.35099L7.81303 12.0396H7.81586V11.2303H8.04249L8.04278 12.3929H7.79943ZM8.71445 12.4241C8.29008 12.4241 8.21756 12.1793 8.21756 12.0354H8.44986C8.45156 12.1003 8.48414 12.2232 8.6966 12.2232C8.81105 12.2232 8.93938 12.1957 8.93938 12.0728C8.93938 11.9818 8.85213 11.9578 8.72861 11.9286L8.60425 11.8994C8.41615 11.8558 8.23513 11.8136 8.23513 11.5575C8.23513 11.428 8.30425 11.1997 8.68159 11.1997C9.03796 11.1997 9.13314 11.4328 9.13484 11.5753H8.90255C8.89518 11.5238 8.87649 11.4005 8.66402 11.4005C8.57224 11.4005 8.46147 11.4342 8.46147 11.5396C8.46147 11.6306 8.53626 11.6498 8.58499 11.6612L8.86771 11.7308C9.02691 11.7699 9.17252 11.8348 9.17252 12.0433C9.17252 12.3929 8.81615 12.4241 8.71445 12.4241ZM8.98923 9.95011H8.46204V10.9065H7.96119V8.46286H9.19603C9.84618 8.46286 9.96572 8.94275 9.96572 9.1538C9.96572 9.42292 9.82975 9.65408 9.58782 9.73567C9.78867 9.82433 9.89745 9.89969 9.89745 10.3555C9.89745 10.7127 9.89745 10.8014 10.0065 10.8419V10.9065H9.44221C9.40822 10.7909 9.38782 10.6651 9.38782 10.413C9.38782 10.0796 9.36714 9.9504 8.98923 9.95011ZM10.1853 11.4362H9.60113V11.6986H10.1125V11.9042H9.60113V12.3932H9.35836V11.2306H10.1853V11.4362ZM11.2312 12.3923H10.3487V11.2294H11.2037V11.4357H10.5867V11.6801H11.1533V11.8858H10.5867V12.1869H11.2312V12.3923ZM12.4028 12.3923H12.1346C12.1184 12.3374 12.1091 12.2776 12.1091 12.1575C12.1091 11.9994 12.0986 11.9374 11.9193 11.9374H11.6686V12.3923H11.43V11.2294H12.0176C12.3269 11.2294 12.3839 11.4583 12.3839 11.5586C12.3839 11.6867 12.3181 11.7966 12.2037 11.8357C12.2989 11.8773 12.3513 11.9133 12.3513 12.1303C12.3513 12.3 12.3513 12.3425 12.4025 12.3614H12.4028V12.3923Z" fill="#D9E2E9"/>
<path d="M9.09822 8.88556H8.46252V9.53882H9.06054C9.32627 9.53882 9.45573 9.44703 9.45573 9.20539C9.45573 9.07621 9.39822 8.88556 9.09822 8.88556Z" fill="#D9E2E9"/>
<path d="M11.9703 11.4314H11.6683V11.7424H11.9528C12.0794 11.7424 12.1409 11.6985 12.1409 11.5835C12.1409 11.5218 12.1134 11.4314 11.9703 11.4314Z" fill="#D9E2E9"/>
<path d="M6.39887 11.4929H6.39661L6.24731 11.9527H6.54392L6.39887 11.4929Z" fill="#D9E2E9"/>
<path d="M5.33905 11.4314H5.0365V11.7424H5.32092C5.44755 11.7424 5.50902 11.6988 5.50902 11.5835C5.50902 11.5218 5.48126 11.4314 5.33905 11.4314Z" fill="#D9E2E9"/>
</svg>
