<svg width="16" height="16" viewBox="0 0 16 16" fill="none" xmlns="http://www.w3.org/2000/svg">
<path fill-rule="evenodd" clip-rule="evenodd" d="M12.7143 5.53333L14.0571 5.28058V10.2771H12.7145V5.53333H12.7143ZM14.6572 5.53333V10.2771H16V5.28058L14.6572 5.53333ZM10.8288 10.2771H12.1714V6.6278H10.8291V10.2769L10.8288 10.2771ZM2.02872 7.1333C1.85713 7.1333 1.45714 7.10524 1.45714 6.76832C1.45714 6.34746 2.02849 6.34746 2.22861 6.34746C2.59985 6.34746 3.08564 6.45969 3.42859 6.54386C3.42859 6.54386 3.62847 6.59998 3.77131 6.68415H3.79983V5.56138H3.77131C3.37131 5.4211 2.88552 5.28081 2.02849 5.28081C0.542833 5.28081 0 6.15082 0 6.88078C0 7.30165 0.171592 8.28413 1.91418 8.39636C2.05701 8.39636 2.45701 8.42441 2.45701 8.78939C2.45701 9.06997 2.14281 9.26661 1.59998 9.26661C1.02862 9.26661 0.457037 9.12632 0.114317 8.98603V10.1649C0.599875 10.2771 1.19998 10.3333 1.85713 10.3333C3.31427 10.3333 3.97142 9.51935 3.97142 8.73328C3.99994 7.80692 3.25723 7.21748 2.02849 7.1333H2.02872ZM10.0857 6.57192C8.85692 6.59998 8.22829 7.16136 8.22829 8.22801V10.2771H9.57134V8.59299C9.57134 7.94744 9.65714 7.66663 10.4284 7.63857V6.59998C10.2855 6.57192 10.0857 6.57192 10.0857 6.57192ZM6.45695 6.62803C6.42843 6.71221 6.22855 7.30165 5.68571 7.89109V5.28081L4.34289 5.56138V10.2771H5.71424V8.81745C6.11423 9.40689 6.31411 10.2771 6.31411 10.2771H7.97136C7.79977 9.60353 7.08558 8.39659 7.08558 8.39659C7.71397 7.61051 7.99988 6.76832 8.02841 6.62803H6.45695ZM11.4855 6.29111C11.857 6.29111 12.1427 6.01054 12.1427 5.64556C12.1427 5.28081 11.857 5 11.4855 5C11.114 5 10.8284 5.28058 10.8284 5.64556C10.8284 5.98248 11.1428 6.29111 11.4855 6.29111Z" fill="#D9E2E9"/>
</svg>
