<svg width="16" height="16" viewBox="0 0 16 16" fill="none" xmlns="http://www.w3.org/2000/svg">
<g clip-path="url(#clip0)">
<path d="M12.7029 10.7597C12.7442 11.0698 12.6512 11.2042 12.5478 11.2042C12.4445 11.2042 12.2998 11.0802 12.1447 10.8321C11.9897 10.584 11.9277 10.305 12.0104 10.1603C12.0621 10.0672 12.1654 10.0259 12.3101 10.0776C12.5685 10.1706 12.6719 10.5737 12.7029 10.7597Z" fill="#D9E2E9"/>
<path d="M11.2352 11.4419C11.5556 11.7106 11.6486 12.0311 11.4833 12.2481C11.3903 12.3721 11.2352 12.4342 11.0595 12.4342C10.8838 12.4342 10.6977 12.3721 10.5737 12.2585C10.2843 12.0104 10.2016 11.5969 10.3877 11.3696C10.46 11.2765 10.5841 11.2249 10.7184 11.2249C10.8941 11.2352 11.0802 11.3075 11.2352 11.4419Z" fill="#D9E2E9"/>
<path d="M10.708 14.0259C12.0724 14.0259 13.5504 14.491 15.1835 15.9484C15.3488 16.0931 15.5659 15.9174 15.4212 15.7313C13.8088 13.6951 12.3204 13.3127 10.8424 12.982C9.03359 12.5789 8.09302 11.5659 7.44186 10.4393C7.30749 10.2119 7.25581 10.2533 7.24548 10.5427C7.23514 10.8941 7.25581 11.3592 7.3385 11.814C7.26615 11.814 7.1938 11.814 7.12145 11.814C4.52713 11.814 2.4186 9.70547 2.4186 7.11115C2.4186 4.51684 4.52713 2.40831 7.12145 2.40831C9.71576 2.40831 11.8243 4.51684 11.8243 7.11115C11.8243 7.2972 11.814 7.48324 11.7933 7.65896C11.4522 7.59694 10.77 7.5866 10.2946 7.62795C10.1189 7.63828 10.1395 7.73131 10.2739 7.75198C11.8243 8.03105 12.8992 8.99229 13.137 10.7494C13.1473 10.7907 13.199 10.8011 13.2196 10.7701C13.8605 9.70547 14.2222 8.45482 14.2222 7.12149C14.2222 3.19384 11.0388 0.010376 7.11111 0.010376C3.18346 0.010376 0 3.1835 0 7.11115C0 11.0388 3.18346 14.2223 7.11111 14.2223C8.15504 14.2326 9.18863 14.0259 10.708 14.0259Z" fill="#D9E2E9"/>
</g>
<defs>
<clipPath id="clip0">
<path d="M0 0H16V16H0V0Z" fill="white"/>
</clipPath>
</defs>
</svg>
