<svg width="14" height="14" viewBox="0 0 14 14" fill="none" xmlns="http://www.w3.org/2000/svg">
<path d="M9.66671 8.33336C9.66671 8.70155 9.36823 9.00003 9.00004 9.00003C8.63185 9.00003 8.33337 8.70155 8.33337 8.33336C8.33337 7.96517 8.63185 7.6667 9.00004 7.6667C9.36823 7.6667 9.66671 7.96517 9.66671 8.33336Z" fill="#D9E2E9"/>
<path fill-rule="evenodd" clip-rule="evenodd" d="M8.77221 0.373502C9.09045 0.25778 9.44489 0.399013 9.59632 0.701889L10.7454 3.00003H11C11.3515 3.00003 11.6963 3.12011 11.9548 3.37863C12.2133 3.63715 12.3334 3.98187 12.3334 4.33336V5.6667H13C13.3682 5.6667 13.6667 5.96517 13.6667 6.33336V10.3334C13.6667 10.7016 13.3682 11 13 11H12.3334V12.3334C12.3334 12.6849 12.2133 13.0296 11.9548 13.2881C11.6963 13.5466 11.3515 13.6667 11 13.6667H1.66671C1.31521 13.6667 0.970489 13.5466 0.711969 13.2881C0.45345 13.0296 0.333374 12.6849 0.333374 12.3334V4.33336C0.333374 3.98187 0.45345 3.63715 0.711969 3.37863C0.937624 3.15297 1.22896 3.0328 1.53314 3.00589L8.77221 0.373502ZM12.3334 9.6667V7.00003H9.00004C8.2349 7.00003 7.66671 7.56822 7.66671 8.33336C7.66671 9.09851 8.2349 9.6667 9.00004 9.6667H12.3334ZM11 5.6667H9.00004C7.49852 5.6667 6.33337 6.83184 6.33337 8.33336C6.33337 9.83489 7.49852 11 9.00004 11H11V12.3334H1.66671V4.33355L1.68229 4.33336H10.3199C10.3292 4.33356 10.3385 4.33356 10.3479 4.33336H11V5.6667ZM8.66947 1.82961L9.25468 3.00003H5.45083L8.66947 1.82961Z" fill="#D9E2E9"/>
</svg>
