<svg width="16" height="16" viewBox="0 0 16 16" fill="none" xmlns="http://www.w3.org/2000/svg">
<g clip-path="url(#clip0)">
<path d="M8.00607 -0.000119175C3.58751 -0.00383792 0.00359958 3.57513 -0.000119175 7.99369C-0.00383792 12.4123 3.57513 15.9962 7.99369 15.9999C12.4117 15.9962 15.9931 12.4178 15.9999 7.99988C15.9999 3.58379 12.4222 0.00359958 8.00607 -0.000119175ZM7.99369 14.6686C4.31072 14.6686 1.32497 11.6828 1.32497 7.99988C1.32497 4.31691 4.31072 1.33116 7.99369 1.33116C11.6754 1.33488 14.6587 4.31816 14.6624 7.99988C14.6624 11.6828 11.6767 14.6686 7.99369 14.6686Z" fill="#D9E2E9"/>
<path d="M10.1548 7.60992C10.6898 7.30836 10.979 6.70467 10.8793 6.09908C10.7555 5.16411 9.64093 4.81114 8.76165 4.73686V3.3313H7.89477V4.72449H7.31274V3.3313H6.44587V4.72449H4.69971V5.62233H5.34986C5.6409 5.62233 5.7833 5.70902 5.7833 5.9443V9.80189C5.7833 10.1239 5.6223 10.223 5.44893 10.223H4.78639V11.1394H6.47062V12.5635H7.34368V11.1394H7.92571V12.5635H8.77402V11.1394H8.95978C10.7431 11.1394 11.3375 10.2663 11.3375 9.07746C11.3232 8.37649 10.8372 7.77339 10.1548 7.60992ZM7.31271 5.67805H7.9319C8.36534 5.67805 9.21984 5.75236 9.21984 6.45824C9.24956 6.91892 8.91581 7.32264 8.45821 7.38083H7.31271V5.67805ZM8.27246 10.1362V10.13H7.31271V8.27245H8.42727C8.68734 8.27245 9.66565 8.35914 9.66565 9.05264C9.66565 9.74614 9.20127 10.1362 8.27246 10.1362Z" fill="#D9E2E9"/>
</g>
<defs>
<clipPath id="clip0">
<path d="M0 0H16V16H0V0Z" fill="white"/>
</clipPath>
</defs>
</svg>
