<svg width="16" height="16" viewBox="0 0 16 16" fill="none" xmlns="http://www.w3.org/2000/svg">
<path fill-rule="evenodd" clip-rule="evenodd" d="M7.97053 0C9.22137 0 10.4073 0.288152 11.4622 0.800056C11.6275 0.878096 11.7934 0.963777 11.9588 1.05874L11.2253 1.70817L10.1235 0.581213L8.2625 2.2228L7.15792 1.02927L3.69248 4.12143L5.91364 6.54506L5.041 7.30473L7.22941 9.73164L6.3606 10.4902L9.48823 13.9355L11.3443 12.2448L12.9493 14.0566C12.6166 14.3121 12.2657 14.5428 11.8993 14.747C10.7005 15.4239 9.34673 15.7787 7.96998 15.7768C3.58005 15.7768 0 12.2333 0 7.88922C0.00054574 3.54294 3.5806 0 7.97053 0Z" fill="#D9E2E9"/>
<path fill-rule="evenodd" clip-rule="evenodd" d="M8.41302 5.70024L6.51766 7.38931L8.22419 9.26501L10.1195 7.57595L8.41302 5.70024ZM9.76045 8.94139L7.86564 10.6299L9.57217 12.5062L11.4675 10.8171L9.76045 8.94139ZM7.05685 2.49729L5.1615 4.18581L6.86803 6.06261L8.76284 4.373L7.05685 2.49729ZM10.0606 2.01049L8.6395 3.27661L9.9198 4.68462L11.3404 3.41796L10.0606 2.01049ZM12.5868 7.81225L11.1646 9.08001L12.4455 10.4853L13.8655 9.21917L12.5868 7.81225ZM13.836 10.6534L12.4155 11.9206L13.6952 13.3264L15.1163 12.0597L13.836 10.6534ZM13.9354 4.56347L12.9874 5.40718L13.8415 6.34531L14.7884 5.50159L13.9354 4.56347ZM12.7249 1.77692L11.7775 2.62172L12.6305 3.55876L13.5779 2.71504L12.7249 1.77692ZM15.1469 7.35056L14.1995 8.19427L15.0525 9.13131L15.9999 8.28705L15.1469 7.35056ZM11.3709 4.83906L9.94927 6.10682L11.2307 7.51264L12.6501 6.24598L11.3709 4.83906Z" fill="#D9E2E9"/>
</svg>
