<svg width="16" height="16" viewBox="0 0 16 16" fill="none" xmlns="http://www.w3.org/2000/svg">
<rect y="4" width="16" height="9" rx="1" fill="#D9E2E9"/>
<path d="M14.9663 7.577C14.7666 7.58026 14.5668 7.58193 14.3671 7.58277C14.3416 7.58285 14.3307 7.59037 14.3234 7.61492C14.2842 7.7483 14.2429 7.88109 14.2022 8.01405C14.1368 8.22802 14.0714 8.4419 14.0057 8.65687C13.9915 8.64451 13.99 8.62831 13.9851 8.61428C13.8698 8.28773 13.7545 7.96118 13.641 7.63404C13.6296 7.60156 13.6165 7.58911 13.5799 7.58961C13.376 7.59279 13.172 7.59287 12.9679 7.59387C12.8917 7.59421 12.9013 7.59321 12.9301 7.65409C13.1702 8.16129 13.4106 8.66832 13.6507 9.17551C13.6583 9.19163 13.6688 9.20708 13.6606 9.22679C13.6182 9.32944 13.5563 9.4117 13.4379 9.43417C13.3993 9.44151 13.36 9.44435 13.3205 9.44469C13.0363 9.44661 12.7522 9.44886 12.468 9.4512C11.7688 9.45688 11.0697 9.46281 10.3705 9.46849C10.1722 9.47008 9.97384 9.47183 9.77545 9.47183C9.74363 9.47183 9.72851 9.47885 9.7221 9.5125C9.7004 9.62575 9.67643 9.73867 9.65025 9.851C9.64257 9.88399 9.65312 9.88766 9.68191 9.88699C9.77891 9.88457 9.876 9.88407 9.97308 9.88323C10.6554 9.87747 11.3376 9.87179 12.0199 9.8662C12.5067 9.86219 12.9934 9.85818 13.4801 9.85467C13.5646 9.85409 13.6486 9.84991 13.7325 9.8388C13.9498 9.80991 14.1185 9.71019 14.2235 9.51451C14.2566 9.45304 14.287 9.39065 14.3128 9.32584C14.5395 8.75568 14.7659 8.18534 14.9934 7.6155C15.0068 7.58235 15.0006 7.57642 14.9663 7.577Z" fill="white"/>
<path d="M8.96832 9.8898C9.1511 9.88763 9.33387 9.88488 9.51673 9.88371C9.54399 9.88354 9.55522 9.87561 9.56155 9.84813C9.59313 9.70999 9.6274 9.57244 9.66075 9.43464C9.68852 9.31997 9.7163 9.20538 9.74433 9.08963C9.99641 9.25591 10.0898 9.28965 10.3423 9.26919C10.6172 9.24689 10.8279 9.11443 10.9349 8.85887C11.0533 8.5765 11.0413 8.28812 10.9217 8.00675C10.8639 7.87095 10.7738 7.75845 10.6459 7.67786C10.4249 7.53847 9.98898 7.52753 9.76104 7.77775C9.73825 7.80272 9.71469 7.82702 9.69148 7.85158C9.68751 7.84966 9.68363 7.84773 9.67966 7.84581C9.67966 7.78334 9.67873 7.72087 9.68008 7.65849C9.68067 7.63276 9.67468 7.62124 9.64538 7.62207C9.54982 7.62466 9.45417 7.62466 9.35852 7.62566C9.35953 7.65013 9.38275 7.6488 9.39702 7.65631C9.48676 7.70409 9.53673 7.77449 9.53142 7.87847C9.52905 7.92457 9.52154 7.96984 9.50778 8.01377C9.4643 8.15249 9.39718 8.2816 9.33387 8.41164C9.24295 8.59838 9.15076 8.78463 9.05097 8.96703C9.00614 9.04896 8.96655 9.13373 8.92409 9.21691C8.91708 9.23069 8.91058 9.24447 8.91092 9.26034C8.85908 9.46679 8.80725 9.67324 8.75541 9.8797C8.75313 9.88538 8.75085 9.89106 8.74866 9.89673L8.96832 9.8898ZM9.76113 8.23417C9.80216 8.11282 9.9092 8.0374 10.0394 8.03773C10.1575 8.03799 10.263 8.11365 10.3002 8.23241C10.3421 8.36579 10.3406 8.50142 10.2993 8.63471C10.2682 8.73502 10.175 8.80542 10.0758 8.81118C9.94458 8.81878 9.842 8.77126 9.77919 8.65409C9.7407 8.58235 9.73344 8.50326 9.73529 8.42316C9.73403 8.35877 9.74044 8.29547 9.76113 8.23417Z" fill="white"/>
<path d="M13.0968 9.19098C13.0351 9.08499 13.0198 8.96966 13.0196 8.84939C13.0194 8.61563 13.0218 8.38153 13.011 8.14819C12.9959 7.82172 12.8238 7.65068 12.5437 7.6009C12.2511 7.54887 11.9559 7.55171 11.6618 7.59405C11.5313 7.61285 11.4079 7.6521 11.2998 7.73177C11.1924 7.81095 11.1361 7.9196 11.1047 8.04438C11.1005 8.06116 11.1006 8.07344 11.1242 8.07536C11.3244 8.09198 11.5247 8.1091 11.7248 8.12714C11.7484 8.12923 11.7562 8.11837 11.7641 8.09983C11.7942 8.02984 11.8427 7.9789 11.9195 7.95844C12.0074 7.93505 12.0965 7.92645 12.1867 7.94006C12.2917 7.95593 12.327 7.99301 12.343 8.09524C12.3478 8.12622 12.3403 8.14101 12.308 8.15261C12.1063 8.22536 11.8955 8.25985 11.6863 8.30136C11.5458 8.32925 11.4044 8.35389 11.2756 8.42079C11.1064 8.50865 11.0192 8.68762 11.0577 8.87328C11.0979 9.06629 11.2301 9.17302 11.4117 9.22714C11.5638 9.27249 11.72 9.26982 11.876 9.25228C12.0561 9.23207 12.2196 9.17102 12.3583 9.05192C12.3682 9.0434 12.3755 9.02912 12.3935 9.03096C12.4033 9.08742 12.4197 9.14145 12.4495 9.1914C12.4627 9.21336 12.4774 9.22096 12.503 9.22063C12.6507 9.21845 12.7984 9.21812 12.9462 9.21729C12.9979 9.21703 13.0497 9.2172 13.1061 9.2172C13.1013 9.20342 13.1001 9.19657 13.0968 9.19098ZM12.3432 8.63643C12.3322 8.72095 12.2901 8.78801 12.2183 8.83553C12.109 8.90786 11.9897 8.934 11.861 8.90293C11.7894 8.88564 11.7439 8.83319 11.7374 8.77089C11.7305 8.70399 11.7633 8.6467 11.8297 8.61137C11.8669 8.59158 11.9066 8.57738 11.947 8.56535C12.0761 8.52719 12.2082 8.49896 12.336 8.45611C12.3382 8.45536 12.3411 8.45703 12.3462 8.45812C12.3478 8.51725 12.351 8.57705 12.3432 8.63643Z" fill="white"/>
<path d="M3.29658 8.11168C3.37948 8.11326 3.46255 8.10992 3.54546 8.11101C3.57154 8.11134 3.58556 8.10316 3.59763 8.08044C3.66525 7.95241 3.73439 7.82513 3.80303 7.6976C3.82565 7.65551 3.82557 7.65559 3.77601 7.65567C3.68686 7.65584 3.59763 7.65567 3.50341 7.65567C3.53246 7.59947 3.55896 7.54777 3.59662 7.50267C3.65132 7.43711 3.72021 7.39961 3.80767 7.39711C3.86828 7.39535 3.92865 7.39644 3.98842 7.40721C4.01653 7.41231 4.03443 7.40462 4.05156 7.38074C4.12645 7.27642 4.20378 7.17387 4.27959 7.07022C4.28719 7.05987 4.30137 7.05143 4.29656 7.03364C4.11767 7.01452 3.93861 6.99781 3.75837 7.00023C3.32664 7.006 2.8949 7.01151 2.46317 7.01744C2.08766 7.02253 1.71224 7.02805 1.33673 7.03331C1.28034 7.03331 1.22386 7.03331 1.16747 7.03331C1.19313 7.03982 2.48377 7.17554 3.10233 7.23959C3.0651 7.31559 3.00524 7.33973 2.92833 7.32946C2.92285 7.32871 2.91711 7.32946 2.91145 7.32946C2.1308 7.33572 1.35007 7.34207 0.569424 7.34833C0.553806 7.3485 0.538188 7.34833 0.52257 7.34833C0.658996 7.37071 0.79559 7.38516 0.9321 7.39928C1.18511 7.42542 1.43821 7.45131 1.69122 7.47745C1.97775 7.5071 2.26436 7.537 2.55088 7.56681C2.64037 7.57608 2.72977 7.58569 2.81935 7.59437C2.8445 7.59679 2.84602 7.60364 2.83707 7.62745C2.82163 7.66887 2.79005 7.66361 2.75806 7.66386C2.69474 7.66436 2.62273 7.64707 2.57072 7.67138C2.51821 7.69593 2.50496 7.7731 2.47524 7.82755C2.46233 7.85119 2.44688 7.8567 2.42189 7.85678C2.1574 7.85762 1.89299 7.86004 1.62849 7.86104C1.44023 7.86179 1.25189 7.86121 1.06354 7.86121C1.06338 7.86505 1.06321 7.86881 1.06304 7.87265C1.564 7.95458 2.06487 8.03643 2.56895 8.11886C2.56042 8.13564 2.55181 8.14859 2.547 8.1627C2.53257 8.20555 2.50513 8.21774 2.4587 8.21783C2.07188 8.21858 1.68506 8.2225 1.29824 8.22568C0.88896 8.22902 0.479599 8.23261 0.0703233 8.23603C0.0469385 8.23603 0.0235536 8.23603 0.000168843 8.23603C8.44217e-05 8.23812 8.44217e-05 8.24012 0 8.24221C0.0260863 8.24472 0.052257 8.24722 0.0783433 8.24964C0.130009 8.25549 0.181591 8.26167 0.233341 8.26702C0.568833 8.30151 0.904325 8.33558 1.23982 8.37033C1.6046 8.40816 1.9693 8.44691 2.33417 8.48399C2.36431 8.48708 2.37005 8.49168 2.35477 8.51965C2.25195 8.7079 2.15014 8.89665 2.049 9.08573C2.03845 9.10544 2.02696 9.11321 2.00383 9.11329C1.64099 9.1153 1.27806 9.1183 0.915215 9.12114C0.799642 9.12114 0.684153 9.12114 0.558365 9.12114C0.608596 9.13066 0.617038 9.12966 0.662288 9.13534C0.705765 9.13843 0.749242 9.14127 0.792719 9.14453C1.06608 9.16491 1.33943 9.18512 1.61271 9.20574C1.93511 9.23005 2.25752 9.25402 2.57976 9.27991C2.61538 9.28275 2.63109 9.27105 2.64696 9.24141C2.84231 8.87686 3.03943 8.51331 3.23495 8.14884C3.24964 8.1222 3.26535 8.11109 3.29658 8.11168Z" fill="white"/>
<path d="M6.99237 8.27586C6.89427 8.23961 6.79145 8.22424 6.68845 8.20988C6.57727 8.19434 6.46431 8.18992 6.35541 8.15969C6.27411 8.13714 6.25984 8.0892 6.31404 8.02497C6.31945 8.01854 6.32536 8.01261 6.33143 8.00685C6.41602 7.92692 6.60682 7.89611 6.7131 7.94521C6.76435 7.96885 6.78545 8.00109 6.77828 8.05855C6.77482 8.08627 6.78621 8.08477 6.80496 8.08302C7.01213 8.06347 7.21921 8.04393 7.42638 8.02472C7.44352 8.02314 7.45374 8.01913 7.45678 7.99875C7.4859 7.80574 7.39397 7.66919 7.20115 7.62359C7.07848 7.59461 6.95286 7.59603 6.84945 7.59277C6.72923 7.59294 6.63096 7.59812 6.53303 7.60856C6.30425 7.63303 6.09049 7.69942 5.90282 7.83522C5.7718 7.93001 5.66737 8.04677 5.61655 8.20236C5.56446 8.3618 5.63208 8.49158 5.79223 8.5447C5.92857 8.58996 6.07066 8.61043 6.21156 8.6359C6.28475 8.64909 6.35879 8.65953 6.42894 8.68517C6.48635 8.70614 6.49986 8.74397 6.47149 8.79725C6.44971 8.83809 6.41577 8.86674 6.37576 8.88862C6.26846 8.94742 6.15364 8.96537 6.03334 8.94591C5.93837 8.93054 5.89894 8.88177 5.90612 8.78706C5.9084 8.75658 5.90198 8.74973 5.87176 8.75265C5.67725 8.77128 5.48249 8.78731 5.28798 8.80636C5.19259 8.81563 5.19284 8.81771 5.18043 8.91175C5.16135 9.05674 5.23235 9.17608 5.36936 9.2302C5.41791 9.24933 5.46822 9.26202 5.51964 9.27004C5.74217 9.30495 5.96547 9.30311 6.18834 9.27639C6.42033 9.24858 6.63848 9.17826 6.83087 9.04388C6.97506 8.94316 7.09984 8.82323 7.1656 8.65594C7.23492 8.47955 7.17118 8.34192 6.99237 8.27586Z" fill="white"/>
<path d="M5.45218 8.21952C5.49161 8.14677 5.52141 8.07086 5.53779 7.98985C5.57401 7.81062 5.50562 7.69979 5.32766 7.65018C5.31416 7.64642 5.30039 7.64359 5.28663 7.64083C5.19546 7.62204 5.10276 7.61711 5.01007 7.61293C4.76482 7.60191 4.52059 7.60993 4.28083 7.66714C4.0025 7.73353 3.77819 7.88169 3.60605 8.11779C3.809 8.137 4.00629 8.15546 4.20342 8.17467C4.22039 8.17634 4.22959 8.16774 4.23888 8.15721C4.37758 8.00054 4.55892 7.9678 4.75647 7.98442C4.81565 7.98943 4.84561 8.01356 4.84857 8.0524C4.85296 8.11019 4.81396 8.18135 4.77107 8.19488C4.53351 8.27004 4.28759 8.30763 4.0431 8.35106C3.87975 8.38004 3.71656 8.40952 3.56435 8.47783C3.3516 8.57329 3.19348 8.72346 3.11531 8.94453C3.06069 9.09903 3.12806 9.22631 3.2828 9.27792C3.30534 9.28544 3.32856 9.29187 3.35203 9.29546C3.60968 9.33563 3.85864 9.30123 4.10009 9.20719C4.18898 9.17253 4.2718 9.12551 4.35529 9.0784C4.36289 9.09828 4.35133 9.11298 4.34618 9.12793C4.33318 9.16559 4.33132 9.20393 4.33191 9.2431C4.33225 9.26206 4.3374 9.26999 4.35842 9.26974C4.55529 9.26707 4.75216 9.26523 4.94912 9.26356C4.96592 9.26339 4.9752 9.25972 4.9747 9.24051C4.97115 9.12033 5.02147 9.01643 5.07685 8.91413C5.20213 8.6827 5.32673 8.45094 5.45218 8.21952ZM4.13597 8.94486C4.07265 8.96106 4.00866 8.96716 3.94382 8.96081C3.85256 8.95187 3.81871 8.893 3.85805 8.8114C3.89384 8.73707 3.95682 8.69164 4.03095 8.6604C4.14787 8.61121 4.27281 8.58983 4.39539 8.56052C4.47247 8.54206 4.54929 8.52226 4.62874 8.50247C4.53672 8.73289 4.37699 8.88314 4.13597 8.94486Z" fill="white"/>
<path d="M9.35879 7.62554C9.22743 7.59097 9.09286 7.58337 8.95795 7.57886C8.71533 7.57076 8.47523 7.58712 8.23792 7.64199C7.97554 7.70263 7.79235 7.85012 7.70244 8.10484C7.68243 8.16147 7.68927 8.17809 7.74701 8.19863C7.81539 8.22302 7.88664 8.22878 7.95891 8.22578C8.03041 8.22285 8.08656 8.20623 8.11129 8.12489C8.14042 8.02926 8.20829 7.95911 8.30934 7.93723C8.50444 7.89488 8.70157 7.8639 8.9024 7.86858C8.96707 7.87008 9.03182 7.87609 9.09185 7.9029C9.14968 7.92871 9.1739 7.9693 9.16149 8.02575C9.14469 8.102 9.09421 8.15938 9.04254 8.2145C9.01612 8.24265 8.97653 8.23146 8.94276 8.23713C8.92756 8.23972 8.91211 8.24139 8.89666 8.24231C8.64965 8.25659 8.40246 8.26804 8.1557 8.28557C7.95309 8.29994 7.75453 8.33886 7.56703 8.41895C7.32575 8.52201 7.17354 8.70591 7.10077 8.95187C7.06379 9.07664 7.12905 9.18446 7.25188 9.23098C7.30878 9.25253 7.36838 9.2633 7.42841 9.26907C7.78762 9.30348 8.14734 9.29888 8.50723 9.28235C8.64188 9.27617 8.77636 9.26773 8.91093 9.26038C8.91524 9.25495 8.92072 9.25003 8.92376 9.24393C9.07361 8.93842 9.24144 8.64177 9.38268 8.33209C9.43384 8.21993 9.49673 8.11228 9.52535 7.99093C9.56697 7.81471 9.54392 7.70847 9.35879 7.62554ZM8.50731 8.57204C8.49195 8.62165 8.46156 8.66115 8.42027 8.6918C8.39883 8.70767 8.38726 8.72437 8.38363 8.75243C8.36658 8.8818 8.34573 9.01075 8.32724 9.13995C8.32454 9.15883 8.32142 9.17018 8.29795 9.1701C8.16448 9.16968 8.03101 9.17068 7.89745 9.17094C7.89526 9.17094 7.89306 9.1686 7.88757 9.16542C7.92413 9.1002 7.96068 9.03497 7.99732 8.96983C8.03962 8.89458 8.08174 8.81933 8.12438 8.74425C8.13425 8.72688 8.14033 8.7131 8.12792 8.69172C8.10774 8.65689 8.11568 8.61922 8.13071 8.58323C8.17216 8.48376 8.29128 8.41018 8.4001 8.41711C8.48638 8.42271 8.53281 8.48961 8.50731 8.57204Z" fill="white"/>
</svg>
