<svg width="105" height="114" viewBox="0 0 105 114" fill="none" xmlns="http://www.w3.org/2000/svg">
<path d="M102.045 84.7128L71.9971 2.09565C71.9971 2.09565 69.4706 -1.92681 60.8286 1.17399C54.0616 3.60558 0 23.3196 0 23.3196L32.6691 113.089L94.6852 90.5137C101.542 88.2279 104.695 91.7912 104.695 91.7912L102.045 84.7128Z" fill="#C08C9D"/>
<path d="M64.7144 47.2156C64.1166 44.4979 63.2552 40.723 62.482 37.3594C61.7135 39.452 56.122 41.0781 49.3278 41.0781C42.5359 41.0781 36.942 39.4528 36.176 37.3594C35.4035 40.723 34.5429 44.4979 33.9427 47.2156C32.8497 52.1861 30.9138 58.3132 35.9868 61.5535C41.6296 65.16 47.4912 65.9085 49.1787 70.1906C49.2324 70.3285 49.4271 70.3285 49.48 70.1906C51.1683 65.9077 57.0275 65.16 62.6743 61.5535C67.7457 58.3132 65.8098 52.1861 64.7144 47.2156Z" fill="white"/>
<path d="M61.6569 89.6409C61.6569 92.1198 56.1359 94.129 49.3305 94.129C42.5194 94.129 37 92.1198 37 89.6409C37 87.1612 42.5194 85.1504 49.3305 85.1504C56.1359 85.1512 61.6569 87.162 61.6569 89.6409Z" fill="#4B333B"/>
<path d="M27.0889 25.2321L49.3299 33.3292L71.5676 25.2321L49.3299 17.1367L27.0889 25.2321Z" fill="#4B333B"/>
<path d="M40.647 48.9452C40.9507 48.6134 41.1414 48.179 41.1414 47.6973C41.1414 46.9215 40.659 46.2571 39.9747 45.9758V34.8638L38.5115 34.3252V45.975C37.8256 46.2571 37.344 46.9215 37.344 47.6973C37.344 48.179 37.5339 48.6142 37.8384 48.9452L36.1934 51.7454C36.1934 51.7454 37.3496 52.4387 39.3385 52.4387C41.3257 52.4387 42.2913 51.7454 42.2913 51.7454L40.647 48.9452Z" fill="#4B333B"/>
</svg>
