<svg width="318" height="125" viewBox="0 0 318 125" fill="none" xmlns="http://www.w3.org/2000/svg">
<path d="M128.064 43.9081L137.586 69.4719L133.874 70.4665L130.162 60.4957C129.151 57.5544 128.232 54.8687 127.388 52.1638L127.209 52.131C127.223 54.3742 127.192 56.9549 127.165 59.5323L127.042 65.9503L123.296 66.9537L118.847 61.7612C117.079 59.663 115.307 57.5664 113.797 55.7247L113.673 55.8377C114.779 58.4712 115.884 61.108 117.047 64.0108L120.76 73.9808L117.052 74.9738L107.531 49.4101L111.391 48.377L119.674 57.5632C120.82 58.8639 122.63 61.0679 123.476 62.1282L123.626 62.0866C123.602 60.8058 123.59 58.1218 123.646 56.4981L124.203 44.9396L128.064 43.9081ZM133.31 42.5016L137.019 41.507L141.182 52.6816C141.862 54.5081 142.95 57.8725 143.516 60.1711L143.657 60.2136C143.682 58.8423 143.689 56.8715 143.841 55.1829L144.96 39.3792L148.823 38.3477L158.341 63.9106L154.634 64.9036L150.482 53.7659C149.762 51.8296 148.635 48.3554 148.032 46.1883L147.894 46.1442C147.895 47.5892 147.879 49.7643 147.774 51.3584L146.651 67.0427L142.83 68.0661L133.31 42.5016ZM168.492 33.0726L178.014 58.6379L174.228 59.6518L166 37.5551L160.455 39.0426C162.854 46.593 164.692 52.5277 165.335 55.6878C166.388 60.5085 164.737 62.5995 161.101 63.5716L159.849 60.212C161.498 59.7704 161.956 58.5634 161.386 55.8232C160.808 53.047 159.009 47.2229 155.529 36.546L168.492 33.0726ZM188.164 27.8007L197.684 53.3652L193.9 54.3814L185.673 32.284L180.125 33.7714C182.525 41.3211 184.366 47.255 185.008 50.4159C186.06 55.2374 184.406 57.3268 180.773 58.3005L179.521 54.9393C181.17 54.5001 181.628 53.2931 181.059 50.5505C180.478 47.7743 178.68 41.9518 175.199 31.2749L188.164 27.8007ZM214.864 44.946L216.155 48.4155L202.931 51.9603L193.409 26.3973L206.26 22.9503L207.552 26.4214L198.484 28.8514L201.243 36.2647L209.6 34.0247L210.864 37.4228L202.511 39.6621L205.42 47.4762L214.864 44.946ZM232.027 36.3713C233.795 41.1183 231.358 44.8627 226.749 46.1001C221.728 47.4465 217.478 44.7681 215.648 40.518L219.471 39.493C220.461 41.7178 222.583 43.3183 225.394 42.5673C227.866 41.9037 229.131 39.8785 228.138 37.2112C227.104 34.435 224.649 33.4877 221.875 34.2307L219.891 34.7612L218.669 31.4737L220.317 31.0321C223.052 30.3004 224.2 28.627 223.168 25.8515C222.297 23.5129 220.47 22.4782 218.147 23.0978C215.411 23.8311 214.978 25.8764 215.778 28.4731L212.032 29.4757C210.553 24.7319 211.956 20.8625 216.824 19.5562C221.321 18.3508 225.301 20.2951 227.002 24.8626C228.007 27.5642 227.625 29.636 225.196 31.4136C228.908 31.4224 230.928 33.41 232.027 36.3713ZM228.591 16.9651L232.304 15.9729L236.466 27.1451C237.145 28.9732 238.231 32.3368 238.799 34.6362L238.94 34.6787C238.964 33.3066 238.972 31.335 239.126 29.6472L240.246 13.8451L244.105 12.808L253.623 38.3741L249.917 39.3655L245.767 28.2286C245.047 26.2939 243.916 22.8205 243.317 20.6518L243.176 20.6077C243.179 22.0551 243.162 24.227 243.055 25.8219L241.936 41.5062L238.113 42.5288L228.591 16.9651ZM269.883 5.90112L279.405 31.4657L275.696 32.4603L271.982 22.4879C270.967 19.545 270.051 16.8609 269.209 14.1544L269.03 14.1232C269.043 16.368 269.013 18.9463 268.984 21.5253L268.862 27.9433L265.114 28.9475L260.666 23.755C258.897 21.656 257.128 19.5602 255.615 17.7193L255.495 17.8299C256.599 20.4674 257.707 23.1042 258.867 26.003L262.579 35.9746L258.87 36.9684L249.351 11.4039L253.211 10.3684L261.495 19.557C262.637 20.8601 264.448 23.0633 265.293 24.1196L265.446 24.0819C265.421 22.8012 265.409 20.1132 265.464 18.4927L266.022 6.93659L269.883 5.90112ZM117.942 16.5267L125.081 35.6973L104.101 41.3219L96.959 22.1473L99.1698 21.5558L105.55 38.6851L112.706 36.7648L106.328 19.6355L108.574 19.036L114.955 36.163L122.11 34.2451L115.73 17.1158L117.942 16.5267ZM130.36 24.2022L129.504 26.4406L132.237 33.7795L130.027 34.3733L122.889 15.1987L125.098 14.6064L128.335 23.2989C128.89 21.9068 129.428 20.477 129.966 19.0441L132.402 12.6485L135.252 11.8855L131.197 22.1304L143.366 30.7981L140.632 31.5298L130.36 24.2022ZM142.184 23.9641L139.886 17.793C138.212 13.3009 139.924 10.1528 143.858 9.09809C147.791 8.04339 151.327 9.78654 153 14.2794L155.296 20.4498C156.97 24.9419 155.259 28.0916 151.325 29.1471C147.388 30.201 143.857 28.4586 142.184 23.9641ZM153.05 21.0549L150.75 14.8813C149.512 11.5585 147.308 10.503 144.646 11.2155C141.989 11.9296 140.897 13.8683 142.135 17.1927L144.431 23.3638C145.669 26.6858 147.876 27.7438 150.536 27.0321C153.194 26.3164 154.287 24.3777 153.05 21.0549ZM159.171 24.4354C161.494 23.8127 160.75 20.5973 159.585 16.6926C158.491 13.0893 157.382 9.89153 156.125 6.29143L166.241 3.57853L173.378 22.7556L171.17 23.3462L164.79 6.2193L159.059 7.75567C160.046 10.624 161.217 14.3251 161.881 16.4377C163.693 22.2987 163.469 25.571 159.945 26.5151L159.171 24.4354ZM185.19 5.00911L190.129 18.2666L188.217 18.7788L187.364 17.0404C186.942 18.56 185.796 19.9104 183.66 20.4834C180.065 21.4444 176.638 19.9946 175.252 16.2686C173.877 12.5804 175.551 9.88271 179.861 8.72622L183.755 7.68194L182.994 5.63825C181.947 2.82517 180.041 1.68872 177.493 2.37395C175.246 2.97504 174.173 4.62762 174.808 6.78832L172.601 7.38139C171.527 4.05218 173.158 1.24552 176.792 0.270958C180.54 -0.733255 183.736 1.09965 185.19 5.00911ZM185.904 13.454L184.505 9.69197L180.534 10.7555C177.647 11.5289 176.603 13.256 177.513 15.7028C178.451 18.2234 180.661 18.9567 183.208 18.2739C185.719 17.6006 186.723 15.6459 185.904 13.454Z" fill="#4B333B"/>
<path d="M102.045 96.6241L71.9971 14.007C71.9971 14.007 69.4706 9.9845 60.8286 13.0853C54.0616 15.5169 0 35.2309 0 35.2309L32.6691 125L94.6852 102.425C101.542 100.139 104.695 103.702 104.695 103.702L102.045 96.6241Z" fill="#C08C9D"/>
<path d="M64.7144 59.1274C64.1166 56.4097 63.2552 52.6349 62.482 49.2712C61.7135 51.3638 56.122 52.9899 49.3278 52.9899C42.5359 52.9899 36.942 51.3646 36.176 49.2712C35.4035 52.6349 34.5429 56.4097 33.9427 59.1274C32.8497 64.098 30.9138 70.225 35.9868 73.4653C41.6296 77.0718 47.4912 77.8203 49.1787 82.1025C49.2324 82.2403 49.4271 82.2403 49.48 82.1025C51.1683 77.8195 57.0275 77.0718 62.6743 73.4653C67.7457 70.225 65.8098 64.098 64.7144 59.1274Z" fill="white"/>
<path d="M61.6569 101.553C61.6569 104.032 56.1359 106.041 49.3305 106.041C42.5194 106.041 37 104.032 37 101.553C37 99.0731 42.5194 97.0623 49.3305 97.0623C56.1359 97.0631 61.6569 99.0739 61.6569 101.553Z" fill="#4B333B"/>
<path d="M27.0889 37.1438L49.3299 45.2408L71.5676 37.1438L49.3299 29.0483L27.0889 37.1438Z" fill="#4B333B"/>
<path d="M40.647 60.8568C40.9507 60.525 41.1414 60.0906 41.1414 59.6089C41.1414 58.8331 40.659 58.1687 39.9747 57.8874V46.7754L38.5115 46.2368V57.8866C37.8256 58.1687 37.344 58.8331 37.344 59.6089C37.344 60.0906 37.5339 60.5258 37.8384 60.8568L36.1934 63.657C36.1934 63.657 37.3496 64.3503 39.3385 64.3503C41.3257 64.3503 42.2913 63.657 42.2913 63.657L40.647 60.8568Z" fill="#4B333B"/>
<path d="M243.505 62.3475C245.137 61.3177 246.864 59.9776 248.514 58.4653C248.44 59.4375 248.425 60.3303 248.477 61.1782C248.56 62.5391 249.358 66.3588 251.865 66.1079H251.869C253.495 65.9356 254.686 64.5836 255.311 62.1952C256.675 61.4731 258.045 60.4593 259.503 59.092C259.753 58.8588 259.887 58.7635 259.953 58.7298C259.953 58.8364 259.924 59.0303 259.902 59.1802C259.863 59.4415 259.815 59.7396 259.819 60.0313C259.831 60.6965 260.055 61.2704 260.471 61.6967C260.808 62.0358 261.201 62.1856 261.645 62.1424C263.073 61.9973 264.691 59.839 265.75 58.1512C265.67 58.8725 265.704 59.6138 266.049 60.0442C266.342 60.42 266.812 60.5082 267.436 60.2982C268.947 59.7981 270.69 57.6518 271.724 55.6266C271.676 56.0818 271.62 56.5362 271.562 56.9802L271.489 57.619C271.339 58.079 271.295 58.5487 271.362 59.0472C271.384 59.2347 271.523 59.3557 271.698 59.3373C271.885 59.3197 272.037 59.1498 272.048 58.9526C272.086 58.3812 272.148 57.8346 272.203 57.3713C272.489 56.8793 273.009 56.4849 273.517 56.1203C273.735 55.9656 273.951 55.8165 274.171 55.6691C274.715 55.298 275.281 54.9157 275.798 54.4501C276.082 54.192 276.278 53.8394 276.406 53.5957C276.413 53.6334 276.417 53.6775 276.42 53.7248C276.509 54.6881 277.071 57.1509 278.611 56.9955L278.662 56.9907C280.11 56.7951 281.317 55.4575 282.228 54.2241C282.935 55.8718 284.064 56.4697 285.462 55.9207C286.745 55.4182 287.756 53.8474 287.704 52.4673C287.741 52.3895 287.78 52.3094 287.817 52.2204C287.821 52.2445 287.826 52.2693 287.826 52.295C287.978 53.3353 288.352 54.4228 288.914 55.4511C289.121 55.8189 289.47 55.9808 289.958 55.9335C290.318 55.8959 290.709 55.7524 291.053 55.6258C291.217 55.5705 291.371 55.5112 291.509 55.4687C294.637 54.5302 296.457 51.7861 297.956 48.9562C298.017 48.8383 298.022 48.7125 297.963 48.6131C297.843 48.3999 297.476 48.4232 297.355 48.6636C296.198 50.8395 294.866 53.0724 292.426 54.3491C291.634 54.7626 291.044 54.9782 290.567 55.0255C289.832 55.0992 289.348 54.7835 289.042 54.0309C288.504 52.7133 288.309 51.4583 288.471 50.3154C288.487 50.2024 288.46 50.099 288.396 50.0269C288.232 49.8385 287.876 49.9419 287.796 50.22C287.668 50.6833 287.533 51.1056 287.384 51.4927C286.828 50.7193 285.648 50.4621 284.63 50.5647C283.566 50.6712 282.709 51.1345 282.337 51.8069C282.169 52.1026 282.03 52.5635 282.203 53.183C282.153 53.2078 282.111 53.2479 282.08 53.2984C281.494 54.1263 280.836 54.8652 280.066 55.5609C279.634 55.9472 279.24 56.166 278.897 56.1996C277.604 56.3287 277.103 53.8089 277.02 52.4625C277.012 52.2709 276.86 52.1339 276.669 52.1547C276.531 52.1691 276.417 52.2621 276.366 52.3911C275.904 53.4851 274.893 54.2273 273.919 54.9478C273.338 55.3765 272.785 55.7861 272.336 56.2629C272.451 55.3036 272.549 54.325 272.534 53.3497L272.513 53.2383L272.453 53.1445C272.41 53.094 272.352 53.0612 272.289 53.0547C272.274 53.0523 272.246 53.0403 272.207 53.0419L272.137 53.0564C272.085 53.0732 272.03 53.0948 271.98 53.1317L271.936 53.183C271.928 53.1966 271.92 53.2062 271.919 53.215C271.896 53.2399 271.862 53.288 271.85 53.3593C271.619 54.7186 270.551 56.1355 269.698 57.2752L269.589 57.4154C269.041 58.1576 268.42 58.8011 267.745 59.3277C267.261 59.7108 266.927 59.7997 266.725 59.5457C266.324 59.0408 266.49 57.4387 266.629 56.7855C266.645 56.7013 266.662 56.6316 266.679 56.5619C266.973 56.0129 267.178 55.5729 267.276 55.3341C267.323 55.2106 267.315 55.088 267.253 54.9934C267.125 54.8011 266.796 54.8356 266.666 55.06C266.564 55.2243 266.452 55.4663 266.342 55.7733C266.263 55.9231 266.154 56.1612 266.035 56.42C265.917 56.6861 265.788 56.9706 265.68 57.1782C265.24 57.974 264.661 58.7699 263.851 59.6715C263.339 60.2453 262.525 60.9851 261.58 61.2343C261.227 61.3281 260.979 61.2752 260.806 61.062C260.436 60.6132 260.407 59.5136 260.725 57.7673C260.742 57.6543 260.72 57.5525 260.658 57.4803C260.535 57.3369 260.282 57.3481 260.138 57.5028C258.534 59.1634 257.052 60.3904 255.505 61.3281C255.568 61.0083 255.618 60.6733 255.66 60.3295C255.671 60.2325 255.662 60.0049 255.354 59.9512C255.147 59.9111 254.924 59.9015 254.692 59.9256C253.24 60.073 251.7 61.3666 251.025 62.9991C250.974 63.1169 250.982 63.2467 251.043 63.3437C251.107 63.4439 251.217 63.4968 251.349 63.4848C252.429 63.3541 253.467 63.0632 254.511 62.5976C254.146 63.5417 253.493 64.6637 252.649 65.183C252.398 65.3329 252.154 65.4235 251.919 65.4459C250.364 65.6038 249.516 62.834 249.362 62.2794C249.028 61.0604 248.933 59.6034 249.083 57.9404C252.622 54.5647 255.401 50.7434 256.911 47.1673C257.453 45.8874 257.461 44.6748 256.938 43.8405C256.553 43.2226 255.921 42.9108 255.207 42.9814C254.349 43.0679 253.47 43.6979 252.728 44.7534C251.127 47.0295 250.298 49.873 249.585 52.5875C249.135 54.2762 248.813 55.8782 248.631 57.3537C246.804 59.1361 244.965 60.6204 243.163 61.7609C243.026 61.8482 242.959 62.0005 242.994 62.152C243.042 62.366 243.304 62.4758 243.505 62.3475ZM255.794 43.5993C256.282 43.77 256.582 44.0681 256.704 44.5097C257.11 45.9716 255.514 48.5562 254.825 49.6662C253.293 52.1347 251.364 54.5807 249.222 56.7622C249.712 53.3873 250.966 49.9523 251.951 47.6177C252.365 46.6448 253.619 43.685 255.194 43.5271C255.393 43.5039 255.594 43.5303 255.794 43.5993ZM254.612 60.6068C254.852 60.5819 254.87 60.6845 254.878 60.7334C254.922 60.9578 254.885 61.3201 254.78 61.7577C254.412 61.9476 252.891 62.6465 252.158 62.7202C251.942 62.741 251.887 62.6994 251.887 62.6994C251.887 62.6994 251.886 62.6825 251.898 62.6417C252.073 62.0462 253.78 60.6877 254.612 60.6068ZM283.949 51.4094C284.132 51.3621 284.319 51.326 284.505 51.3084C285.72 51.189 286.713 51.7075 286.908 52.5554C286.14 54.0149 285.204 54.5847 284.102 54.2505C283.336 54.0173 282.765 53.2391 282.826 52.5098C282.872 51.9768 283.269 51.5841 283.949 51.4094ZM285.571 54.882C285.837 54.7899 286.079 54.636 286.292 54.4613C285.868 55.0023 285.409 55.2988 284.921 55.3493C284.457 55.3966 283.981 55.201 283.576 54.8275C284.169 55.0968 284.901 55.1241 285.571 54.882ZM317.545 68.3239C316.88 68.5836 316.245 68.7447 315.661 68.8032C313.477 69.0236 312.096 67.7958 311.96 65.5124C312.333 64.5579 312.37 63.855 312.075 63.4263L311.989 63.3133H311.983C311.644 62.9238 311.208 62.7442 310.716 62.7947C309.885 62.8789 309.003 63.621 308.616 64.5571C308.401 65.0732 308.381 65.4716 308.553 65.7457C308.713 65.9965 309.018 66.1103 309.438 66.067C309.84 66.0246 310.315 65.8418 310.672 65.5822C310.879 65.4291 311.063 65.2424 311.224 65.0564C311.224 65.0732 311.228 65.0957 311.228 65.1133C311.228 65.1726 311.228 65.2295 311.228 65.2912C311.047 65.9108 310.732 66.5623 310.251 67.2836C309.626 68.2277 308.845 68.7888 308.053 68.8697C307.062 68.9699 306.144 68.3111 305.602 67.1089C305.491 66.8637 305.089 66.8757 304.972 67.1482C304.44 68.3936 303.863 69.3353 302.8 69.9124C302.562 70.0406 302.334 70.1176 302.121 70.14C300.85 70.269 300.273 68.3423 300.13 67.165C300.134 67.0713 300.108 66.9871 300.047 66.9174C299.929 66.7851 299.712 66.7835 299.583 66.915C299.513 66.9679 299.485 67.0424 299.469 67.0849C298.743 69.0909 297.073 70.9711 295.214 71.8751C295.131 71.9152 295.079 71.924 295.04 71.8783C294.841 71.6563 294.951 70.6305 294.999 70.1977C295.184 69.8435 295.328 69.5133 295.442 69.1847C295.484 69.0653 295.469 68.9442 295.408 68.8513C295.269 68.6485 294.931 68.6782 294.81 68.9442C294.754 69.0861 294.662 69.3097 294.565 69.595C294.23 70.3812 293.637 71.0961 293.045 71.7493C291.899 73.0108 290.401 73.9653 288.933 74.3588C288.061 74.5976 287.358 74.4726 286.85 73.9797C286.07 73.2256 285.939 71.8487 285.93 71.0961C285.929 70.9062 285.773 70.7627 285.588 70.7803C285.54 70.7852 285.495 70.8012 285.458 70.826C283.914 71.7317 282.769 73.159 281.656 74.5399L281.558 74.6642C281.392 74.8669 281.231 75.0705 281.071 75.2733C280.539 75.9385 279.992 76.6277 279.387 77.2336C279.232 77.3883 279.094 77.4764 278.989 77.4869C278.94 77.4917 278.872 77.4869 278.792 77.3995C278.493 77.0637 278.424 76.0451 278.461 75.7036C278.528 75.0849 278.705 74.4438 278.873 73.8218L279.001 73.3602C279.026 73.256 279.008 73.1518 278.95 73.0709C278.86 72.9539 278.676 72.9186 278.555 72.9771C276.767 73.7874 275.223 75.4961 274.231 77.7329C274.227 77.3811 274.216 77.0276 274.206 76.6806C274.187 76.0298 274.169 75.4199 274.175 74.81C274.175 74.7179 274.143 74.6361 274.086 74.58C273.912 74.3997 273.483 74.5488 273.483 74.8958C273.481 74.9759 273.483 75.0585 273.483 75.1418C273.485 75.2196 273.485 75.2981 273.488 75.3446C273.246 76.703 272.175 78.1256 271.313 79.2661L271.237 79.3663C270.69 80.102 270.069 80.7487 269.394 81.2793C268.908 81.6656 268.567 81.753 268.366 81.4965C267.965 80.9908 268.128 79.4288 268.269 78.7652C268.502 78.2819 268.721 77.785 268.919 77.2889C268.964 77.1687 268.956 77.0429 268.895 76.9515C268.767 76.7575 268.443 76.7888 268.311 77.0148C268.219 77.1655 268.115 77.3947 267.989 77.7097C267.917 77.8475 267.815 78.0695 267.711 78.3107C267.583 78.5889 267.44 78.9022 267.319 79.1258C266.883 79.9329 266.301 80.7255 265.499 81.6239C264.984 82.1962 264.173 82.9319 263.224 83.1876C262.877 83.2797 262.625 83.2228 262.452 83.0152C262.2 82.7099 261.977 81.9213 262.333 79.9257C262.484 79.4961 262.589 79.1202 262.651 78.8854C262.681 78.7756 262.665 78.673 262.605 78.5945C262.544 78.5127 262.435 78.4678 262.322 78.4775C262.165 78.4951 262.03 78.6105 261.981 78.7796C261.933 78.9784 261.859 79.2188 261.772 79.4744C261.733 79.5225 261.707 79.573 261.693 79.6387L261.677 79.7149C261.674 79.7389 261.671 79.7654 261.673 79.7654C261.29 80.865 259.892 84.4731 257.955 84.667C257.59 84.7063 257.214 84.6157 256.839 84.4049C256.329 84.1124 256.027 83.5995 255.711 83.0561C255.475 82.649 255.233 82.2322 254.892 81.9068C254.432 81.4765 253.502 81.3554 252.785 81.4292C252.253 81.4805 251.803 81.6424 251.519 81.8764C251.398 81.9798 251.288 82.0784 251.181 82.1817C251.198 82.0952 251.186 82.007 251.139 81.9349C251.073 81.8315 250.954 81.7722 250.828 81.7866C250.791 81.7898 250.758 81.8018 250.766 81.8027C250.65 81.8243 250.56 81.8908 250.498 82.007C250.359 82.2907 250.251 82.5704 250.16 82.8141C249.45 84.3104 248.74 85.4356 248.002 86.2322C248.074 85.7634 247.997 85.3322 247.768 84.9563C247.25 84.1164 245.981 83.6412 244.614 83.779C244.378 83.8031 244.143 83.8447 243.919 83.9064C243.29 84.0812 242.832 84.4266 242.604 84.9051C242.412 85.309 242.381 85.7971 242.517 86.3084L242.481 86.3428C242.451 86.3597 242.414 86.3837 242.377 86.4294C241.778 87.2813 241.116 88.0211 240.357 88.6887C239.924 89.0774 239.532 89.293 239.188 89.3298C237.901 89.4581 237.404 86.9415 237.323 85.5823C237.303 85.3988 237.152 85.2673 236.967 85.2865C236.835 85.2986 236.721 85.3899 236.667 85.5206C236.205 86.6145 235.198 87.3599 234.222 88.0788C233.642 88.5076 233.087 88.9171 232.637 89.394C232.75 88.4394 232.847 87.4625 232.834 86.4831C232.834 86.4206 232.814 86.3733 232.792 86.3405L232.739 86.2627C232.702 86.2234 232.653 86.1994 232.575 86.181C232.555 86.181 232.532 86.1753 232.504 86.1753L232.446 86.1882C232.375 86.2026 232.325 86.2339 232.268 86.2868L232.221 86.3485C232.199 86.3749 232.161 86.427 232.155 86.4919C231.926 87.844 230.865 89.2569 230.009 90.391L229.892 90.548C229.334 91.2966 228.708 91.9402 228.042 92.4563C227.559 92.8426 227.224 92.9332 227.018 92.6743C226.619 92.1678 226.79 90.5673 226.93 89.9157C226.951 89.8283 226.964 89.7602 226.973 89.6897C227.243 89.1928 227.465 88.7392 227.572 88.4707C227.622 88.3497 227.612 88.2238 227.553 88.1285C227.427 87.9345 227.099 87.961 226.963 88.1942C226.862 88.3609 226.747 88.6174 226.646 88.8979C226.565 89.0429 226.462 89.2745 226.345 89.5246C226.223 89.7963 226.091 90.0896 225.974 90.3044C225.533 91.1187 224.937 91.9321 224.155 92.7993C223.635 93.3771 222.817 94.1185 221.873 94.3701C221.523 94.4615 221.275 94.407 221.104 94.1954C220.552 93.5302 220.898 91.5779 221.024 90.8919C221.041 90.7861 221.019 90.6875 220.959 90.6114C220.841 90.4679 220.593 90.4719 220.438 90.6234C218.833 92.2928 217.353 93.5174 215.807 94.4543C215.869 94.1241 215.921 93.7875 215.959 93.4597C215.972 93.3459 215.94 93.2449 215.876 93.1736C215.809 93.1014 215.714 93.0662 215.613 93.0766H215.607C213.507 93.2201 212.128 94.1778 211.316 96.1325C211.271 96.2511 211.283 96.3786 211.344 96.4747C211.41 96.5757 211.52 96.6254 211.649 96.6118C212.732 96.4828 213.78 96.1854 214.836 95.7134C214.529 96.6182 213.962 97.6897 212.945 98.3101C212.695 98.4607 212.451 98.5497 212.216 98.5753C210.65 98.73 209.814 95.9602 209.664 95.404C209.329 94.1954 209.232 92.74 209.375 91.0706C212.915 87.6981 215.695 83.876 217.208 80.2951C217.746 79.0144 217.76 77.801 217.233 76.9651C216.846 76.3496 216.215 76.037 215.504 76.1092C214.647 76.1933 213.767 76.8241 213.027 77.878C211.435 80.1332 210.598 82.9904 209.876 85.7209C209.416 87.4569 209.109 89.0181 208.926 90.4847C207.105 92.2615 205.268 93.7442 203.458 94.8951C203.322 94.9824 203.258 95.1339 203.291 95.283C203.343 95.501 203.593 95.614 203.807 95.4809C205.49 94.4166 207.169 93.1143 208.808 91.6011C208.734 92.5845 208.724 93.4757 208.78 94.314C208.88 96.0203 209.842 99.4673 212.152 99.2341H212.159C213.789 99.0698 214.981 97.7218 215.606 95.3343C216.96 94.621 218.335 93.6016 219.808 92.2231C220.054 91.9906 220.187 91.8985 220.252 91.8616C220.252 91.9674 220.221 92.1581 220.199 92.3104C220.159 92.5733 220.116 92.873 220.118 93.1656C220.127 93.838 220.347 94.3974 220.771 94.831C221.104 95.1724 221.501 95.3199 221.942 95.2766C223.381 95.1307 224.993 92.9788 226.051 91.2862C225.968 92.0091 226.004 92.7472 226.348 93.1792C226.64 93.5527 227.105 93.6424 227.731 93.4332C229.245 92.9267 230.99 90.7805 232.019 88.764C231.969 89.2393 231.911 89.7153 231.853 90.1786L231.786 90.7604C231.634 91.2237 231.596 91.6901 231.664 92.1798C231.687 92.3689 231.826 92.4867 232.001 92.4699C232.189 92.4523 232.336 92.2864 232.35 92.0884C232.379 91.6228 232.433 91.1195 232.503 90.5104C232.792 90.0127 233.307 89.6192 233.818 89.2569C234.052 89.0894 234.288 88.9283 234.521 88.7696C235.051 88.4082 235.598 88.0355 236.095 87.5843C236.381 87.3214 236.576 86.972 236.708 86.7299C236.713 86.7676 236.717 86.8101 236.722 86.859C236.812 87.8223 237.382 90.2876 238.915 90.1321L238.963 90.1281C240.42 89.9317 241.619 88.5917 242.532 87.3551C243.098 88.5917 244.084 89.285 245.151 89.1752C245.939 89.0958 246.692 88.5845 247.336 87.6909C248.095 87.1299 248.853 86.2779 249.594 85.1527C249.468 86.0623 249.429 86.9624 249.409 87.8199C249.408 87.9169 249.442 88.0051 249.5 88.0652C249.561 88.1269 249.647 88.1589 249.744 88.1469C249.943 88.1261 250.098 87.9594 250.099 87.7502C250.117 87.1924 250.135 86.7171 250.169 86.2555L250.195 86.1585C250.308 84.986 250.434 84.1485 251.136 83.1795C251.594 82.5544 252.141 82.2074 252.76 82.1433C253.753 82.0447 254.646 82.7075 255.059 83.3695C255.581 84.215 256.088 84.9475 257.005 85.2881C257.34 85.4188 257.687 85.4669 258.023 85.4308C259.525 85.2801 260.705 83.5875 261.5 81.9381C261.542 82.6682 261.715 83.1996 262.024 83.5274C262.379 83.9032 262.903 84.0026 263.579 83.8223C265.173 83.3919 266.472 81.8491 267.373 80.3993C267.335 81.0132 267.399 81.636 267.711 82.0158C268.004 82.3773 268.467 82.4574 269.083 82.2483C270.761 81.6977 272.577 79.2308 273.509 77.2873C273.522 78.2627 273.514 79.2508 273.437 80.2094C273.316 80.7904 273.235 81.3651 273.199 81.9181C273.193 82.0126 273.221 82.1 273.28 82.1577C273.442 82.3324 273.808 82.2074 273.884 81.9373C274.068 81.2208 274.179 80.429 274.225 79.5161C274.646 78.3925 275.245 77.208 275.911 76.1789C276.279 75.6115 276.776 75.0513 277.478 74.4117C277.896 74.0374 278.084 73.9332 278.165 73.9052C278.165 74.0414 278.074 74.3596 278.02 74.5616C277.976 74.7147 277.933 74.8757 277.9 75.016C277.896 75.0384 277.409 77.2617 278.034 78.0799C278.202 78.2979 278.437 78.3989 278.717 78.3725L278.764 78.3636C279.838 78.205 280.841 76.804 281.57 75.7798C281.753 75.5201 281.922 75.2837 282.071 75.0985C282.954 73.9934 283.908 72.8361 285.06 71.896C285.235 71.9008 285.483 72.8898 285.565 73.2143C285.637 73.5045 285.696 73.7377 285.756 73.8699C286.189 74.7676 287.219 75.2957 288.343 75.1835C290.381 74.9399 292.639 73.4932 294.146 71.5105C294.136 71.9064 294.208 72.2005 294.366 72.3969C294.531 72.5972 294.77 72.6846 295.085 72.6541C296.884 72.469 298.724 70.0815 299.638 68.3488C299.94 69.5309 300.636 71.0352 302.212 70.786C303.059 70.6529 303.776 70.2514 304.284 69.6279C304.675 69.1534 304.987 68.6782 305.292 68.0891C305.409 68.1772 305.604 68.5283 305.672 68.6501C305.749 68.7928 305.785 68.8553 305.825 68.8945C307.042 70.0839 308.647 69.9124 310.17 68.4353C310.47 68.1404 310.943 67.5056 311.369 66.7571C311.478 67.29 311.651 67.7557 311.901 68.1973C312.523 69.3073 313.662 69.7882 315.287 69.6255C316.033 69.5533 316.887 69.3297 317.749 68.9955C317.915 68.9386 318.018 68.7743 317.997 68.6012C317.966 68.376 317.761 68.2406 317.545 68.3239ZM310.418 64.8945L310.417 64.8905L310.294 64.9618C309.999 65.1382 309.695 65.276 309.457 65.3385C309.22 65.3994 309.057 65.3802 309.038 65.3385C309.037 65.3265 308.955 65.1173 309.546 64.3407C309.66 64.1836 309.782 64.0522 309.92 63.92L309.972 63.8727L309.976 63.8518L310.034 63.8102C310.404 63.4728 310.667 63.4142 310.763 63.403L310.841 63.4014L310.891 63.3982C311.208 63.3662 311.282 63.4159 311.299 63.4335C311.325 63.4655 311.316 63.585 311.305 63.7036C311.299 63.8005 311.29 63.9087 311.293 64.0153C311.299 64.162 311.005 64.5098 310.425 64.8897C310.425 64.8889 310.421 64.8921 310.418 64.8945ZM243.723 88.0115C243.748 88.0275 243.773 88.0451 243.799 88.0571C244.304 88.3561 244.83 88.4899 245.368 88.4675C244.687 88.7456 244.119 88.4843 243.723 88.0115ZM247.034 85.2793C247.308 85.7233 247.332 86.2523 247.096 86.8053C247.046 86.9223 246.974 87.0369 246.899 87.1563L246.898 87.1635C246.285 87.533 245.654 87.7005 245.008 87.6708C244.302 87.634 243.313 86.9367 243.092 86.1C242.975 85.6512 243.103 85.2505 243.472 84.9091C243.824 84.5773 244.281 84.3785 244.799 84.3248C245.704 84.2334 246.623 84.6245 247.034 85.2793ZM215.062 94.8975C214.691 95.061 213.099 95.6036 212.38 95.6757C212.322 95.6813 212.281 95.6821 212.245 95.6821C212.629 94.9456 213.201 94.4158 213.98 94.088C214.234 93.9069 214.457 93.8067 214.638 93.7907C214.789 93.7723 215.009 93.7955 215.197 94.1361C215.164 94.3782 215.121 94.6274 215.062 94.8975ZM216.096 76.7303C216.582 76.905 216.881 77.2048 217.005 77.6447C217.409 79.0986 215.816 81.6752 215.126 82.8037C213.58 85.2889 211.65 87.7294 209.521 89.8997C210.005 86.5208 211.258 83.0882 212.247 80.7576C212.664 79.783 213.92 76.8168 215.5 76.659C215.697 76.6381 215.897 76.663 216.096 76.7303ZM162.518 108.407C162.579 108.527 162.563 108.668 162.48 108.787C161.942 109.57 159.536 112.536 157.605 112.73C157.177 112.775 156.799 112.672 156.485 112.434C156.014 112.073 155.846 111.423 155.991 110.529C154.909 111.874 153.473 113.251 152.061 113.394C151.815 113.417 151.574 113.405 151.343 113.353C150.554 113.178 150.097 112.535 150.118 111.634C150.123 111.481 150.154 111.212 150.194 110.898C150.23 110.617 150.277 110.201 150.291 109.942C149.404 110.609 148.5 111.224 147.529 111.81C147.332 111.927 147.121 111.828 147.077 111.617C147.035 111.442 147.113 111.262 147.266 111.17C148.436 110.466 149.56 109.669 150.803 108.67C150.928 108.558 151.179 108.573 151.287 108.72C151.344 108.803 151.359 108.908 151.327 109.015C151.025 109.962 150.644 111.737 151.119 112.412C151.356 112.749 151.805 112.752 152.462 112.444C153.699 111.855 154.891 110.852 155.902 109.541C155.936 109.497 156.02 109.375 156.133 109.217C156.309 108.971 156.546 108.638 156.76 108.349C156.988 107.877 157.26 107.414 157.485 107.119C157.636 106.921 157.946 106.938 158.056 107.133C158.111 107.235 158.109 107.362 158.049 107.477C157.862 107.818 157.593 108.267 157.279 108.745C156.849 109.757 156.681 110.55 156.764 111.212C156.854 111.908 157.211 111.954 157.466 111.927C158.899 111.785 161.703 108.738 161.948 108.383C162.103 108.162 162.418 108.19 162.518 108.407ZM204.201 71.5754C204.66 70.9527 205.207 70.604 205.825 70.5415C206.817 70.4429 207.71 71.1041 208.118 71.7597L208.169 71.8431C208.601 72.5524 209.194 73.5245 210.138 73.708C210.364 73.7505 210.595 73.7609 210.819 73.7361C211.852 73.6335 212.695 72.8529 213.404 72.1284C213.548 71.9817 213.927 71.5906 214.061 71.5762C214.108 71.5706 214.199 71.7301 214.284 71.8872C214.367 72.0402 214.471 72.2294 214.622 72.4409C214.905 72.8401 215.363 73.1526 215.793 73.2296C216.017 73.272 216.246 73.2793 216.473 73.2536C218.054 73.0949 219.49 71.4431 219.548 69.7064C219.548 69.6623 219.541 69.6223 219.535 69.5854C219.548 69.5662 219.551 69.5501 219.558 69.5341C219.781 72.2125 220.915 73.3835 222.751 72.7567C224.611 72.1172 226.467 71.3614 228.257 70.6329C230.725 69.6303 233.278 68.5908 235.866 67.8463C236.646 67.6259 237.47 67.4383 238.331 67.2941C238.521 67.2612 238.658 67.0849 238.649 66.8845C238.638 66.6866 238.494 66.5567 238.29 66.5736H238.284C234.734 67.1931 231.242 68.5988 227.866 69.9621L227.291 70.1953C226.914 70.3452 226.539 70.5022 226.162 70.6561C224.985 71.1402 223.768 71.6419 222.555 72.0771C221.906 72.3143 221.391 72.2061 220.996 71.7477C220.208 70.8284 220.107 68.679 220.29 67.4471C220.305 67.3341 220.28 67.2355 220.218 67.1634C220.055 66.9743 219.696 67.0801 219.616 67.355C219.486 67.819 219.345 68.2325 219.205 68.6108C218.603 67.8214 217.334 67.6347 216.353 67.7341C215.62 67.8062 214.951 68.0402 214.511 68.368C213.861 68.8537 213.68 69.5565 213.996 70.3315C213.954 70.354 213.92 70.3876 213.893 70.4229C211.898 73.0853 210.282 73.6119 209.057 71.8767C208.935 71.7076 208.83 71.5305 208.722 71.3526C208.406 70.818 208.074 70.2642 207.379 70.039C205.696 69.5077 204.268 70.1256 203.4 71.6996C203.419 71.2372 203.445 70.7795 203.472 70.3131C203.475 70.2217 203.447 70.1328 203.389 70.0727C203.246 69.926 202.938 69.9949 202.828 70.1953C200.483 74.4558 196.749 77.8163 193.139 81.0645L193.079 81.1222C192.284 81.8315 191.445 82.5552 190.522 83.3254C191.08 80.8601 191.734 78.2498 192.641 75.6812C192.684 75.5658 192.679 75.4448 192.614 75.3494C192.478 75.137 192.115 75.1819 192.021 75.4448C191.296 77.4684 189.615 79.3606 187.741 80.2703C187.659 80.3112 187.611 80.3176 187.57 80.2751C187.373 80.0539 187.479 79.0545 187.53 78.5881C187.706 78.2522 187.852 77.9116 187.967 77.583C188.011 77.466 187.999 77.3434 187.94 77.2496C187.802 77.0461 187.463 77.0837 187.348 77.337C187.261 77.5349 187.15 77.8074 187.043 78.1016C186.673 78.899 186.066 79.6123 185.58 80.1429C184.429 81.4011 182.928 82.3573 181.464 82.7644C180.597 83.0008 179.89 82.8718 179.378 82.3789C178.601 81.6215 178.468 80.247 178.461 79.4857C178.446 79.2548 178.178 79.1026 177.988 79.2196C176.446 80.1268 175.299 81.551 174.193 82.9311L174.085 83.0649C173.932 83.2565 173.776 83.448 173.625 83.6404C173.087 84.3168 172.533 85.0108 171.917 85.6288C171.764 85.7858 171.624 85.8748 171.516 85.8828C171.471 85.8884 171.399 85.8828 171.316 85.7914C171.015 85.4524 170.958 84.4009 170.991 84.0988C171.058 83.4921 171.233 82.855 171.403 82.241C171.445 82.08 171.488 81.9213 171.532 81.7594C171.556 81.6528 171.54 81.5478 171.479 81.4701C171.387 81.3514 171.205 81.3202 171.085 81.3787C169.049 82.2987 167.784 84.1156 167.099 85.4548C166.987 85.6159 166.874 85.7722 166.755 85.9309C166.75 85.6817 166.739 85.4324 166.736 85.1832C166.716 84.4987 166.699 83.8528 166.702 83.21C166.702 83.1178 166.672 83.0313 166.612 82.9728C166.439 82.8029 166.02 82.9383 166.011 83.2853L166.003 83.3687C165.394 84.094 164.74 85.3787 164.047 86.7388C163.431 87.9369 162.798 89.18 162.238 89.9157C162.082 90.1185 161.861 90.3461 161.647 90.5136C161.8 89.9838 161.791 89.4236 161.607 88.9756C161.419 88.5124 161.052 88.2158 160.573 88.1405C159.704 88.0058 158.664 88.4362 158.042 89.1183C158.056 88.3184 158.268 87.4376 158.444 86.7091L158.489 86.5208C158.5 86.4623 158.638 85.9766 158.73 85.636L158.813 85.345C158.844 85.2377 158.831 85.1351 158.771 85.0533C158.709 84.97 158.601 84.9275 158.484 84.9363C158.324 84.9531 158.193 85.0702 158.15 85.2232L158.134 85.2721C158.104 85.3731 158.075 85.4757 158.048 85.5839C158.016 85.6304 157.99 85.6905 157.958 85.7642L157.926 85.8275C157.634 86.5104 157.112 87.1363 156.603 87.7406L156.452 87.9241C155.165 89.4589 153.926 90.3541 152.662 90.6578C152.13 90.7885 151.78 90.7171 151.574 90.4439C151.069 89.7819 151.502 88.0668 151.761 87.0417C151.824 86.7853 151.879 86.5721 151.907 86.4174C151.928 86.3188 151.91 86.2226 151.856 86.1489C151.8 86.0687 151.715 86.0191 151.618 86.0175L151.565 86.0191C151.396 86.0359 151.266 86.1473 151.216 86.3076C150.627 88.1429 149.246 89.7538 148.261 90.8069C147.805 91.2926 147.256 91.84 146.628 92.1942C146.584 92.2183 146.561 92.2239 146.544 92.2239C146.312 92.0443 146.838 89.9181 147.008 89.5278C147.059 89.41 147.059 89.2874 147 89.1904C146.87 88.9756 146.508 89.0085 146.387 89.2721C146.349 89.3643 146.141 89.8195 146.117 89.8684C144.239 93.3852 141.726 95.8448 139.451 97.7899C139.917 95.6821 140.497 93.2778 141.267 90.9576C141.334 90.7147 141.417 90.4791 141.48 90.3036L141.536 90.1457C141.58 90.0271 141.564 89.9029 141.501 89.8091C141.36 89.5975 141.003 89.6496 140.911 89.9101C140.193 91.9209 138.516 93.8188 136.64 94.7348C136.553 94.7741 136.503 94.7813 136.462 94.7404C136.265 94.516 136.374 93.4934 136.431 93.0165C136.621 92.6598 136.761 92.3497 136.863 92.0459C136.906 91.9289 136.897 91.8095 136.831 91.7141C136.696 91.505 136.348 91.5482 136.242 91.7959C136.167 91.9634 136.095 92.171 136.012 92.4066L135.987 92.4547C135.648 93.2529 135.058 93.963 134.471 94.609C133.324 95.8745 131.827 96.8234 130.361 97.2225C129.486 97.4613 128.779 97.3291 128.269 96.8394C127.492 96.082 127.36 94.7076 127.353 93.9542C127.353 93.9157 127.352 93.8845 127.348 93.8492C127.346 93.8107 127.34 93.765 127.34 93.6945C128.176 92.3513 129.151 91.4793 130.4 90.9391C130.562 90.8726 130.657 90.7043 130.63 90.5296C130.598 90.3092 130.365 90.1922 130.186 90.2755C128.417 91.0329 126.876 92.7248 125.874 94.9832C125.868 94.6731 125.853 94.3661 125.845 94.0616C125.816 93.3828 125.795 92.7424 125.802 92.1125C125.802 92.0179 125.771 91.9345 125.711 91.876C125.538 91.7021 125.119 91.8432 125.11 92.1934C125.106 92.8161 125.127 93.4461 125.154 94.1105C125.19 95.085 125.225 96.0884 125.171 97.0197C124.977 97.7683 124.864 98.4896 124.827 99.1708V99.2189C124.823 99.3167 124.851 99.4016 124.909 99.4609C125.074 99.6292 125.432 99.501 125.503 99.2494C125.691 98.605 125.804 97.8861 125.848 97.0878C126.05 96.3016 126.35 95.5098 126.717 94.7749C126.948 96.9276 128.11 98.0464 129.96 97.8604C131.819 97.6745 134.111 96.1958 135.62 94.2563C135.602 94.6923 135.675 95.0145 135.841 95.2181C136.101 95.533 136.549 95.5459 137.174 95.2421C138.265 94.7092 139.225 93.7282 139.951 92.8618C139.92 92.9684 139.889 93.0766 139.861 93.1808C139.333 94.9913 138.901 96.8402 138.512 98.5745C136.234 100.426 133.813 102.047 131.252 103.769L130.713 104.129C126.07 107.253 119.052 111.982 121.737 118.389C122.573 120.391 124.741 121.522 127.259 121.267L127.276 121.266C130.509 120.936 132.595 117.925 134.051 115.335C136.717 110.591 137.848 105.298 138.943 100.175L139.225 98.8486C142.057 96.5044 144.169 94.173 145.804 91.5747C145.766 92.0347 145.798 92.4747 145.996 92.7216C146.233 93.0277 146.646 93.0093 147.214 92.6438C148.46 91.8336 149.734 90.4591 150.687 88.9203C150.583 89.7041 150.609 90.4086 150.979 90.8806C151.307 91.2958 151.867 91.4649 152.646 91.3872L152.714 91.3807C154.39 91.1804 156.303 89.5206 157.553 87.7766C157.394 88.7752 157.382 89.6096 157.51 90.2643C157.503 90.5008 157.573 90.7236 157.692 90.8734C158.07 91.7855 158.844 92.1902 159.99 92.074L160.048 92.066C160.486 92.0179 160.877 91.7943 161.188 91.4144C162.968 90.5016 164.006 88.3625 164.919 86.4751C165.297 85.6961 165.658 84.9507 166.032 84.3881C166.03 84.7071 166.019 85.1295 166.013 85.5847C165.995 86.8053 165.97 88.4659 165.95 88.6743C165.837 89.2545 165.761 89.8083 165.732 90.3124C165.726 90.407 165.753 90.4919 165.805 90.5545C165.869 90.6194 165.961 90.6506 166.059 90.641C166.228 90.625 166.37 90.504 166.411 90.3413C166.6 89.628 166.71 88.8321 166.751 87.9097C167.039 87.1579 167.405 86.3781 167.832 85.5983C168.043 85.2729 168.249 84.9307 168.443 84.5781L168.472 84.526C168.846 83.9706 169.34 83.4232 170.015 82.8157C170.427 82.4462 170.613 82.3364 170.695 82.3092C170.691 82.4454 170.605 82.7604 170.55 82.9607C170.504 83.1186 170.462 83.2749 170.428 83.4232C170.423 83.444 169.939 85.6728 170.57 86.4879C170.735 86.7019 170.967 86.7973 171.242 86.7708L171.286 86.7644C172.366 86.6065 173.369 85.208 174.097 84.1886C174.285 83.9273 174.457 83.6885 174.605 83.5001C175.431 82.4598 176.404 81.2737 177.591 80.2991C177.702 80.2855 177.875 80.7311 178.096 81.6143C178.174 81.9076 178.228 82.1369 178.289 82.2659C178.726 83.1651 179.742 83.6957 180.827 83.5891L180.874 83.5819C182.926 83.3358 185.131 81.9365 186.647 79.9577C186.651 80.425 186.788 80.7584 187.059 80.9611C187.2 81.0709 187.377 81.1126 187.585 81.0942C188.302 81.0212 189.24 80.1885 189.744 79.7413L189.891 79.6147C190.297 79.2637 190.691 78.8565 191.091 78.3668C190.51 80.3657 190.044 82.3364 189.656 84.0467C187.637 85.6937 185.818 87.0361 183.933 88.2703C183.491 88.5621 183.014 88.8682 182.511 89.1912C177.953 92.1036 171.069 96.5084 172.394 102.495C172.973 105.103 174.793 106.699 177.383 106.877C177.666 106.894 177.956 106.891 178.241 106.86C180.485 106.635 182.816 104.84 184.479 102.063C185.562 100.255 186.478 98.2732 187.281 96.0139C188.804 97.3379 191.005 97.9895 193.232 97.7667C194.89 97.5992 196.45 96.9676 197.735 95.9402C200.915 93.3996 201.771 88.3473 202.285 85.3322C202.903 81.6864 203.111 77.9573 203.277 74.467C203.379 73.373 203.51 72.5267 204.201 71.5754ZM193.042 97.0245C192.004 97.1279 190.935 97.0285 189.862 96.7264C189.009 96.4796 188.201 95.9843 187.522 95.283C188.571 92.1581 189.288 88.9003 189.985 85.7474L190.273 84.4466C192.732 82.4294 195.029 80.2879 196.762 78.645C198.884 76.6229 200.612 74.6922 202.045 72.7375C202.265 72.4281 202.504 72.0699 202.71 71.7349L202.665 72.6758C202.618 73.66 202.572 74.6433 202.512 75.662C202.242 80.7848 201.96 86.0816 200.147 91.0281C198.879 94.4615 196.225 96.7024 193.042 97.0245ZM185.904 92.2239C185.87 92.0524 185.72 91.9426 185.543 91.961C185.438 91.9738 185.343 92.0259 185.28 92.1109C185.227 92.1926 185.203 92.2896 185.219 92.3906C185.431 93.5535 185.941 94.5865 186.731 95.4633C185.739 98.3501 184.57 100.765 183.163 102.839C181.916 104.676 180.03 105.883 178.11 106.078C177.327 106.156 176.56 106.066 175.829 105.816C174.686 105.419 173.844 104.573 173.387 103.374C172.8 101.824 172.899 99.743 173.647 97.9462C174.411 96.0989 176.363 94.5625 177.929 93.3275L178.279 93.0518C180.188 91.5474 182.255 90.1882 184.252 88.8714L184.782 88.5252C186.259 87.5562 187.776 86.4534 189.403 85.1527C189.377 85.2657 189.351 85.3771 189.326 85.4989L189.272 85.7402C188.621 88.6911 187.947 91.7382 187 94.6747C186.44 93.9285 186.06 93.0862 185.904 92.2239ZM216.737 72.481C216.251 72.5291 215.751 72.3095 215.332 71.9032C215.437 71.9697 215.537 72.025 215.628 72.0619C216.32 72.3624 217.177 72.2133 218.005 71.6579C218.047 71.6315 218.086 71.6034 218.125 71.5738C217.699 72.1236 217.231 72.4305 216.737 72.481ZM215.914 71.3814C215.158 71.1538 214.586 70.3756 214.646 69.6471C214.692 69.1085 215.093 68.7174 215.77 68.5419C215.955 68.4938 216.142 68.4626 216.326 68.4425C217.534 68.3199 218.53 68.8425 218.729 69.6856C217.955 71.1506 217.025 71.7132 215.914 71.3814ZM159.648 91.3415C158.86 91.2766 158.505 90.7188 158.509 90.2227C158.514 89.7274 158.885 89.0702 159.911 88.8378C159.971 88.8217 160.026 88.8153 160.081 88.8089C160.409 88.7752 160.677 88.8882 160.862 89.1279C161.069 89.402 161.142 89.8299 161.046 90.1962C160.799 91.1443 160.313 91.3022 159.966 91.3375C159.855 91.3495 159.745 91.3463 159.648 91.3415ZM122.535 112.401C123.71 109.565 127.173 107.283 129.953 105.453C130.377 105.176 130.78 104.909 131.154 104.656L131.782 104.23C134.062 102.688 136.22 101.226 138.277 99.6052L138.069 100.545C137.617 102.596 137.151 104.714 136.601 106.781C135.207 112.022 133.218 117.684 129.053 119.968C128.435 120.307 127.779 120.511 127.103 120.58C125.618 120.731 124.114 120.182 123.072 119.112C121.469 117.466 121.648 114.552 122.535 112.401Z" fill="#4B333B"/>
</svg>
