<svg width="166" height="73" viewBox="0 0 166 73" fill="none" xmlns="http://www.w3.org/2000/svg">
<path d="M60.3692 55.2215L42.5932 6.36648C42.5932 6.36648 41.0988 3.98691 35.9858 5.82178C31.982 7.25941 0 18.917 0 18.917L19.3268 72.0017L56.0144 58.6515C60.0729 57.3006 61.9352 59.4074 61.9352 59.4074L60.3692 55.2215Z" fill="#C08C9D"/>
<path d="M38.2841 33.0445C37.9302 31.4382 37.4209 29.2061 36.9628 27.2168C36.5086 28.4545 33.1993 29.4155 29.182 29.4155C25.1639 29.4155 21.8533 28.4545 21.4008 27.2168C20.9423 29.2061 20.4335 31.4382 20.0791 33.0445C19.4319 35.9835 18.2871 39.6068 21.2881 41.5237C24.6273 43.6565 28.0941 44.098 29.0927 46.6319C29.1248 46.7135 29.238 46.7135 29.2705 46.6319C30.2691 44.098 33.7355 43.6565 37.0747 41.5237C40.0756 39.6068 38.9326 35.9835 38.2841 33.0445Z" fill="white"/>
<path d="M76.4657 25.9609L82.0984 41.0788L79.9039 41.6664L77.7076 35.7706C77.1077 34.0307 76.5642 32.4426 76.0675 30.8424L75.9612 30.8233C75.969 32.1512 75.9517 33.676 75.9352 35.2008L75.8614 38.9967L73.6457 39.5904L71.0143 36.5192C69.9676 35.2788 68.9209 34.0394 68.0264 32.9487L67.954 33.0155C68.6073 34.5746 69.2619 36.1332 69.949 37.8492L72.1457 43.745L69.9516 44.3331L64.3193 29.2152L66.6023 28.6037L71.5037 34.0364C72.1799 34.8057 73.2505 36.1098 73.752 36.7356L73.8409 36.7121C73.8274 35.9558 73.8196 34.3664 73.8526 33.4067L74.1836 26.5724L76.4657 25.9609Z" fill="#4B333B"/>
<path d="M79.5693 25.128L81.7638 24.5404L84.2269 31.1491C84.6286 32.2294 85.2723 34.2182 85.608 35.5765L85.6909 35.6021C85.7056 34.7911 85.71 33.6254 85.8011 32.6271L86.4639 23.2814L88.7465 22.6699L94.3787 37.7873L92.1842 38.3754L89.7303 31.7879C89.3034 30.6434 88.6363 28.5896 88.2801 27.3072L88.1973 27.282C88.199 28.1364 88.1908 29.4218 88.1279 30.365L87.4633 39.64L85.2024 40.2454L79.5693 25.128Z" fill="#4B333B"/>
<path d="M100.384 19.5586L106.016 34.6765L103.777 35.2758L98.9083 22.2096L95.6276 23.0883C97.0478 27.5534 98.1353 31.0622 98.5157 32.9318C99.1382 35.7819 98.1604 37.0179 96.0106 37.5942L95.2706 35.6067C96.2453 35.3452 96.5155 34.6318 96.1798 33.0116C95.8367 31.3701 94.7726 27.9255 92.7139 21.6129L100.384 19.5586Z" fill="#4B333B"/>
<path d="M112.022 16.4395L117.654 31.5573L115.415 32.1566L110.547 19.0914L107.266 19.97C108.686 24.4347 109.774 27.9439 110.154 29.8135C110.777 32.6632 109.799 33.8996 107.649 34.4755L106.908 32.488C107.884 32.2269 108.154 31.5135 107.819 29.8929C107.475 28.251 106.412 24.8072 104.353 18.4938L112.022 16.4395Z" fill="#4B333B"/>
<path d="M127.816 26.5755L128.581 28.6272L120.756 30.7232L115.124 15.6053L122.727 13.5684L123.492 15.6205L118.128 17.0573L119.761 21.4413L124.705 20.1177L125.452 22.126L120.51 23.45L122.232 28.0717L127.816 26.5755Z" fill="#4B333B"/>
<path d="M137.971 21.5047C139.017 24.3123 137.575 26.528 134.848 27.2583C131.879 28.0536 129.363 26.4712 128.28 23.958L130.541 23.3522C131.129 24.6679 132.384 25.6142 134.046 25.1688C135.508 24.7768 136.257 23.579 135.669 22.0026C135.058 20.3607 133.606 19.7995 131.965 20.2393L130.791 20.5537L130.066 18.61L131.042 18.3485C132.659 17.9152 133.34 16.926 132.728 15.2845C132.213 13.9024 131.131 13.2888 129.757 13.6574C128.139 14.0906 127.883 15.2997 128.357 16.8349L126.141 17.4291C125.266 14.6232 126.095 12.3338 128.977 11.5619C131.637 10.8498 133.992 12.0003 134.997 14.7C135.592 16.2985 135.366 17.5227 133.929 18.5727C136.125 18.5792 137.319 19.7553 137.971 21.5047Z" fill="#4B333B"/>
<path d="M135.94 10.0347L138.135 9.44704L140.597 16.0554C140.999 17.1356 141.643 19.1249 141.979 20.4832L142.061 20.5088C142.075 19.6973 142.081 18.5321 142.172 17.5338L142.834 8.18808L145.118 7.57617L150.749 22.694L148.554 23.2817L146.101 16.695C145.675 15.5501 145.007 13.4962 144.651 12.2139L144.568 12.1883C144.57 13.0431 144.561 14.3285 144.498 15.2713L143.834 24.5467L141.573 25.1521L135.94 10.0347Z" fill="#4B333B"/>
<path d="M160.366 3.48828L165.998 18.6061L163.804 19.1938L161.607 13.298C161.008 11.5581 160.464 9.96997 159.966 8.36971L159.862 8.35063C159.869 9.67897 159.852 11.2033 159.835 12.7281L159.762 16.5241L157.546 17.1178L154.914 14.0465C153.868 12.8062 152.82 11.5672 151.927 10.4765L151.855 10.5428C152.508 12.1019 153.163 13.6605 153.85 15.3766L156.046 21.2728L153.852 21.8604L148.219 6.74213L150.503 6.13022L155.403 11.5629C156.08 12.3322 157.15 13.6367 157.652 14.2625L157.741 14.2386C157.728 13.4823 157.721 11.8933 157.752 10.9336L158.083 4.09976L160.366 3.48828Z" fill="#4B333B"/>
<path d="M70.4792 9.76953L74.7038 21.1084L62.2911 24.4333L58.0674 13.0949L59.3752 12.7445L63.1492 22.8734L67.382 21.7394L63.6094 11.61L64.9381 11.2536L68.7116 21.3829L72.9453 20.2488L69.1722 10.1195L70.4792 9.76953Z" fill="#4B333B"/>
<path d="M77.8293 14.3128L77.3231 15.6364L78.9398 19.9771L77.632 20.3279L73.4082 8.98907L74.7156 8.63866L76.6312 13.779C76.9578 12.9554 77.2771 12.1093 77.5959 11.2646L79.0383 7.48118L80.7231 7.0293L78.3243 13.0882L85.5233 18.2142L83.9053 18.6474L77.8293 14.3128Z" fill="#4B333B"/>
<path d="M84.8218 14.1715L83.4623 10.5217C82.472 7.865 83.4849 6.0028 85.8117 5.37962C88.1389 4.75599 90.2306 5.78683 91.2197 8.44352L92.5791 12.0938C93.569 14.7496 92.5566 16.6122 90.2298 17.2358C87.9016 17.859 85.8117 16.8277 84.8218 14.1715ZM91.2496 12.4498L89.8897 8.8C89.1575 6.83459 87.8522 6.2101 86.2784 6.63163C84.7051 7.0536 84.0596 8.20066 84.7914 10.1652L86.1513 13.815C86.8836 15.7808 88.1892 16.4049 89.7626 15.9834C91.3363 15.5618 91.9818 14.4148 91.2496 12.4498Z" fill="#4B333B"/>
<path d="M94.8731 14.4515C96.2473 14.0829 95.8066 12.1817 95.1173 9.87236C94.4706 7.74215 93.8151 5.85134 93.0703 3.72243L99.0552 2.11914L103.279 13.458L101.971 13.8084L98.1972 3.67993L94.8063 4.58848C95.3902 6.28501 96.0834 8.47376 96.4759 9.72317C97.5478 13.1887 97.4155 15.1237 95.3321 15.6823L94.8731 14.4515Z" fill="#4B333B"/>
<path d="M110.266 2.9625L113.187 10.802L112.056 11.1047L111.552 10.0765C111.301 10.9746 110.624 11.7739 109.361 12.1117C107.232 12.6816 105.205 11.8233 104.385 9.62026C103.572 7.43932 104.563 5.8434 107.111 5.1608L109.417 4.54325L108.966 3.33373C108.346 1.67059 107.219 0.998831 105.712 1.40258C104.383 1.75863 103.747 2.73656 104.124 4.0133L102.817 4.3637C102.181 2.39569 103.147 0.736025 105.297 0.160106C107.514 -0.433593 109.405 0.651025 110.266 2.9625ZM110.689 7.95582L109.86 5.73108L107.51 6.36034C105.803 6.81786 105.185 7.83873 105.723 9.28633C106.279 10.776 107.587 11.2101 109.093 10.8059C110.579 10.4082 111.171 9.25207 110.689 7.95582Z" fill="#4B333B"/>
<path d="M36.4764 58.1326C36.4764 59.598 33.2104 60.7858 29.1827 60.7858C25.1542 60.7858 21.8887 59.598 21.8887 58.1326C21.8887 56.6659 25.1542 55.4785 29.1827 55.4785C33.21 55.4785 36.4764 56.6659 36.4764 58.1326Z" fill="#4B333B"/>
<path d="M16.0264 20.0451L29.1843 24.8329L42.341 20.0451L29.1843 15.2578L16.0264 20.0451Z" fill="#4B333B"/>
<path d="M24.0437 34.0641C24.2237 33.8681 24.3369 33.6109 24.3369 33.326C24.3369 32.8672 24.0519 32.4743 23.6463 32.3073V25.7372L22.78 25.418V32.3077C22.3745 32.4743 22.0895 32.8676 22.0895 33.3264C22.0895 33.6114 22.2022 33.8685 22.3827 34.0646L21.4102 35.7212C21.4102 35.7212 22.0938 36.1306 23.2702 36.1306C24.4475 36.1306 25.0162 35.7212 25.0162 35.7212L24.0437 34.0641Z" fill="#4B333B"/>
</svg>
